SplineFontDB: 3.0
FontName: Cookie-Regular
FullName: Cookie Regular
FamilyName: Cookie
Weight: Regular
Copyright: Copyright (c) 2011 by Ania Kruk (hello@aniakruk.com), with Reserved Font Name Cookie.
Version: 001.001
ItalicAngle: 0
UnderlinePosition: -50
UnderlineWidth: 50
Ascent: 800
Descent: 200
sfntRevision: 0x00010083
LayerCount: 2
Layer: 0 1 "Back"  1
Layer: 1 1 "Fore"  0
NeedsXUIDChange: 1
XUID: [1021 288 713564382 3167910]
FSType: 0
OS2Version: 2
OS2_WeightWidthSlopeOnly: 0
OS2_UseTypoMetrics: 1
CreationTime: 1318239310
ModificationTime: 1318250150
PfmFamily: 17
TTFWeight: 400
TTFWidth: 5
LineGap: 0
VLineGap: 0
Panose: 2 0 0 0 0 0 0 0 0 0
OS2TypoAscent: 0
OS2TypoAOffset: 1
OS2TypoDescent: -120
OS2TypoDOffset: 1
OS2TypoLinegap: 0
OS2WinAscent: 0
OS2WinAOffset: 1
OS2WinDescent: 0
OS2WinDOffset: 1
HheadAscent: 0
HheadAOffset: 1
HheadDescent: 0
HheadDOffset: 1
OS2SubXSize: 700
OS2SubYSize: 650
OS2SubXOff: 0
OS2SubYOff: 140
OS2SupXSize: 700
OS2SupYSize: 650
OS2SupXOff: 0
OS2SupYOff: 477
OS2StrikeYSize: 50
OS2StrikeYPos: 250
OS2Vendor: 'pyrs'
OS2CodePages: 20000111.00000000
OS2UnicodeRanges: 800000a7.0000004a.00000000.00000000
Lookup: 4 0 1 "'liga' Standard Ligatures in Latin lookup 0"  {"'liga' Standard Ligatures in Latin lookup 0 subtable"  } ['liga' ('latn' <'PLK ' 'dflt' > ) ]
Lookup: 1 0 0 "'init' Initial Forms in Latin lookup 1"  {"'init' Initial Forms in Latin lookup 1 subtable"  } ['init' ('latn' <'PLK ' 'dflt' > ) ]
Lookup: 1 0 0 "'fina' Terminal Forms in Latin lookup 2"  {"'fina' Terminal Forms in Latin lookup 2 subtable"  } ['fina' ('latn' <'PLK ' 'dflt' > ) ]
MarkAttachClasses: 1
DEI: 91125
TtTable: prep
PUSHW_1
 511
SCANCTRL
PUSHB_1
 4
SCANTYPE
EndTTInstrs

StartChar: b
Encoding: 98 98 1
Width: 345
Flags: HMW
HStem: -5 45<99.5 125.5> 164 42 309 36<169 186.5> 580 20G<105.5 138>
VStem: -8 77<232 310 232 319> 88 44 135 24<486 508.5> 226 60
LayerCount: 2
Fore
SplineSet
179 345 m 0,0,1
 225 345 225 345 255 311.5 c 128,-1,2
 285 278 285 278 286 218 c 1,3,4
 327 230 327 230 358.5 247 c 0,5,6
 390 264 390 264 392 264 c 0,7,8
 398 264 398 264 398 254 c 0,9,10
 398 244 398 244 369.5 223 c 0,11,12
 341 202 341 202 284 181 c 1,13,14
 272 92 272 92 212 43.5 c 128,-1,15
 152 -5 152 -5 92 -5 c 128,-1,16
 32 -5 32 -5 12 39.5 c 128,-1,17
 -8 84 -8 84 -8 180 c 0,18,19
 -8 276 -8 276 6 362 c 128,-1,20
 20 448 20 448 42 497.5 c 128,-1,21
 64 547 64 547 87.5 573.5 c 128,-1,22
 111 600 111 600 132 600 c 0,23,24
 142 600 142 600 150.5 576 c 128,-1,25
 159 552 159 552 159 517 c 0,26,27
 159 440 159 440 131 337 c 1,28,29
 150 345 150 345 179 345 c 0,0,1
93 230 m 1,30,31
 83 205 83 205 70 182 c 1,32,33
 72 106 72 106 82 73 c 128,-1,34
 92 40 92 40 114 40 c 0,35,36
 149 40 149 40 182.5 69.5 c 128,-1,37
 216 99 216 99 224 165 c 1,38,39
 118 165 118 165 93 230 c 1,30,31
135 499 m 0,40,41
 135 541 135 541 124 541 c 0,42,43
 115 541 115 541 102.5 497.5 c 128,-1,44
 90 454 90 454 79.5 379.5 c 128,-1,45
 69 305 69 305 69 232 c 1,46,47
 135 419 135 419 135 499 c 0,40,41
163 309 m 0,48,49
 149 309 149 309 140.5 300.5 c 128,-1,50
 132 292 132 292 132 278 c 0,51,52
 132 247 132 247 159.5 226.5 c 128,-1,53
 187 206 187 206 226 206 c 1,54,55
 225 247 225 247 210 278 c 128,-1,56
 195 309 195 309 163 309 c 0,48,49
EndSplineSet
EndChar

StartChar: c
Encoding: 99 99 2
Width: 270
Flags: HMW
HStem: -5 52<107 152.5> 224 131<173 182 111.5 192> 323 32<120 154>
VStem: -16 71<125.5 188.5 125.5 201.5> 171 57<284.5 301>
LayerCount: 2
Fore
SplineSet
163 243 m 1,0,-1
 171 294 l 1,1,2
 171 305 171 305 164 314 c 128,-1,3
 157 323 157 323 146 323 c 0,4,5
 109 323 109 323 82 267.5 c 128,-1,6
 55 212 55 212 55 161 c 128,-1,7
 55 110 55 110 76 78.5 c 128,-1,8
 97 47 97 47 127.5 47 c 128,-1,9
 158 47 158 47 182 61 c 128,-1,10
 206 75 206 75 226 101 c 0,11,12
 268.258064516 155.935483871 268.258064516 155.935483871 298.5 226.5 c 0,13,14
 306 244 306 244 310.5 252 c 128,-1,15
 315 260 315 260 320.5 260 c 128,-1,16
 326 260 326 260 326 252 c 0,17,18
 326 219 326 219 303 173 c 128,-1,19
 280 127 280 127 264.5 102.5 c 128,-1,20
 249 78 249 78 225 51 c 0,21,22
 175.222222222 -5 175.222222222 -5 100 -5 c 0,23,24
 43 -5 43 -5 13.5 35.5 c 128,-1,25
 -16 76 -16 76 -16 122 c 0,26,27
 -16 236 -16 236 33.5 295.5 c 128,-1,28
 83 355 83 355 159 355 c 0,29,30
 191 355 191 355 209.5 338.5 c 128,-1,31
 228 322 228 322 228 301 c 0,32,33
 228 262 228 262 214 243 c 128,-1,34
 200 224 200 224 180 224 c 0,35,36
 163 224 163 224 163 243 c 1,0,-1
EndSplineSet
EndChar

StartChar: m
Encoding: 109 109 3
Width: 554
Flags: HMW
HStem: -5 21G<50.5 70.5 237.5 257.5 419.5 455.5> 276 79<179.5 235> 345 20G<80.5 97.5>
VStem: 7 73 187 88 199 76<208.5 318.5> 386 57 386 76<213 320.5>
LayerCount: 2
Fore
SplineSet
79 54 m 2,0,-1
 80 23 l 2,1,2
 80 -5 80 -5 64 -5 c 0,3,4
 40 -5 40 -5 18 1.5 c 128,-1,5
 -4 8 -4 8 -4 19.5 c 128,-1,6
 -4 31 -4 31 1.5 98.5 c 128,-1,7
 7 166 7 166 7 200 c 2,8,-1
 7 259 l 2,9,10
 7 307 7 307 17 317 c 128,-1,11
 27 327 27 327 52.5 346 c 128,-1,12
 78 365 78 365 89.5 365 c 128,-1,13
 101 365 101 365 104 361 c 128,-1,14
 107 357 107 357 107 346 c 0,15,16
 107 293 107 293 87 246 c 1,17,18
 82 189 82 189 82 167 c 1,19,20
 135.28358209 265.955223881 135.28358209 265.955223881 155.641791045 297.47761194 c 0,21,22
 192.791666667 355 192.791666667 355 223 355 c 0,23,24
 242 355 242 355 258.5 340 c 128,-1,25
 275 325 275 325 275 304 c 2,26,-1
 272 217 l 1,27,28
 276.2 225.4 276.2 225.4 306.1 262.2 c 128,-1,29
 336 299 336 299 346.5 310 c 128,-1,30
 357 321 357 321 369 332.5 c 0,31,32
 392.47826087 355 392.47826087 355 410.739130435 355 c 128,-1,33
 429 355 429 355 445.5 341 c 128,-1,34
 462 327 462 327 462 306 c 0,35,36
 462 262 462 262 452.5 176.5 c 128,-1,37
 443 91 443 91 443 68.5 c 128,-1,38
 443 46 443 46 449 46 c 0,39,40
 466 47 466 47 496 88.5 c 128,-1,41
 526 130 526 130 555.5 195 c 128,-1,42
 585 260 585 260 591.5 260 c 128,-1,43
 598 260 598 260 598 252 c 0,44,45
 598 224 598 224 569 163 c 0,46,47
 490 -5 490 -5 436 -5 c 0,48,49
 402 -5 402 -5 382 11 c 1,50,51
 375 18 375 18 375 47.5 c 128,-1,52
 375 77 375 77 380.5 143.5 c 128,-1,53
 386 210 386 210 386 243 c 128,-1,54
 386 276 386 276 375 276 c 0,55,56
 362 276 362 276 318.5 232 c 128,-1,57
 275 188 275 188 272 170 c 0,58,59
 266 136 266 136 266 23 c 0,60,61
 266 -5 266 -5 251 -5 c 0,62,63
 228 -5 228 -5 207.5 1.5 c 128,-1,64
 187 8 187 8 187 19.5 c 128,-1,65
 187 31 187 31 193 118 c 128,-1,66
 199 205 199 205 199 240.5 c 128,-1,67
 199 276 199 276 187.5 276 c 128,-1,68
 176 276 176 276 132 207.5 c 128,-1,69
 88 139 88 139 83.5 112 c 128,-1,70
 79 85 79 85 79 54 c 2,0,-1
EndSplineSet
EndChar

StartChar: o
Encoding: 111 111 4
Width: 352
Flags: HMW
HStem: -5 45<105 159.5 105 159.5> 164 39<194 195> 322 23 322 43
VStem: -23 71<132.5 186.5 132.5 195.5> 82 50<262.5 268> 227 65<221 228>
LayerCount: 2
Fore
SplineSet
292 221 m 1,0,1
 330 236 330 236 355 250 c 128,-1,2
 380 264 380 264 382 264 c 0,3,4
 388 264 388 264 388 254 c 128,-1,5
 388 244 388 244 360 223.5 c 128,-1,6
 332 203 332 203 289 187 c 1,7,8
 279 102 279 102 231.5 48.5 c 128,-1,9
 184 -5 184 -5 103 -5 c 0,10,11
 43 -5 43 -5 10 40 c 128,-1,12
 -23 85 -23 85 -23 154 c 128,-1,13
 -23 223 -23 223 17.5 284 c 128,-1,14
 58 345 58 345 122 345 c 1,15,16
 148 365 148 365 189 365 c 128,-1,17
 230 365 230 365 261 326 c 128,-1,18
 292 287 292 287 292 221 c 1,0,1
126 40 m 0,19,20
 209 40 209 40 224 167 c 1,21,22
 206 164 206 164 190 164 c 0,23,24
 144 164 144 164 113 191.5 c 128,-1,25
 82 219 82 219 82 252.5 c 128,-1,26
 82 286 82 286 93 308 c 1,27,28
 69 288 69 288 58.5 247 c 128,-1,29
 48 206 48 206 48 160.5 c 128,-1,30
 48 115 48 115 71 77.5 c 128,-1,31
 94 40 94 40 126 40 c 0,19,20
227 204 m 1,32,33
 227 247 227 247 211 289.5 c 128,-1,34
 195 332 195 332 167 332 c 0,35,36
 151 332 151 332 141.5 317.5 c 128,-1,37
 132 303 132 303 132 286 c 0,38,39
 132 251 132 251 157 227 c 128,-1,40
 182 203 182 203 216 203 c 0,41,42
 223 203 223 203 227 204 c 1,32,33
EndSplineSet
EndChar

StartChar: underscore
Encoding: 95 95 5
Width: 460
Flags: HMW
HStem: -104 21G<343.5 410> -96 45<180 183> -96 67
LayerCount: 2
Fore
SplineSet
140 -96 m 1,0,-1
 20 -101 l 2,1,2
 -1 -101 -1 -101 -1 -81 c 0,3,4
 -1 -68 -1 -68 9 -53.5 c 128,-1,5
 19 -39 19 -39 29 -39 c 0,6,7
 30 -39 30 -39 57.5 -42 c 0,8,9
 140 -51 140 -51 256 -51 c 128,-1,10
 372 -51 372 -51 398 -40 c 128,-1,11
 424 -29 424 -29 433 -29 c 128,-1,12
 442 -29 442 -29 442 -43.5 c 128,-1,13
 442 -58 442 -58 428 -81 c 128,-1,14
 414 -104 414 -104 400 -104 c 0,15,16
 340 -104 340 -104 260 -100 c 128,-1,17
 180 -96 180 -96 140 -96 c 1,0,-1
EndSplineSet
EndChar

StartChar: y
Encoding: 121 121 7
Width: 345
Flags: HMW
HStem: -320 36<105 139.5 105 158.5> -5 53<75.5 85.5> 345 20G<74.5 91.5 264.5 281.5>
VStem: -5 79 12 62<-228 -191.5> 183 66
LayerCount: 2
Fore
SplineSet
-5 87 m 1,0,-1
 1 199 l 1,1,-1
 1 258 l 2,2,3
 1 306 1 306 11 316 c 128,-1,4
 21 326 21 326 46.5 345.5 c 128,-1,5
 72 365 72 365 83.5 365 c 128,-1,6
 95 365 95 365 98 361 c 128,-1,7
 101 357 101 357 101 345 c 0,8,9
 101 302 101 302 82 258 c 1,10,11
 67 166 67 166 67 107 c 128,-1,12
 67 48 67 48 81 48 c 0,13,14
 105 48 105 48 136.5 90.5 c 128,-1,15
 168 133 168 133 201 216 c 1,16,17
 202 238 202 238 203 262.5 c 128,-1,18
 204 287 204 287 205 298.5 c 128,-1,19
 206 310 206 310 206.5 315 c 128,-1,20
 207 320 207 320 234 342.5 c 128,-1,21
 261 365 261 365 275.5 365 c 128,-1,22
 290 365 290 365 290 327 c 0,23,24
 290 317 290 317 284.5 288 c 128,-1,25
 279 259 279 259 272 246 c 1,26,27
 262 181 262 181 261 122 c 1,28,29
 359 246 359 246 365.5 253 c 128,-1,30
 372 260 372 260 377 260 c 0,31,32
 387 260 387 260 387 250 c 0,33,34
 387 244 387 244 383 237 c 0,35,36
 351 190 351 190 257 72 c 1,37,38
 251 -47 251 -47 249 -90 c 0,39,40
 244 -217 244 -217 213.5 -268.5 c 128,-1,41
 183 -320 183 -320 105 -320 c 0,42,43
 71 -320 71 -320 41.5 -299.5 c 128,-1,44
 12 -279 12 -279 12 -228.5 c 128,-1,45
 12 -178 12 -178 50.5 -125 c 128,-1,46
 89 -72 89 -72 191 38 c 1,47,-1
 197 147 l 1,48,49
 163 72 163 72 130 33.5 c 128,-1,50
 97 -5 97 -5 57 -5 c 128,-1,51
 17 -5 17 -5 6 15 c 128,-1,52
 -5 35 -5 35 -5 87 c 1,0,-1
188 -9 m 1,53,54
 74 -132 74 -132 74 -206 c 0,55,56
 74 -240 74 -240 86 -262 c 128,-1,57
 98 -284 98 -284 119.5 -284 c 128,-1,58
 141 -284 141 -284 152.5 -266 c 0,59,60
 177.267181467 -227.233976834 177.267181467 -227.233976834 188 -9 c 1,53,54
EndSplineSet
EndChar

StartChar: n
Encoding: 110 110 8
Width: 381
Flags: HMW
HStem: -5 21G<49.5 69.5 246.5 282.5> 345 20G<79.5 96.5>
VStem: 6 73 208 62 208 81<213 320.5>
LayerCount: 2
Fore
SplineSet
78 54 m 2,0,-1
 79 23 l 2,1,2
 79 -5 79 -5 63 -5 c 0,3,4
 39 -5 39 -5 17 1.5 c 128,-1,5
 -5 8 -5 8 -5 19.5 c 128,-1,6
 -5 31 -5 31 0.5 98.5 c 128,-1,7
 6 166 6 166 6 200 c 2,8,-1
 6 259 l 2,9,10
 6 307 6 307 16 317 c 128,-1,11
 26 327 26 327 51.5 346 c 128,-1,12
 77 365 77 365 88.5 365 c 128,-1,13
 100 365 100 365 103 361 c 128,-1,14
 106 357 106 357 106 346 c 0,15,16
 106 293 106 293 86 246 c 1,17,18
 81 189 81 189 81 167 c 1,19,20
 85 173 85 173 123 235 c 128,-1,21
 161 297 161 297 187.5 326 c 128,-1,22
 214 355 214 355 235 355 c 128,-1,23
 256 355 256 355 272.5 341 c 128,-1,24
 289 327 289 327 289 306 c 0,25,26
 289 262 289 262 279.5 176.5 c 128,-1,27
 270 91 270 91 270 68.5 c 128,-1,28
 270 46 270 46 276 46 c 0,29,30
 293 47 293 47 323 88.5 c 128,-1,31
 353 130 353 130 382.5 195 c 128,-1,32
 412 260 412 260 418.5 260 c 128,-1,33
 425 260 425 260 425 252 c 0,34,35
 425 224 425 224 396 163 c 0,36,37
 317 -5 317 -5 263 -5 c 0,38,39
 224 -5 224 -5 204 11 c 1,40,41
 197 18 197 18 197 47.5 c 128,-1,42
 197 77 197 77 202.5 143.5 c 128,-1,43
 208 210 208 210 208 243 c 128,-1,44
 208 276 208 276 196.5 276 c 128,-1,45
 185 276 185 276 136 207.5 c 128,-1,46
 87 139 87 139 84 120 c 0,47,48
 78 85 78 85 78 54 c 2,0,-1
EndSplineSet
EndChar

StartChar: u
Encoding: 117 117 9
Width: 380
Flags: HMW
HStem: -5 53<85.5 94> 345 20G<79.5 96.5 274.5 291.5>
VStem: 6 66 198 73<67 73.5>
LayerCount: 2
Fore
SplineSet
0 87 m 1,0,-1
 6 199 l 1,1,-1
 6 258 l 2,2,3
 6 306 6 306 16 316 c 128,-1,4
 26 326 26 326 51.5 345.5 c 128,-1,5
 77 365 77 365 88.5 365 c 128,-1,6
 100 365 100 365 103 361 c 128,-1,7
 106 357 106 357 106 345 c 0,8,9
 106 302 106 302 87 258 c 1,10,11
 72 166 72 166 72 107 c 128,-1,12
 72 48 72 48 91 48 c 0,13,14
 114 48 114 48 145 88 c 128,-1,15
 176 128 176 128 207 207 c 1,16,17
 216 307 216 307 221.5 315 c 128,-1,18
 227 323 227 323 249 344 c 128,-1,19
 271 365 271 365 285.5 365 c 128,-1,20
 300 365 300 365 300 327 c 0,21,22
 300 317 300 317 294.5 288 c 128,-1,23
 289 259 289 259 282 246 c 1,24,25
 271 218 271 218 271 73 c 0,26,27
 271 46 271 46 277 46 c 0,28,29
 294 47 294 47 324 88.5 c 128,-1,30
 354 130 354 130 383.5 195 c 128,-1,31
 413 260 413 260 419.5 260 c 128,-1,32
 426 260 426 260 426 252 c 0,33,34
 426 224 426 224 397 163 c 0,35,36
 318 -5 318 -5 264 -5 c 0,37,38
 225 -5 225 -5 205 11 c 1,39,40
 198 18 198 18 198 54 c 128,-1,41
 198 90 198 90 201 134 c 1,42,43
 169 66 169 66 137 30.5 c 128,-1,44
 105 -5 105 -5 65.5 -5 c 128,-1,45
 26 -5 26 -5 13 16 c 128,-1,46
 0 37 0 37 0 87 c 1,0,-1
EndSplineSet
EndChar

StartChar: v
Encoding: 118 118 10
Width: 350
Flags: HMW
HStem: -5 49<108 140> 168 39<290 290.5> 168 177<81.5 290.5> 327 38<212.5 225.5>
VStem: 5 73<173.5 177> 154 54<288 296.5> 239 30<260.5 265.5>
LayerCount: 2
Fore
SplineSet
125 44 m 0,0,1
 161 44 161 44 188 81.5 c 128,-1,2
 215 119 215 119 228 173 c 1,3,4
 192 184 192 184 173 211.5 c 128,-1,5
 154 239 154 239 154 275 c 128,-1,6
 154 311 154 311 173 338 c 128,-1,7
 192 365 192 365 229 365 c 0,8,9
 269 365 269 365 269 269 c 0,10,11
 269 246 269 246 264 213 c 1,12,13
 279 207 279 207 296 207 c 0,14,15
 333 207 333 207 369 243 c 1,16,17
 388 264 388 264 396 264 c 128,-1,18
 404 264 404 264 404 253.5 c 128,-1,19
 404 243 404 243 389 227 c 0,20,21
 336 168 336 168 255 168 c 1,22,23
 236 95 236 95 196 45 c 128,-1,24
 156 -5 156 -5 98 -5 c 0,25,26
 64 -5 64 -5 41.5 24 c 0,27,28
 5 71.0444444444 5 71.0444444444 5 162 c 0,29,30
 5 193 5 193 10 242 c 128,-1,31
 15 291 15 291 21.5 302 c 128,-1,32
 28 313 28 313 53.5 329 c 128,-1,33
 79 345 79 345 89 345 c 0,34,35
 104 345 104 345 104 327 c 0,36,37
 104 276 104 276 78 216 c 1,38,39
 78 145 78 145 89.5 94.5 c 128,-1,40
 101 44 101 44 125 44 c 0,0,1
216 327 m 0,41,42
 208 327 208 327 208 294 c 128,-1,43
 208 261 208 261 238 231 c 1,44,45
 239 237 239 237 239 248 c 0,46,47
 239 327 239 327 216 327 c 0,41,42
EndSplineSet
EndChar

StartChar: s
Encoding: 115 115 11
Width: 208
Flags: HMW
HStem: -10 30<47.5 66> 339 37<102.5 124.5 80.5 125.5>
VStem: -13 44 -13 71<241 277 241 286.5> -13 176<218 339> 90 48<56.5 58>
LayerCount: 2
Fore
SplineSet
135 306 m 1,0,-1
 137 321 l 1,1,2
 137 339 137 339 116.5 339 c 128,-1,3
 96 339 96 339 77 312.5 c 128,-1,4
 58 286 58 286 58 269 c 128,-1,5
 58 252 58 252 60 242 c 128,-1,6
 62 232 62 232 64.5 225.5 c 128,-1,7
 67 219 67 219 73 210 c 128,-1,8
 79 201 79 201 82 197 c 2,9,-1
 92.5 183 l 2,10,11
 100 173 100 173 103 170 c 1,12,13
 170 227 170 227 200.5 248 c 128,-1,14
 231 269 231 269 236 269 c 0,15,16
 246 269 246 269 246 258 c 128,-1,17
 246 247 246 247 237 241 c 0,18,19
 173 200 173 200 116 152 c 1,20,21
 138 120 138 120 138 82 c 128,-1,22
 138 44 138 44 109 17 c 128,-1,23
 80 -10 80 -10 46 -10 c 128,-1,24
 12 -10 12 -10 1.5 0.5 c 128,-1,25
 -9 11 -9 11 -9.5 37.5 c 128,-1,26
 -10 64 -10 64 56 128 c 1,27,28
 51 134 51 134 38 147.5 c 128,-1,29
 25 161 25 161 18.5 169 c 128,-1,30
 12 177 12 177 3.5 190 c 0,31,32
 -13 215.235294118 -13 215.235294118 -13 244 c 0,33,34
 -13 303 -13 303 25 339.5 c 128,-1,35
 63 376 63 376 106 376 c 0,36,37
 133 376 133 376 148 361.5 c 128,-1,38
 163 347 163 347 163 331.5 c 0,39,40
 163 298 163 298 147 298 c 0,41,42
 135 298 135 298 135 306 c 1,0,-1
71 109 m 1,43,44
 31 69 31 69 31 44.5 c 128,-1,45
 31 20 31 20 56 20 c 0,46,47
 71 20 71 20 80.5 32.5 c 0,48,49
 102.607476636 61.5887850467 102.607476636 61.5887850467 71 109 c 1,43,44
EndSplineSet
EndChar

StartChar: z
Encoding: 122 122 12
Width: 324
Flags: HMW
HStem: -13 123 0 21G<-5 2.5> 37 73<47 58 38 72.5> 227 57<114.5 125> 227 128 334 20G<19.5 42>
LayerCount: 2
Fore
SplineSet
171 233 m 1,0,1
 151 227 151 227 101 227 c 128,-1,2
 51 227 51 227 17.5 243.5 c 128,-1,3
 -16 260 -16 260 -16 310 c 0,4,5
 -16 329 -16 329 -1.5 341.5 c 128,-1,6
 13 354 13 354 29.5 354 c 128,-1,7
 46 354 46 354 57 340.5 c 128,-1,8
 68 327 68 327 68 319 c 128,-1,9
 68 311 68 311 75.5 304 c 0,10,11
 96.9285714286 284 96.9285714286 284 136.464285714 284 c 128,-1,12
 176 284 176 284 204 291 c 1,13,14
 243.237288136 345.93220339 243.237288136 345.93220339 259 352.5 c 0,15,16
 265 355 265 355 272 355 c 0,17,18
 288 355 288 355 288 323 c 128,-1,19
 288 291 288 291 274 274 c 128,-1,20
 260 257 260 257 225 242 c 1,21,22
 149 173 149 173 89 106 c 1,23,24
 121.165413534 99.007518797 121.165413534 99.007518797 172.582706767 81.5037593985 c 128,-1,25
 224 64 224 64 231 64 c 0,26,27
 271 66 271 66 332 200 c 0,28,29
 359 260 359 260 365.5 260 c 128,-1,30
 372 260 372 260 372 245 c 128,-1,31
 372 230 372 230 343 163 c 0,32,33
 265 -13 265 -13 197 -13 c 0,34,35
 190 -13 190 -13 133 12 c 128,-1,36
 76 37 76 37 47 37 c 1,37,38
 22 0 22 0 -1 0 c 0,39,40
 -18 0 -18 0 -18 25 c 128,-1,41
 -18 50 -18 50 6.5 80 c 128,-1,42
 31 110 31 110 58 110 c 1,43,44
 123 177 123 177 171 233 c 1,0,1
EndSplineSet
Substitution2: "'fina' Terminal Forms in Latin lookup 2 subtable" z.2
EndChar

StartChar: e
Encoding: 101 101 13
Width: 277
Flags: HMW
HStem: -5 52<112.5 158.5> 143 212 323 32<113.5 148>
VStem: -16 69 -16 243<101 307.5>
LayerCount: 2
Fore
SplineSet
106 -5 m 0,0,1
 50 -5 50 -5 17 37.5 c 128,-1,2
 -16 80 -16 80 -16 134 c 0,3,4
 -16 243 -16 243 30 299 c 128,-1,5
 76 355 76 355 149 355 c 0,6,7
 183 355 183 355 205 336.5 c 128,-1,8
 227 318 227 318 227 286 c 0,9,10
 227 226 227 226 176.5 185.5 c 128,-1,11
 126 145 126 145 53 143 c 1,12,13
 57 104 57 104 79.5 75.5 c 128,-1,14
 102 47 102 47 132 47 c 128,-1,15
 162 47 162 47 186 61 c 128,-1,16
 210 75 210 75 230 101 c 0,17,18
 272.258064516 155.935483871 272.258064516 155.935483871 302.5 226.5 c 0,19,20
 310 244 310 244 314.5 252 c 128,-1,21
 319 260 319 260 324.5 260 c 128,-1,22
 330 260 330 260 330 252 c 0,23,24
 330 202.133333333 330 202.133333333 269 102.5 c 0,25,26
 203.183673469 -5 203.183673469 -5 106 -5 c 0,0,1
86.5 176 m 0,27,28
 167 200.769230769 167 200.769230769 167 282 c 0,29,30
 167 323 167 323 138 323 c 0,31,32
 103 323 103 323 79 274.5 c 128,-1,33
 55 226 55 226 53 167 c 1,34,35
 57.25 167 57.25 167 86.5 176 c 0,27,28
EndSplineSet
EndChar

StartChar: g
Encoding: 103 103 14
Width: 360
Flags: HMW
HStem: -320 36<120 154.5 120 173.5> -5 53<92.5 117> 319 36<126.5 154> 345 20G<279.5 296.5>
VStem: -17 68<137.5 200> 27 62<-228 -191.5> 198 66
LayerCount: 2
Fore
SplineSet
154.5 33 m 128,-1,1
 128 -5 128 -5 85 -5 c 128,-1,2
 42 -5 42 -5 12.5 32 c 128,-1,3
 -17 69 -17 69 -17 150 c 128,-1,4
 -17 231 -17 231 28.5 293 c 128,-1,5
 74 355 74 355 148 355 c 0,6,7
 163 355 163 355 184 342.5 c 128,-1,8
 205 330 205 330 221 312 c 1,9,10
 224 322 224 322 250 343.5 c 128,-1,11
 276 365 276 365 290.5 365 c 128,-1,12
 305 365 305 365 305 327 c 0,13,14
 305 317 305 317 299.5 288 c 128,-1,15
 294 259 294 259 287 246 c 1,16,17
 276 151 276 151 276 122 c 1,18,19
 374 246 374 246 380.5 253 c 128,-1,20
 387 260 387 260 392 260 c 0,21,22
 402 260 402 260 402 250 c 0,23,24
 402 244 402 244 398 237 c 0,25,26
 366 190 366 190 272 72 c 1,27,28
 266 -47 266 -47 264 -90 c 0,29,30
 259 -217 259 -217 228.5 -268.5 c 128,-1,31
 198 -320 198 -320 120 -320 c 0,32,33
 86 -320 86 -320 56.5 -299.5 c 128,-1,34
 27 -279 27 -279 27 -228.5 c 128,-1,35
 27 -178 27 -178 65.5 -125 c 128,-1,36
 104 -72 104 -72 206 38 c 1,37,-1
 212 153 l 1,38,0
 181 71 181 71 154.5 33 c 128,-1,1
142 319 m 0,39,40
 114 319 114 319 82.5 275.5 c 128,-1,41
 51 232 51 232 51 175.5 c 128,-1,42
 51 119 51 119 67.5 83.5 c 128,-1,43
 84 48 84 48 109 48 c 128,-1,44
 134 48 134 48 157 89 c 128,-1,45
 180 130 180 130 216 230 c 1,46,47
 218 264 218 264 218 273 c 1,48,49
 210 288 210 288 185 303.5 c 128,-1,50
 160 319 160 319 142 319 c 0,39,40
203 -9 m 1,51,52
 89 -132 89 -132 89 -206 c 0,53,54
 89 -240 89 -240 101 -262 c 128,-1,55
 113 -284 113 -284 135 -284 c 128,-1,56
 157 -284 157 -284 168.5 -267 c 0,57,58
 193.969271624 -229.349772382 193.969271624 -229.349772382 203 -9 c 1,51,52
EndSplineSet
EndChar

StartChar: q
Encoding: 113 113 15
Width: 354
Flags: HMW
HStem: -281 21G<161.5 176.5> -5 53<84.5 105.5> 319 36<118.5 144.5> 345 20G<270.5 286.5>
VStem: -25 68<137.5 200> 151 108 166 93
LayerCount: 2
Fore
SplineSet
141 26 m 128,-1,1
 116 -5 116 -5 75 -5 c 128,-1,2
 34 -5 34 -5 4.5 32 c 128,-1,3
 -25 69 -25 69 -25 150 c 128,-1,4
 -25 231 -25 231 20.5 293 c 128,-1,5
 66 355 66 355 140 355 c 0,6,7
 172 355 172 355 211 314 c 1,8,9
 258 365 258 365 280 365 c 0,10,11
 295 365 295 365 295 327 c 0,12,13
 295 318 295 318 288 289.5 c 128,-1,14
 281 261 281 261 274 248 c 1,15,16
 257 158 257 158 257 46 c 1,17,18
 283 88 283 88 326 163 c 128,-1,19
 369 238 369 238 376.5 249.5 c 128,-1,20
 384 261 384 261 391 261 c 0,21,22
 402 261 402 261 402 250 c 0,23,24
 402 244 402 244 396 234 c 128,-1,25
 390 224 390 224 337 133 c 128,-1,26
 284 42 284 42 254 -8 c 1,27,28
 245 -168 245 -168 231 -228 c 0,29,30
 229 -237 229 -237 204.5 -259 c 128,-1,31
 180 -281 180 -281 166 -281 c 0,32,33
 160 -281 160 -281 155.5 -262 c 128,-1,34
 151 -243 151 -243 151 -222 c 0,35,36
 151 -151 151 -151 178 -87 c 1,37,-1
 192 121 l 1,38,0
 166 57 166 57 141 26 c 128,-1,1
134 319 m 0,39,40
 106 319 106 319 74.5 275.5 c 128,-1,41
 43 232 43 232 43 175.5 c 128,-1,42
 43 119 43 119 59.5 83.5 c 128,-1,43
 76 48 76 48 100.5 48 c 128,-1,44
 125 48 125 48 146 83.5 c 128,-1,45
 167 119 167 119 198 202 c 1,46,47
 201 256 201 256 204 282 c 1,48,49
 192 296 192 296 170.5 307.5 c 128,-1,50
 149 319 149 319 134 319 c 0,39,40
EndSplineSet
EndChar

StartChar: p
Encoding: 112 112 16
Width: 342
Flags: HMW
HStem: -281 21G<-35.5 -18.5> -5 36<128 156.5 128 186.5> 302 53<166 190.5> 345 20G<69.5 86.5>
VStem: 232 68<150 212.5>
LayerCount: 2
Fore
SplineSet
8 311 m 0,0,1
 19 324 19 324 43 344.5 c 128,-1,2
 67 365 67 365 81 365 c 128,-1,3
 95 365 95 365 95 327 c 0,4,5
 95 318 95 318 88 289.5 c 128,-1,6
 81 261 81 261 74 248 c 1,7,8
 70 224 70 224 68 195 c 1,9,10
 96 274 96 274 125 314.5 c 128,-1,11
 154 355 154 355 196 355 c 128,-1,12
 238 355 238 355 269 317.5 c 128,-1,13
 300 280 300 280 300 199.5 c 128,-1,14
 300 119 300 119 254.5 57 c 128,-1,15
 209 -5 209 -5 135 -5 c 0,16,17
 97 -5 97 -5 58 23 c 1,18,19
 50 -167 50 -167 36 -228 c 0,20,21
 34 -237 34 -237 9.5 -259 c 128,-1,22
 -15 -281 -15 -281 -26.5 -281 c 128,-1,23
 -38 -281 -38 -281 -43 -265 c 128,-1,24
 -48 -249 -48 -249 -48 -234 c 0,25,26
 -48 -131 -48 -131 -6 31 c 1,27,28
 0.384976525822 115.281690141 0.384976525822 115.281690141 3.19248826291 212.14084507 c 128,-1,29
 6 309 6 309 8 311 c 0,0,1
62 104 m 1,30,-1
 60 59 l 1,31,32
 88 31 88 31 141 31 c 0,33,34
 170 31 170 31 201 71.5 c 128,-1,35
 232 112 232 112 232 171.5 c 128,-1,36
 232 231 232 231 215.5 266.5 c 128,-1,37
 199 302 199 302 171 302 c 0,38,39
 123 302 123 302 62 104 c 1,30,-1
EndSplineSet
EndChar

StartChar: r
Encoding: 114 114 17
Width: 223
Flags: HMW
HStem: -5 21G<98.5 134.5> 355 20G<3.5 29.5>
VStem: -21 91<311.5 327 311.5 329.5> 49 73<67 103.5> 49 92
LayerCount: 2
Fore
SplineSet
66 264 m 2,0,-1
 121 270 l 2,1,2
 129 270 129 270 135 261 c 128,-1,3
 141 252 141 252 141 242 c 128,-1,4
 141 232 141 232 131.5 172.5 c 128,-1,5
 122 113 122 113 122 79.5 c 128,-1,6
 122 46 122 46 128 46 c 0,7,8
 145 47 145 47 175 88.5 c 128,-1,9
 205 130 205 130 234.5 195 c 128,-1,10
 264 260 264 260 270.5 260 c 128,-1,11
 277 260 277 260 277 252 c 0,12,13
 277 224 277 224 248 163 c 0,14,15
 169 -5 169 -5 115 -5 c 0,16,17
 76 -5 76 -5 56 11 c 1,18,19
 49 18 49 18 49 68 c 128,-1,20
 49 118 49 118 75 238 c 1,21,22
 15.3428571429 238 15.3428571429 238 -9 273.5 c 0,23,24
 -21 291 -21 291 -21 315 c 128,-1,25
 -21 339 -21 339 -11 357 c 128,-1,26
 -1 375 -1 375 17.5 375 c 128,-1,27
 36 375 36 375 53 354.5 c 128,-1,28
 70 334 70 334 70 309.5 c 128,-1,29
 70 285 70 285 56 267 c 1,30,31
 59 264 59 264 66 264 c 2,0,-1
EndSplineSet
Substitution2: "'init' Initial Forms in Latin lookup 1 subtable" r.2
EndChar

StartChar: i
Encoding: 105 105 18
Width: 178
Flags: HMW
HStem: -5 21G<43.5 79.5> 426 107<42 94.5>
VStem: -6 73<67 89.5> 31 80<483.5 502.5>
LayerCount: 2
Fore
SplineSet
31 489 m 0,0,1
 31 507 31 507 50 520 c 128,-1,2
 69 533 69 533 84 533 c 0,3,4
 111 533 111 533 111 502 c 0,5,6
 111 471 111 471 95 448.5 c 128,-1,7
 79 426 79 426 50 426 c 0,8,9
 31 426 31 426 31 489 c 0,0,1
60 -5 m 0,10,11
 21 -5 21 -5 1 11 c 1,12,13
 -6 18 -6 18 -6 61 c 0,14,15
 -6 104 -6 104 0.5 204.5 c 128,-1,16
 7 305 7 305 12 313 c 0,17,18
 17 321 17 321 43 343 c 128,-1,19
 69 365 69 365 83.5 365 c 0,20,21
 98 365 98 365 98 327 c 0,22,23
 98 318 98 318 92.5 289 c 128,-1,24
 87 260 87 260 80 246 c 0,25,26
 67 218 67 218 67 73 c 0,27,28
 67 46 67 46 73 46 c 0,29,30
 90 47 90 47 120 88.5 c 128,-1,31
 150 130 150 130 179.5 195 c 0,32,33
 209 260 209 260 215.5 260 c 0,34,35
 222 260 222 260 222 252 c 0,36,37
 222 224 222 224 193 163 c 0,38,39
 114 -5 114 -5 60 -5 c 0,10,11
EndSplineSet
EndChar

StartChar: h
Encoding: 104 104 19
Width: 383
Flags: HMW
HStem: -5 21G<51.5 71.5 248.5 284.5> 213 20G 580 20G<115.5 148>
VStem: 8 75<167 392> 145 27<461 508.5> 210 62 210 81<213 320.5>
LayerCount: 2
Fore
SplineSet
80 54 m 2,0,-1
 81 23 l 2,1,2
 81 -5 81 -5 65 -5 c 0,3,4
 41 -5 41 -5 19 1.5 c 128,-1,5
 -3 8 -3 8 -3 19 c 0,6,7
 -3 24 -3 24 2.5 106 c 128,-1,8
 8 188 8 188 8 270.5 c 128,-1,9
 8 353 8 353 21 423.5 c 128,-1,10
 34 494 34 494 55.5 530.5 c 0,11,12
 96.4383561644 600 96.4383561644 600 142 600 c 0,13,14
 152 600 152 600 162 578 c 128,-1,15
 172 556 172 556 172 521 c 0,16,17
 172 435 172 435 143 360 c 128,-1,18
 114 285 114 285 84 245 c 1,19,20
 83 220 83 220 83 167 c 1,21,22
 87 173 87 173 125 235 c 128,-1,23
 163 297 163 297 189.5 326 c 128,-1,24
 216 355 216 355 237 355 c 128,-1,25
 258 355 258 355 274.5 341 c 128,-1,26
 291 327 291 327 291 306 c 0,27,28
 291 262 291 262 281.5 176.5 c 128,-1,29
 272 91 272 91 272 68.5 c 128,-1,30
 272 46 272 46 278 46 c 0,31,32
 295 47 295 47 325 88.5 c 128,-1,33
 355 130 355 130 384.5 195 c 128,-1,34
 414 260 414 260 420.5 260 c 128,-1,35
 427 260 427 260 427 252 c 0,36,37
 427 224 427 224 398 163 c 0,38,39
 319 -5 319 -5 265 -5 c 0,40,41
 226 -5 226 -5 206 11 c 1,42,43
 199 18 199 18 199 47.5 c 128,-1,44
 199 77 199 77 204.5 143.5 c 128,-1,45
 210 210 210 210 210 243 c 128,-1,46
 210 276 210 276 198.5 276 c 128,-1,47
 187 276 187 276 138 207.5 c 128,-1,48
 89 139 89 139 86 120 c 0,49,50
 80 85 80 85 80 54 c 2,0,-1
145 499 m 0,51,52
 145 541 145 541 134 541 c 0,53,54
 115.714285714 541 115.714285714 541 99 430.5 c 0,55,56
 90 371 90 371 86 293 c 1,57,58
 145 416 145 416 145 499 c 0,51,52
EndSplineSet
EndChar

StartChar: a
Encoding: 97 97 20
Width: 372
Flags: HMW
HStem: -5 53<84.5 105> 315 40<118.5 146>
VStem: -25 68<137.5 200> 190 73<67 72.5>
LayerCount: 2
Fore
SplineSet
256 -5 m 0,0,1
 217 -5 217 -5 197 11 c 1,2,3
 190 18 190 18 190 46.5 c 0,4,5
 190 75 190 75 192 123 c 1,6,7
 166 58 166 58 140.5 26.5 c 128,-1,8
 115 -5 115 -5 75 -5 c 0,9,10
 35 -5 35 -5 5 32.5 c 128,-1,11
 -25 70 -25 70 -25 150.5 c 0,12,13
 -25 231 -25 231 20.5 293 c 128,-1,14
 66 355 66 355 140 355 c 0,15,16
 172 355 172 355 212 313 c 1,17,18
 220 324 220 324 240.5 339.5 c 128,-1,19
 261 355 261 355 275.5 355 c 0,20,21
 290 355 290 355 290 317 c 0,22,23
 290 308 290 308 284.5 279 c 128,-1,24
 279 250 279 250 271 233.5 c 0,25,26
 263 217 263 217 263 73 c 0,27,28
 263 46 263 46 269 46 c 0,29,30
 286 47 286 47 316 88.5 c 128,-1,31
 346 130 346 130 375.5 195 c 0,32,33
 405 260 405 260 411.5 260 c 0,34,35
 418 260 418 260 418 252 c 0,36,37
 418 224 418 224 389 163 c 0,38,39
 310 -5 310 -5 256 -5 c 0,0,1
134 315 m 0,40,41
 106 315 106 315 74.5 273.5 c 128,-1,42
 43 232 43 232 43 176 c 0,43,44
 43 120 43 120 59.5 84 c 128,-1,45
 76 48 76 48 103 48 c 0,46,47
 136 48 136 48 200 213 c 1,48,49
 201 221 201 221 202.5 240.5 c 128,-1,50
 204 260 204 260 205 270 c 1,51,52
 196 286 196 286 173.5 300.5 c 128,-1,53
 151 315 151 315 134 315 c 0,40,41
EndSplineSet
EndChar

StartChar: r.2
Encoding: 65537 -1 21
Width: 236
Flags: HMW
HStem: -5 21G<101.5 141> 355 20G<6.5 32.5>
VStem: -18 143 52 92 52 206<55.5 191.5>
LayerCount: 2
Fore
SplineSet
69 264 m 2,0,-1
 124 270 l 2,1,2
 132 270 132 270 138 261 c 128,-1,3
 144 252 144 252 144 242 c 128,-1,4
 144 232 144 232 134.5 172.5 c 128,-1,5
 125 113 125 113 125 79.5 c 128,-1,6
 125 46 125 46 131 46 c 0,7,8
 148 47 148 47 182 94.5 c 128,-1,9
 216 142 216 142 230.5 171 c 128,-1,10
 245 200 245 200 251.5 200 c 128,-1,11
 258 200 258 200 258 188 c 0,12,13
 258 163 258 163 203.5 79 c 128,-1,14
 149 -5 149 -5 118 -5 c 0,15,16
 79 -5 79 -5 59 11 c 1,17,18
 52 18 52 18 52 68 c 128,-1,19
 52 118 52 118 78 238 c 1,20,21
 54 238 54 238 48 241 c 1,22,23
 9 138 9 138 -1.5 138 c 128,-1,24
 -12 138 -12 138 -12 151 c 0,25,26
 -12 155.2 -12 155.2 5 192.6 c 128,-1,27
 22 230 22 230 26 248 c 1,28,29
 7 256 7 256 -5.5 275 c 128,-1,30
 -18 294 -18 294 -18 316.5 c 128,-1,31
 -18 339 -18 339 -8.5 357 c 128,-1,32
 1 375 1 375 19.5 375 c 128,-1,33
 38 375 38 375 54 354 c 128,-1,34
 70 333 70 333 70 316 c 128,-1,35
 70 299 70 299 58 268 c 1,36,37
 62 264 62 264 69 264 c 2,0,-1
EndSplineSet
EndChar

StartChar: l
Encoding: 108 108 22
Width: 192
Flags: HMW
HStem: -5 21G<50.5 86.5> 566 34<106.5 122>
VStem: -6 75<92 122.5 76.5 156.5> 126 25<500 538.5>
LayerCount: 2
Fore
SplineSet
67 -5 m 0,0,1
 45 -5 45 -5 26.5 0.5 c 128,-1,2
 8 6 8 6 4 11 c 0,3,4
 -6 23 -6 23 -6 135.5 c 0,5,6
 -6 248 -6 248 19 441 c 0,7,8
 40 600 40 600 117 600 c 0,9,10
 135 600 135 600 143 580.5 c 128,-1,11
 151 561 151 561 151 543 c 0,12,13
 151 413 151 413 72 252 c 1,14,15
 69 170 69 170 69 108 c 0,16,17
 69 46 69 46 80 46 c 0,18,19
 97 47 97 47 127 88.5 c 128,-1,20
 157 130 157 130 186.5 195 c 0,21,22
 216 260 216 260 222.5 260 c 0,23,24
 229 260 229 260 229 252 c 0,25,26
 229 224 229 224 200 163 c 0,27,28
 121 -5 121 -5 67 -5 c 0,0,1
126 534 m 0,29,30
 126 566 126 566 118 566 c 0,31,32
 88 566 88 566 74 317 c 1,33,34
 126 454 126 454 126 534 c 0,29,30
EndSplineSet
EndChar

StartChar: j
Encoding: 106 106 23
Width: 161
Flags: HMW
HStem: -320 36<-90 -55.5 -90 -36.5> 426 107<38 90.5>
VStem: -183 62<-228 -177.5 -228 -176> -12 66 27 80<483.5 502.5>
LayerCount: 2
Fore
SplineSet
-4 38 m 1,0,1
 9 300 9 300 10.5 310 c 128,-1,2
 12 320 12 320 39 342.5 c 128,-1,3
 66 365 66 365 80.5 365 c 128,-1,4
 95 365 95 365 95 327 c 0,5,6
 95 317 95 317 89.5 288 c 128,-1,7
 84 259 84 259 77 246 c 1,8,9
 73 221 73 221 66 122 c 1,10,11
 164 246 164 246 170.5 253 c 128,-1,12
 177 260 177 260 182 260 c 0,13,14
 192 260 192 260 192 250 c 0,15,16
 192 244 192 244 188 237 c 0,17,18
 156 190 156 190 62 72 c 1,19,20
 56 -47 56 -47 54 -90 c 0,21,22
 49 -217 49 -217 18.5 -268.5 c 128,-1,23
 -12 -320 -12 -320 -90 -320 c 0,24,25
 -124 -320 -124 -320 -153.5 -299.5 c 128,-1,26
 -183 -279 -183 -279 -183 -235 c 128,-1,27
 -183 -191 -183 -191 -162 -151 c 128,-1,28
 -141 -111 -141 -111 -117 -83.5 c 128,-1,29
 -93 -56 -93 -56 -55 -17 c 128,-1,30
 -17 22 -17 22 -4 38 c 1,0,1
-6 -9 m 1,31,32
 -121 -132 -121 -132 -121 -206 c 0,33,34
 -121 -240 -121 -240 -109 -262 c 128,-1,35
 -97 -284 -97 -284 -75.5 -284 c 128,-1,36
 -54 -284 -54 -284 -42.5 -266 c 0,37,38
 -18.5994518403 -228.590446359 -18.5994518403 -228.590446359 -6 -9 c 1,31,32
27 489 m 0,39,40
 27 507 27 507 46 520 c 128,-1,41
 65 533 65 533 80 533 c 0,42,43
 107 533 107 533 107 502 c 128,-1,44
 107 471 107 471 91 448.5 c 128,-1,45
 75 426 75 426 46 426 c 0,46,47
 27 426 27 426 27 489 c 0,39,40
EndSplineSet
EndChar

StartChar: d
Encoding: 100 100 24
Width: 386
Flags: HMW
HStem: -5 53<99 117.5> 319 36<128.5 156> 580 20G<308.5 325.5>
VStem: -15 78<137.5 200> 209 68<41 108.5>
LayerCount: 2
Fore
SplineSet
270 -5 m 0,0,1
 236 -5 236 -5 217 10 c 1,2,3
 209 18 209 18 209 52 c 128,-1,4
 209 86 209 86 212 141 c 1,5,6
 185 69 185 69 157 32 c 128,-1,7
 129 -5 129 -5 86.5 -5 c 128,-1,8
 44 -5 44 -5 14.5 32 c 128,-1,9
 -15 69 -15 69 -15 150 c 128,-1,10
 -15 231 -15 231 30.5 293 c 128,-1,11
 76 355 76 355 150 355 c 0,12,13
 186 355 186 355 225 327 c 1,14,15
 241 522 241 522 254 547 c 0,16,17
 260 558 260 558 282.5 579 c 128,-1,18
 305 600 305 600 320 600 c 128,-1,19
 335 600 335 600 335 553 c 0,20,21
 335 498.375 335 498.375 324.5 457.6875 c 0,22,23
 298 355 298 355 291 327 c 1,24,25
 277 219 277 219 277 73 c 0,26,27
 277 46 277 46 283 46 c 0,28,29
 301 47 301 47 331 88 c 128,-1,30
 361 129 361 129 390.5 194.5 c 128,-1,31
 420 260 420 260 426.5 260 c 128,-1,32
 433 260 433 260 433 252 c 0,33,34
 433 224 433 224 404 163 c 0,35,36
 325 -5 325 -5 270 -5 c 0,0,1
144 319 m 0,37,38
 117 319 117 319 90 276 c 128,-1,39
 63 233 63 233 63 176.5 c 128,-1,40
 63 120 63 120 77.5 84 c 128,-1,41
 92 48 92 48 114 48 c 0,42,43
 159 48 159 48 217 228 c 1,44,45
 217 235 217 235 222 293 c 1,46,47
 193 319 193 319 144 319 c 0,37,38
EndSplineSet
EndChar

StartChar: t
Encoding: 116 116 25
Width: 220
Flags: HMW
HStem: -5 21G<74.5 110.5> 303 32 303 59 303 250
VStem: -21 110 14 75<67 86> 14 112
LayerCount: 2
Fore
SplineSet
91 -5 m 0,0,1
 69 -5 69 -5 48 0.5 c 128,-1,2
 27 6 27 6 20.5 12 c 0,3,4
 14 18 14 18 14 50 c 0,5,6
 14 153 14 153 33 305 c 1,7,8
 -18 313 -18 313 -21 346 c 1,9,10
 -21 362 -21 362 1 362 c 128,-1,11
 23 362 23 362 39 352 c 1,12,13
 45 393 45 393 62 500 c 0,14,15
 65 518 65 518 81.5 535.5 c 128,-1,16
 98 553 98 553 113 553 c 0,17,18
 126 553 126 553 126 512 c 0,19,20
 126 500 126 500 109 338 c 1,21,22
 135 342 135 342 167 357 c 128,-1,23
 199 372 199 372 205 372 c 0,24,25
 223 372 223 372 223 361 c 1,26,27
 224 351 224 351 186.5 333.5 c 128,-1,28
 149 316 149 316 105 308 c 1,29,30
 89 150 89 150 89 73 c 0,31,32
 89 46 89 46 104 46 c 0,33,34
 121 47 121 47 151 88.5 c 128,-1,35
 181 130 181 130 210.5 195 c 0,36,37
 240 260 240 260 246.5 260 c 0,38,39
 253 260 253 260 253 252 c 0,40,41
 253 224 253 224 224 163 c 0,42,43
 145 -5 145 -5 91 -5 c 0,0,1
EndSplineSet
EndChar

StartChar: k
Encoding: 107 107 26
Width: 332
Flags: HMW
HStem: -68 36 -5 21G<41.5 61.5> 292 63<184.5 195.5> 580 20G<86.5 103.5>
VStem: -10 86 7 69 222 59<259 266>
LayerCount: 2
Fore
SplineSet
312 -35 m 1,0,-1
 339 -32 l 2,1,2
 347 -32 347 -32 347 -40 c 0,3,4
 347 -54 347 -54 328 -61 c 128,-1,5
 309 -68 309 -68 285 -68 c 0,6,7
 240 -68 240 -68 209.5 -32 c 128,-1,8
 179 4 179 4 125 101 c 1,9,10
 112 122 112 122 112 133 c 0,11,12
 112 148 112 148 154 168 c 1,13,14
 222 203 222 203 222 256 c 0,15,16
 222 271 222 271 211.5 281.5 c 128,-1,17
 201 292 201 292 184 292 c 0,18,19
 160 292 160 292 127 235.5 c 128,-1,20
 94 179 94 179 82.5 129.5 c 128,-1,21
 71 80 71 80 71 23 c 0,22,23
 71 -5 71 -5 55 -5 c 0,24,25
 32 -5 32 -5 11 1.5 c 128,-1,26
 -10 8 -10 8 -10 18.5 c 128,-1,27
 -10 29 -10 29 -2 113.5 c 128,-1,28
 6 198 6 198 7 235 c 0,29,30
 11 439 11 439 31 547 c 1,31,32
 34 556 34 556 58.5 578 c 128,-1,33
 83 600 83 600 98 600 c 128,-1,34
 113 600 113 600 112.5 562.5 c 128,-1,35
 112 525 112 525 96 402 c 128,-1,36
 80 279 80 279 76 177 c 1,37,38
 94 241 94 241 133.5 298 c 128,-1,39
 173 355 173 355 213 355 c 0,40,41
 281 355 281 355 281 289 c 0,42,43
 281 245 281 245 255 209.5 c 128,-1,44
 229 174 229 174 185 152 c 0,45,46
 176 148 176 148 176 143 c 128,-1,47
 176 138 176 138 179 133 c 0,48,49
 242 22 242 22 286 -23 c 0,50,51
 298 -35 298 -35 312 -35 c 1,0,-1
EndSplineSet
EndChar

StartChar: f
Encoding: 102 102 27
Width: 216
Flags: HMW
HStem: -320 39<67 93.5 67 105> 164 42<65 99.5> 304 33 578 42<137 150.5>
VStem: -29 31<270 276.5> -17 72<-281 -56.5> 140 26<-27 9.5> 156 22<504.5 547.5>
LayerCount: 2
Fore
SplineSet
146 214 m 1,0,1
 193 228 193 228 227 246 c 128,-1,2
 261 264 261 264 263 264 c 0,3,4
 269 264 269 264 269 254 c 128,-1,5
 269 244 269 244 239.5 222 c 128,-1,6
 210 200 210 200 153 180 c 1,7,8
 166 108 166 108 166 47.5 c 128,-1,9
 166 -13 166 -13 164 -51.5 c 128,-1,10
 162 -90 162 -90 155 -140.5 c 128,-1,11
 148 -191 148 -191 137 -229 c 128,-1,12
 126 -267 126 -267 105 -293.5 c 128,-1,13
 84 -320 84 -320 58.5 -320 c 128,-1,14
 33 -320 33 -320 8 -303.5 c 128,-1,15
 -17 -287 -17 -287 -17 -266 c 0,16,17
 -17 -40 -17 -40 4 185 c 1,18,19
 -29 210 -29 210 -29 248 c 128,-1,20
 -29 286 -29 286 -14.5 307 c 128,-1,21
 0 328 0 328 23 334 c 1,22,23
 38 429 38 429 50 485 c 128,-1,24
 62 541 62 541 90 580.5 c 128,-1,25
 118 620 118 620 146 620 c 0,26,27
 178 620 178 620 178 549 c 0,28,29
 178 444 178 444 102 308 c 1,30,31
 130 275 130 275 146 214 c 1,0,1
65 164 m 1,32,33
 55 26 55 26 55 -127.5 c 128,-1,34
 55 -281 55 -281 72 -281 c 0,35,36
 102 -281 102 -281 121 -193.5 c 128,-1,37
 140 -106 140 -106 140 -7.5 c 128,-1,38
 140 91 140 91 123 171 c 1,39,40
 92 164 92 164 65 164 c 1,32,33
81 326 m 1,41,-1
 86 322 l 1,42,43
 156 460 156 460 156 538 c 0,44,45
 156 578 156 578 147 578 c 0,46,47
 132 578 132 578 113.5 509 c 128,-1,48
 95 440 95 440 81 326 c 1,41,-1
81 274 m 1,49,-1
 73 261 l 1,50,-1
 68 210 l 1,51,52
 81 206 81 206 94.5 206 c 128,-1,53
 108 206 108 206 114 207 c 1,54,55
 102 249 102 249 81 274 c 1,49,-1
19 303 m 1,56,57
 2 299 2 299 2 279 c 128,-1,58
 2 259 2 259 11 247 c 1,59,-1
 19 303 l 1,56,57
EndSplineSet
EndChar

StartChar: w
Encoding: 119 119 28
Width: 457
Flags: HMW
HStem: -5 49<80.5 83 244 265.5> 168 39<364 417 364 417> 168 137 327 38<318 331.5>
VStem: -15 69<132.5 173.5> 139 60 139 88 260 53<288 296.5> 345 30<257.5 263>
LayerCount: 2
Fore
SplineSet
95 44 m 128,-1,1
 115 44 115 44 144 92 c 1,2,3
 139 117 139 117 139 145.5 c 128,-1,4
 139 174 139 174 145 206.5 c 128,-1,5
 151 239 151 239 169 272 c 128,-1,6
 187 305 187 305 212 305 c 0,7,8
 220 305 220 305 223.5 300 c 128,-1,9
 227 295 227 295 227 276 c 0,10,11
 227 225 227 225 200 149 c 1,12,13
 204 105 204 105 220.5 74.5 c 128,-1,14
 237 44 237 44 257 44 c 0,15,16
 286 44 286 44 306 81.5 c 128,-1,17
 326 119 326 119 337 173 c 1,18,19
 300 183 300 183 280 211 c 128,-1,20
 260 239 260 239 260 275.5 c 128,-1,21
 260 312 260 312 278.5 338.5 c 128,-1,22
 297 365 297 365 334 365 c 0,23,24
 375 365 375 365 375 266 c 0,25,26
 375 240.5 375 240.5 372 212 c 1,27,28
 387 207 387 207 401 207 c 0,29,30
 440 207 440 207 474 243 c 0,31,32
 493 264 493 264 501 264 c 128,-1,33
 509 264 509 264 509 253 c 128,-1,34
 509 242 509 242 495 227 c 0,35,36
 443 168 443 168 375 168 c 2,37,-1
 364 168 l 1,38,39
 348 94 348 94 314 44.5 c 128,-1,40
 280 -5 280 -5 228 -5 c 128,-1,41
 176 -5 176 -5 153 56 c 1,42,43
 112 -5 112 -5 68 -5 c 0,44,45
 -15 -5 -15 -5 -15 155 c 0,46,47
 -15 266 -15 266 7 306 c 0,48,49
 11 313 11 313 37 329 c 128,-1,50
 63 345 63 345 73 345 c 0,51,52
 88 345 88 345 88 327 c 0,53,54
 86 280 86 280 60 216 c 1,55,56
 54 204 54 204 54 158.5 c 128,-1,57
 54 113 54 113 64.5 78.5 c 128,-1,0
 75 44 75 44 95 44 c 128,-1,1
322 327 m 0,58,59
 313 327 313 327 313 293 c 128,-1,60
 313 259 313 259 344 230 c 1,61,62
 345 235 345 235 345 245 c 0,63,64
 345 327 345 327 322 327 c 0,58,59
EndSplineSet
EndChar

StartChar: x
Encoding: 120 120 29
Width: 319
Flags: HMW
HStem: -10 56 -5 21G<204.5 241> 350 20G<38 65>
LayerCount: 2
Fore
SplineSet
221 -5 m 0,0,1
 199 -5 199 -5 182 0.5 c 128,-1,2
 165 6 165 6 162 11 c 0,3,4
 147 34 147 34 112 113 c 1,5,6
 36 -10 36 -10 5 -10 c 0,7,8
 -32 -10 -32 -10 -36.5 2 c 0,9,10
 -38 6 -38 6 -38 12.5 c 128,-1,11
 -38 19 -38 19 -21.5 32.5 c 0,12,13
 47.4037267081 88.8757763975 47.4037267081 88.8757763975 94 149 c 0,14,15
 94 150 94 150 93.5 150.5 c 0,16,17
 88.9014084507 164.295774648 88.9014084507 164.295774648 58.4507042254 208.647887324 c 128,-1,18
 28 253 28 253 17 269.5 c 128,-1,19
 6 286 6 286 6 293 c 0,20,21
 6 317 6 317 19.5 343.5 c 128,-1,22
 33 370 33 370 51.5 370 c 128,-1,23
 70 370 70 370 78.5 352 c 128,-1,24
 87 334 87 334 87 315 c 1,25,26
 99 295 99 295 139 212 c 1,27,28
 152.5 234.5 152.5 234.5 158.25 242.75 c 128,-1,29
 164 251 164 251 181.5 285 c 128,-1,30
 199 319 199 319 210.5 337 c 128,-1,31
 222 355 222 355 230 355 c 0,32,33
 248 355 248 355 253.5 349 c 128,-1,34
 259 343 259 343 259 331 c 128,-1,35
 259 319 259 319 249.5 308 c 128,-1,36
 240 297 240 297 228 287.5 c 128,-1,37
 216 278 216 278 206 264 c 128,-1,38
 196 250 196 250 154 182 c 1,39,40
 220 46 220 46 234 46 c 0,41,42
 252 46 252 46 282 87.5 c 128,-1,43
 312 129 312 129 341.5 194.5 c 128,-1,44
 371 260 371 260 377.5 260 c 128,-1,45
 384 260 384 260 384 252 c 0,46,47
 384 224 384 224 355 163 c 0,48,49
 276 -5 276 -5 221 -5 c 0,0,1
EndSplineSet
EndChar

StartChar: f_f
Encoding: 65538 -1 30
Width: 424
Flags: HMW
HStem: -320 39<83 109.5 83 121> -248 39<281.5 303 281.5 303> 164 42 164 159 164 201 304 33<4.5 36> 565 55<363.5 380> 578 42<152.5 166.5>
VStem: -41 31<265 281.5> -4 75<-281 -56> 156 26<-27 19> 172 22<503.5 547.5> 198 72<-201.5 5> 350 28<-6.5 82> 389 24<492.5 526>
LayerCount: 2
Fore
SplineSet
229 243 m 1,0,1
 231 261 231 261 237 297 c 1,2,3
 190 299 190 299 179 302 c 1,4,5
 171 303 171 303 171 315.5 c 128,-1,6
 171 328 171 328 195 346.5 c 128,-1,7
 219 365 219 365 241 365 c 0,8,9
 246 365 246 365 249 364 c 1,10,11
 300 620 300 620 376 620 c 0,12,13
 391 620 391 620 402 595 c 128,-1,14
 413 570 413 570 413 532 c 0,15,16
 413 415 413 415 354 323 c 1,17,18
 391 324 391 324 423 328 c 128,-1,19
 455 332 455 332 466 332 c 128,-1,20
 477 332 477 332 480 329 c 128,-1,21
 483 326 483 326 483 317.5 c 128,-1,22
 483 309 483 309 475 300 c 128,-1,23
 467 291 467 291 460.5 291 c 128,-1,24
 454 291 454 291 440 292 c 0,25,26
 398 295 398 295 339 295 c 1,27,28
 378 220 378 220 378 83.5 c 128,-1,29
 378 -53 378 -53 347.5 -150.5 c 128,-1,30
 317 -248 317 -248 270 -248 c 0,31,32
 247 -248 247 -248 222.5 -228 c 128,-1,33
 198 -208 198 -208 198 -185 c 0,34,35
 198 -7 198 -7 224 203 c 1,36,37
 195 188 195 188 166 179 c 1,38,39
 182 109 182 109 182 48 c 128,-1,40
 182 -13 182 -13 180 -51.5 c 128,-1,41
 178 -90 178 -90 171 -140.5 c 128,-1,42
 164 -191 164 -191 153 -229 c 128,-1,43
 142 -267 142 -267 121 -293.5 c 128,-1,44
 100 -320 100 -320 74.5 -320 c 128,-1,45
 49 -320 49 -320 22.5 -303.5 c 128,-1,46
 -4 -287 -4 -287 -4 -266 c 0,47,48
 -4 -37 -4 -37 16 172 c 1,49,50
 -41 195 -41 195 -41 254 c 0,51,52
 -41 293 -41 293 -20 315 c 128,-1,53
 1 337 1 337 30 337 c 2,54,-1
 36 337 l 1,55,56
 50 426 50 426 62.5 483 c 128,-1,57
 75 540 75 540 104.5 580 c 128,-1,58
 134 620 134 620 162 620 c 0,59,60
 194 620 194 620 194 549 c 0,61,62
 194 439 194 439 112 298 c 1,63,64
 137 271 137 271 157 214 c 1,65,66
 191 223 191 223 229 243 c 1,0,1
81 164 m 1,67,68
 71 27 71 27 71 -127 c 128,-1,69
 71 -281 71 -281 88 -281 c 0,70,71
 118 -281 118 -281 137 -193.5 c 128,-1,72
 156 -106 156 -106 156 -5 c 128,-1,73
 156 96 156 96 135 171 c 1,74,75
 102 165 102 165 81 164 c 1,67,68
270 -25 m 0,76,77
 270 -209 270 -209 287 -209 c 0,78,79
 311 -209 311 -209 330.5 -131 c 128,-1,80
 350 -53 350 -53 350 59 c 128,-1,81
 350 171 350 171 306 263 c 1,82,83
 304 261 304 261 302 258.5 c 128,-1,84
 300 256 300 256 297 253.5 c 128,-1,85
 294 251 294 251 292 249 c 1,86,87
 270 81 270 81 270 -25 c 0,76,77
389 512 m 0,88,89
 389 533 389 533 385.5 549 c 128,-1,90
 382 565 382 565 377 565 c 0,91,92
 340 565 340 565 305 341 c 1,93,94
 313 334 313 334 322 322 c 1,95,96
 389 408 389 408 389 512 c 0,88,89
147.5 424.5 m 128,-1,98
 172 490 172 490 172 534 c 128,-1,99
 172 578 172 578 163 578 c 0,100,101
 147 578 147 578 128.5 506 c 128,-1,102
 110 434 110 434 95 314 c 1,103,97
 123 359 123 359 147.5 424.5 c 128,-1,98
13 304 m 0,104,105
 -10 304 -10 304 -10 275.5 c 128,-1,106
 -10 247 -10 247 22 225 c 1,107,-1
 31 302 l 1,108,109
 19 304 19 304 13 304 c 0,104,105
85 206 m 1,110,111
 99 206 99 206 123 208 c 1,112,113
 108 246 108 246 89 268 c 1,114,115
 85 218 85 218 85 206 c 1,110,111
EndSplineSet
Ligature2: "'liga' Standard Ligatures in Latin lookup 0 subtable" f f
EndChar

StartChar: A
Encoding: 65 65 31
Width: 501
Flags: HMW
HStem: -5 51<391 406> 185 47 489 91<282.5 343>
VStem: 307 69 307 216
LayerCount: 2
Fore
SplineSet
328 580 m 0,0,1
 348 580 348 580 358.5 497 c 128,-1,2
 369 414 369 414 379 237 c 1,3,4
 395 237 395 237 395 227 c 128,-1,5
 395 217 395 217 380 210 c 1,6,7
 386 46 386 46 396 46 c 0,8,9
 413 46 413 46 446.5 94 c 128,-1,10
 480 142 480 142 495 171 c 128,-1,11
 510 200 510 200 516.5 200 c 128,-1,12
 523 200 523 200 523 188 c 0,13,14
 523 163 523 163 468.5 79 c 128,-1,15
 414 -5 414 -5 383 -5 c 0,16,17
 337 -5 337 -5 317 11 c 1,18,19
 308 20 308 20 308 201 c 1,20,-1
 144 189 l 1,21,22
 125 137 125 137 110 85 c 128,-1,23
 95 33 95 33 90 21 c 0,24,25
 79 -5 79 -5 37 -5 c 0,26,27
 9 -5 9 -5 9 19 c 128,-1,28
 9 43 9 43 47 89 c 0,29,30
 54 98 54 98 93 186 c 1,31,32
 79 185 79 185 66 185 c 0,33,34
 31 185 31 185 31 215 c 0,35,36
 31 242 31 242 59 242 c 0,37,38
 61 242 61 242 116 237 c 1,39,40
 161 344 161 344 230 462 c 128,-1,41
 299 580 299 580 328 580 c 0,0,1
159 232 m 1,42,43
 276 232 276 232 308 233 c 1,44,45
 307 249 307 249 306 289 c 128,-1,46
 305 329 305 329 304 358.5 c 128,-1,47
 303 388 303 388 301.5 420.5 c 0,48,49
 298.338461538 489 298.338461538 489 290 489 c 0,50,51
 279 489 279 489 231 396 c 128,-1,52
 183 303 183 303 159 232 c 1,42,43
EndSplineSet
EndChar

StartChar: B
Encoding: 66 66 32
Width: 481
Flags: HMW
HStem: -10 36<209 250.5> -10 64 226 30<268 280> 290 21<247.5 265> 403 164 533 34<219 238.5> 533 87<151 238.5>
VStem: -25 192 100 67 100 79 192 239<99.5 282.5> 367 64<118.5 168> 383 48 383 73<387.5 435>
LayerCount: 2
Fore
SplineSet
230 26 m 0,0,1
 284 26 284 26 325.5 64 c 128,-1,2
 367 102 367 102 367 151.5 c 128,-1,3
 367 201 367 201 336 243 c 1,4,5
 302 226 302 226 269 226 c 0,6,7
 192 226 192 226 192 274 c 0,8,9
 192 288 192 288 211 299.5 c 128,-1,10
 230 311 230 311 265.5 311 c 128,-1,11
 301 311 301 311 343 290 c 1,12,13
 383 333 383 333 383 387 c 0,14,15
 383 454 383 454 324.5 493.5 c 128,-1,16
 266 533 266 533 199 533 c 0,17,18
 185 533 185 533 178 532 c 1,19,20
 177 503 177 503 173 439 c 0,21,22
 167 343 167 343 167 146 c 0,23,24
 167 70 167 70 156 70 c 0,25,26
 113 70 113 70 101 82 c 128,-1,27
 89 94 89 94 89 151 c 0,28,29
 89 165 89 165 94.5 266 c 128,-1,30
 100 367 100 367 100 429 c 128,-1,31
 100 491 100 491 104 520 c 1,32,33
 47 501 47 501 47 462 c 0,34,35
 47 403 47 403 -3 403 c 0,36,37
 -13 403 -13 403 -19 412.5 c 128,-1,38
 -25 422 -25 422 -25 432 c 0,39,40
 -25 519 -25 519 110 552 c 1,41,42
 127 620 127 620 164 620 c 0,43,44
 179 620 179 620 179 564 c 1,45,46
 204 567 204 567 243 567 c 128,-1,47
 282 567 282 567 332 552.5 c 128,-1,48
 382 538 382 538 419 501.5 c 128,-1,49
 456 465 456 465 456 420.5 c 0,50,51
 456 336.5 456 336.5 375 269 c 1,52,53
 431 225 431 225 431 164 c 128,-1,54
 431 103 431 103 392.5 63 c 0,55,56
 322.2375 -10 322.2375 -10 193.61875 -10 c 128,-1,57
 65 -10 65 -10 65 33 c 0,58,59
 65 54 65 54 106 54 c 0,60,61
 120 54 120 54 164 40 c 128,-1,62
 208 26 208 26 230 26 c 0,0,1
254 290 m 0,63,64
 245 290 245 290 238.5 286 c 128,-1,65
 232 282 232 282 232 279 c 0,66,67
 232 256 232 256 281 256 c 0,68,69
 298 256 298 256 315 265 c 1,70,71
 285 290 285 290 254 290 c 0,63,64
EndSplineSet
EndChar

StartChar: C
Encoding: 67 67 33
Width: 386
Flags: HMW
HStem: -10 55<156.5 246> 369 211<303.5 311 200 334> 543 37<200 282>
VStem: -26 77<190 302.5 190 313.5> 285 101<378.5 510.5> 324 62<458 485>
LayerCount: 2
Fore
SplineSet
324 472 m 0,0,1
 324 543 324 543 248.5 543 c 128,-1,2
 173 543 173 543 112 442 c 128,-1,3
 51 341 51 341 51 234 c 0,4,5
 51 160 51 160 93 102.5 c 128,-1,6
 135 45 135 45 211 45 c 0,7,8
 268 45 268 45 318.5 86 c 128,-1,9
 369 127 369 127 383.5 159 c 128,-1,10
 398 191 398 191 412 191 c 0,11,12
 419 191 419 191 419 178 c 128,-1,13
 419 165 419 165 409.5 145.5 c 128,-1,14
 400 126 400 126 378.5 99.5 c 128,-1,15
 357 73 357 73 327.5 48.5 c 128,-1,16
 298 24 298 24 251.5 7 c 128,-1,17
 205 -10 205 -10 157.5 -10 c 128,-1,18
 110 -10 110 -10 74 10 c 128,-1,19
 38 30 38 30 17 61 c 0,20,21
 -26 124.476190476 -26 124.476190476 -26 193 c 0,22,23
 -26 367 -26 367 64.5 473.5 c 128,-1,24
 155 580 155 580 279 580 c 0,25,26
 326 580 326 580 356 552.5 c 128,-1,27
 386 525 386 525 386 483 c 128,-1,28
 386 441 386 441 365 405 c 128,-1,29
 344 369 344 369 314.5 369 c 128,-1,30
 285 369 285 369 285 385 c 0,31,32
 285 403 285 403 304.5 426 c 128,-1,33
 324 449 324 449 324 472 c 0,0,1
EndSplineSet
EndChar

StartChar: D
Encoding: 68 68 34
Width: 654
Flags: HMW
HStem: -34 62<234 362.5> -5 33<256 362.5> -5 84 521 39<315.5 367.5> 521 114<240.5 367.5>
VStem: 21 57<350 389.5> 88 177 177 88 535 76<202.5 339>
LayerCount: 2
Fore
SplineSet
78 359 m 1,0,-1
 84 295 l 2,1,2
 84 285 84 285 73.5 279 c 128,-1,3
 63 273 63 273 56 273 c 0,4,5
 42 273 42 273 31.5 295.5 c 128,-1,6
 21 318 21 318 21 337 c 0,7,8
 21 411 21 411 72.5 462.5 c 128,-1,9
 124 514 124 514 203 540 c 1,10,11
 208 635 208 635 263 635 c 0,12,13
 276 635 276 635 276 556 c 1,14,15
 308 560 308 560 323 560 c 0,16,17
 456 560 456 560 533.5 485.5 c 128,-1,18
 611 411 611 411 611 298 c 0,19,20
 611 220 611 220 583 160 c 128,-1,21
 555 100 555 100 507 65 c 0,22,23
 411 -5 411 -5 277 -5 c 2,24,-1
 256 -5 l 1,25,26
 253 -34 253 -34 250 -34 c 0,27,28
 201 -34 201 -34 185 -21 c 1,29,30
 178 -14 178 -14 177 3 c 1,31,32
 143 10 143 10 113 27 c 1,33,34
 88 40 88 40 88 54 c 128,-1,35
 88 68 88 68 95 73.5 c 128,-1,36
 102 79 102 79 110.5 79 c 128,-1,37
 119 79 119 79 177 55 c 1,38,39
 186 317 186 317 200 505 c 1,40,41
 145 486 145 486 111.5 448 c 128,-1,42
 78 410 78 410 78 359 c 1,0,-1
296 521 m 0,43,44
 282 521 282 521 275 520 c 1,45,46
 271.285714286 345.428571429 271.285714286 345.428571429 265 226 c 1,47,48
 260 71 260 71 258 31 c 1,49,50
 277.5 28 277.5 28 300 28 c 0,51,52
 395 28 395 28 465 98.5 c 128,-1,53
 535 169 535 169 535 272 c 128,-1,54
 535 375 535 375 468 448 c 128,-1,55
 401 521 401 521 296 521 c 0,43,44
EndSplineSet
EndChar

StartChar: E
Encoding: 69 69 35
Width: 442
Flags: HMW
HStem: -15 41<196.5 256.5> 280 23<254.5 274> 344 29<241 247.5> 454 146<223.5 376.5> 570 30<243.5 295>
VStem: 22 80<147 189.5> 77 25 77 72<413.5 466 413.5 470> 336 73<503 522>
LayerCount: 2
Fore
SplineSet
334 482 m 1,0,-1
 336 509 l 1,1,2
 336 531 336 531 319.5 550.5 c 128,-1,3
 303 570 303 570 275 570 c 0,4,5
 227 570 227 570 188 527 c 128,-1,6
 149 484 149 484 149 435.5 c 128,-1,7
 149 387 149 387 174 354 c 1,8,9
 217 373 217 373 254 373 c 128,-1,10
 291 373 291 373 313.5 360.5 c 128,-1,11
 336 348 336 348 336 325 c 0,12,13
 336 280 336 280 262 280 c 0,14,15
 203 280 203 280 155 305 c 1,16,17
 131 280 131 280 116.5 246 c 128,-1,18
 102 212 102 212 102 183 c 0,19,20
 102 124 102 124 140 75 c 128,-1,21
 178 26 178 26 241 26 c 0,22,23
 330.379310345 26 330.379310345 26 416 121.5 c 0,24,25
 440.655172414 149 440.655172414 149 446.827586207 149 c 128,-1,26
 453 149 453 149 453 141 c 128,-1,27
 453 133 453 133 448 125 c 0,28,29
 396 49 396 49 339.5 17 c 128,-1,30
 283 -15 283 -15 200.5 -15 c 128,-1,31
 118 -15 118 -15 70 34 c 128,-1,32
 22 83 22 83 22 156 c 0,33,34
 22 204 22 204 50.5 248.5 c 128,-1,35
 79 293 79 293 124 325 c 1,36,37
 77 364 77 364 77 419 c 0,38,39
 77 495 77 495 136 547.5 c 128,-1,40
 195 600 195 600 279 600 c 0,41,42
 334 600 334 600 371.5 571.5 c 128,-1,43
 409 543 409 543 409 504 c 0,44,45
 409 482 409 482 396 468 c 128,-1,46
 383 454 383 454 363 454 c 0,47,48
 334 454 334 454 334 482 c 1,0,-1
271 335.5 m 128,-1,50
 255 344 255 344 234 344 c 128,-1,51
 213 344 213 344 193 334 c 1,52,53
 227 303 227 303 268 303 c 0,54,55
 277 303 277 303 282 307.5 c 128,-1,56
 287 312 287 312 287 315 c 0,57,49
 287 327 287 327 271 335.5 c 128,-1,50
EndSplineSet
EndChar

StartChar: F
Encoding: 70 70 36
Width: 432
Flags: HMW
HStem: -34 21G<158.5 182> 194 49 315 189<50 189> 423 65<371.5 398 342 432> 465 23 465 115<140.5 252.5>
VStem: 31 71<353.5 362 342.5 398.5> 176 50 176 62 176 84 176 205
LayerCount: 2
Fore
SplineSet
92 401 m 1,0,-1
 102 354 l 1,1,2
 102 337 102 337 90 326 c 128,-1,3
 78 315 78 315 62 315 c 128,-1,4
 46 315 46 315 38.5 330 c 128,-1,5
 31 345 31 345 31 363 c 0,6,7
 31 417 31 417 77.5 460.5 c 128,-1,8
 124 504 124 504 183 504 c 2,9,-1
 189 504 l 1,10,11
 209 580 209 580 249 580 c 0,12,13
 260 580 260 580 260 554 c 128,-1,14
 260 528 260 528 258 500 c 1,15,16
 273 498 273 498 293 495 c 0,17,18
 339.666666667 488 339.666666667 488 371.333333333 488 c 128,-1,19
 403 488 403 488 435.5 498.5 c 128,-1,20
 468 509 468 509 479 509 c 0,21,22
 507 509 507 509 507 480.5 c 128,-1,23
 507 452 507 452 477 437.5 c 128,-1,24
 447 423 447 423 406 423 c 0,25,26
 327 423 327 423 251 449 c 1,27,28
 239 380 239 380 236.5 345 c 128,-1,29
 234 310 234 310 233 241 c 1,30,31
 275 243 275 243 349 243 c 0,32,33
 362 243 362 243 371.5 233 c 128,-1,34
 381 223 381 223 381 212 c 128,-1,35
 381 201 381 201 374 194 c 128,-1,36
 367 187 367 187 359 187 c 2,37,-1
 232 194 l 1,38,39
 228 96 228 96 225.5 61 c 128,-1,40
 223 26 223 26 206 -4 c 128,-1,41
 189 -34 189 -34 166 -34 c 0,42,43
 153 -34 153 -34 137.5 -20.5 c 128,-1,44
 122 -7 122 -7 122 5 c 128,-1,45
 122 17 122 17 125.5 23.5 c 128,-1,46
 129 30 129 30 133.5 36.5 c 128,-1,47
 138 43 138 43 140 47 c 0,48,49
 152 73 152 73 162 190 c 1,50,-1
 123 185 l 1,51,52
 115 185 115 185 110 190.5 c 128,-1,53
 105 196 105 196 105 203.5 c 128,-1,54
 105 211 105 211 108 217 c 128,-1,55
 111 223 111 223 120 226.5 c 128,-1,56
 129 230 129 230 133 231 c 0,57,58
 149 235 149 235 165 235 c 1,59,60
 168 273 168 273 173 360 c 128,-1,61
 178 447 178 447 181 464 c 1,62,63
 175 465 175 465 163 465 c 0,64,65
 92 465 92 465 92 401 c 1,0,-1
EndSplineSet
EndChar

StartChar: G
Encoding: 71 71 37
Width: 508
Flags: HMW
HStem: -15 51<163 237.5> 156 48<289.5 379> 257 33<323 350.5> 428 152<197.5 386> 537 43<197.5 265.5>
VStem: -43 81<190 326.5> 224 60<229 236> 379 65
LayerCount: 2
Fore
SplineSet
444 214 m 1,0,1
 475 223 475 223 509 244.5 c 128,-1,2
 543 266 543 266 552 266 c 128,-1,3
 561 266 561 266 561 254.5 c 128,-1,4
 561 243 561 243 547 233 c 0,5,6
 496 197 496 197 441 178 c 1,7,8
 427 91 427 91 349.5 38 c 128,-1,9
 272 -15 272 -15 180 -15 c 0,10,11
 120 -15 120 -15 74.5 6 c 128,-1,12
 29 27 29 27 4.5 60.5 c 0,13,14
 -43 125.448979592 -43 125.448979592 -43 197 c 0,15,16
 -43 290 -43 290 -14.5 365.5 c 128,-1,17
 14 441 14 441 60 486.5 c 128,-1,18
 106 532 106 532 159.5 556 c 128,-1,19
 213 580 213 580 268 580 c 128,-1,20
 323 580 323 580 369 544.5 c 128,-1,21
 415 509 415 509 415 463 c 0,22,23
 415 448 415 448 403.5 438 c 128,-1,24
 392 428 392 428 376 428 c 0,25,26
 353 428 353 428 344 460 c 0,27,28
 322 537 322 537 239 537 c 0,29,30
 169 537 169 537 103.5 450 c 128,-1,31
 38 363 38 363 38 244 c 0,32,33
 38 160 38 160 88.5 98 c 128,-1,34
 139 36 139 36 215 36 c 0,35,36
 276 36 276 36 319 71 c 128,-1,37
 362 106 362 106 374 161 c 1,38,39
 349 156 349 156 313 156 c 128,-1,40
 277 156 277 156 250.5 173 c 128,-1,41
 224 190 224 190 224 218.5 c 128,-1,42
 224 247 224 247 262.5 268.5 c 128,-1,43
 301 290 301 290 360 290 c 0,44,45
 393 290 393 290 418 271.5 c 128,-1,46
 443 253 443 253 444 214 c 1,0,1
339 257 m 0,47,48
 284 257 284 257 284 237 c 0,49,50
 284 225 284 225 308 214.5 c 128,-1,51
 332 204 332 204 357 204 c 2,52,-1
 379 204 l 1,53,54
 377 257 377 257 339 257 c 0,47,48
EndSplineSet
EndChar

StartChar: H
Encoding: 72 72 38
Width: 550
Flags: HMW
HStem: -34 240<209 461> -5 211<136 238> 162 44 162 161 386 214<59 184> 555 45<119.5 142> 605 55<501.5 516.5>
VStem: 32 35<468 506.5> 32 59<407.5 506.5> 88 45<256 262.5> 121 111 159 73<444.5 490.5> 371 78<126 159.5> 371 117<-23 159.5> 528 32<543 574.5>
LayerCount: 2
Fore
SplineSet
79 446.5 m 128,-1,1
 91 427 91 427 91 415.5 c 128,-1,2
 91 404 91 404 85.5 395 c 128,-1,3
 80 386 80 386 71 386 c 0,4,5
 54 386 54 386 43 415 c 128,-1,6
 32 444 32 444 32 476 c 0,7,8
 32 524 32 524 67.5 562 c 128,-1,9
 103 600 103 600 158 600 c 0,10,11
 195 600 195 600 213.5 564.5 c 128,-1,12
 232 529 232 529 232 484 c 128,-1,13
 232 439 232 439 229.5 399.5 c 128,-1,14
 227 360 227 360 225 338.5 c 128,-1,15
 223 317 223 317 217 270.5 c 128,-1,16
 211 224 211 224 209 206 c 1,17,18
 289 206 289 206 377 287 c 1,19,20
 389.307917889 430.592375367 389.307917889 430.592375367 410.653958944 512.296187683 c 128,-1,21
 432 594 432 594 454 627 c 128,-1,22
 476 660 476 660 501.5 660 c 128,-1,23
 527 660 527 660 543.5 637 c 128,-1,24
 560 614 560 614 560 582 c 0,25,26
 560 464 560 464 455 327 c 1,27,28
 449 248 449 248 449 181.5 c 128,-1,29
 449 115 449 115 468.5 52.5 c 128,-1,30
 488 -10 488 -10 488 -17.5 c 128,-1,31
 488 -25 488 -25 477 -29.5 c 128,-1,32
 466 -34 466 -34 453 -34 c 0,33,34
 418 -34 418 -34 396 -16 c 0,35,36
 384.676470588 -6.94117647059 384.676470588 -6.94117647059 377.838235294 45.0294117647 c 128,-1,37
 371 97 371 97 371 142.75 c 128,-1,38
 371 188.5 371 188.5 374 241 c 1,39,40
 285 165 285 165 205 162 c 1,41,42
 204 148 204 148 203 115.5 c 128,-1,43
 202 83 202 83 200 67.5 c 128,-1,44
 198 52 198 52 192.5 32 c 0,45,46
 182.325 -5 182.325 -5 144 -5 c 0,47,48
 121 -5 121 -5 121 34.5 c 128,-1,49
 121 74 121 74 133 172 c 1,50,51
 88 191 88 191 88 239 c 0,52,53
 88 274 88 274 106 298.5 c 128,-1,54
 124 323 124 323 150 323 c 1,55,56
 159 415 159 415 159 465 c 0,57,58
 159 555 159 555 131 555 c 0,59,60
 67 555 67 555 67 490 c 0,61,0
 67 466 67 466 79 446.5 c 128,-1,1
528 565 m 0,62,63
 528 580 528 580 523.5 592.5 c 128,-1,64
 519 605 519 605 512 605 c 0,65,66
 484 605 484 605 461 388 c 1,67,68
 528 490 528 490 528 565 c 0,62,63
147 291 m 1,69,70
 133 281 133 281 133 264 c 128,-1,71
 133 247 133 247 141 236 c 1,72,-1
 147 291 l 1,69,70
EndSplineSet
EndChar

StartChar: I
Encoding: 73 73 39
Width: 429
Flags: HMW
HStem: -20 41<133.5 229.5 133.5 240.5> -20 148<62 240.5> 596 20G<378.5 406>
VStem: 108 67<363 403> 305 70 305 134
LayerCount: 2
Fore
SplineSet
371 502 m 1,0,-1
 375 316 l 1,1,2
 375 -20 375 -20 145 -20 c 0,3,4
 100 -20 100 -20 63.5 1 c 128,-1,5
 27 22 27 22 27 66 c 0,6,7
 27 93 27 93 41 110.5 c 128,-1,8
 55 128 55 128 78.5 128 c 128,-1,9
 102 128 102 128 102 117 c 0,10,11
 102 112 102 112 96 97.5 c 128,-1,12
 90 83 90 83 90 68.5 c 128,-1,13
 90 54 90 54 107 37.5 c 128,-1,14
 124 21 124 21 156 21 c 128,-1,15
 188 21 188 21 211 33.5 c 128,-1,16
 234 46 234 46 249 64.5 c 128,-1,17
 264 83 264 83 274 115 c 128,-1,18
 284 147 284 147 289.5 173 c 128,-1,19
 295 199 295 199 297.5 242 c 0,20,21
 301 302.2 301 302.2 301 376.1 c 128,-1,22
 301 450 301 450 303 490 c 1,23,24
 175 468 175 468 175 380 c 0,25,26
 175 355 175 355 164.5 341 c 128,-1,27
 154 327 154 327 138 327 c 0,28,29
 108 327 108 327 108 361 c 0,30,31
 108 422 108 422 161.5 463 c 128,-1,32
 215 504 215 504 307 524 c 1,33,34
 314 565 314 565 341 590.5 c 128,-1,35
 368 616 368 616 390 616 c 128,-1,36
 412 616 412 616 425.5 603.5 c 128,-1,37
 439 591 439 591 439 570 c 0,38,39
 439 521 439 521 371 502 c 1,0,-1
398 582 m 0,40,41
 376 582 376 582 372 537 c 1,42,43
 408 545 408 545 408 566 c 0,44,45
 408 582 408 582 398 582 c 0,40,41
EndSplineSet
EndChar

StartChar: J
Encoding: 74 74 40
Width: 414
Flags: HMW
HStem: -320 36<122 170.5 122 189.5> 596 20G<347.5 375>
VStem: -1 73<-157 -95> 77 67<363 403> 232 81 273 68 273 135
LayerCount: 2
Fore
SplineSet
77 361 m 0,0,1
 77 422 77 422 130 463 c 128,-1,2
 183 504 183 504 274 524 c 1,3,4
 281 564 281 564 309 590 c 128,-1,5
 337 616 337 616 359 616 c 128,-1,6
 381 616 381 616 394.5 603.5 c 128,-1,7
 408 591 408 591 408 570 c 0,8,9
 408 521 408 521 339 502 c 1,10,11
 334 402 334 402 328 253 c 1,12,13
 383 284 383 284 425 284 c 0,14,15
 440 284 440 284 440 274 c 128,-1,16
 440 264 440 264 425 256 c 1,17,18
 367 232 367 232 326 207 c 1,19,20
 322 94 322 94 313 -78 c 0,21,22
 306 -196 306 -196 261 -258 c 128,-1,23
 216 -320 216 -320 136 -320 c 0,24,25
 73 -320 73 -320 36 -268.5 c 128,-1,26
 -1 -217 -1 -217 -1 -155 c 0,27,28
 -1 40 -1 40 253 207 c 1,29,-1
 271 489 l 1,30,31
 144 467 144 467 144 380 c 0,32,33
 144 355 144 355 133.5 341 c 128,-1,34
 123 327 123 327 107 327 c 0,35,36
 77 327 77 327 77 361 c 0,0,1
150 -284 m 0,37,38
 218.193548387 -284 218.193548387 -284 230 -131.5 c 0,39,40
 236 -54 236 -54 242.5 46 c 128,-1,41
 249 146 249 146 250 156 c 1,42,43
 174 102 174 102 123 30 c 128,-1,44
 72 -42 72 -42 72 -126 c 0,45,46
 72 -183 72 -183 92 -233.5 c 128,-1,47
 112 -284 112 -284 150 -284 c 0,37,38
367 582 m 0,48,49
 346 582 346 582 341 537 c 1,50,51
 377 545 377 545 377 566 c 0,52,53
 377 582 377 582 367 582 c 0,48,49
EndSplineSet
EndChar

StartChar: K
Encoding: 75 75 41
Width: 641
Flags: HMW
HStem: -90 56<595 597.5> -40 41<109.5 190> -40 148<38 190> 163 34 596 20G<358.5 386>
VStem: 3 63<42.5 62 42.5 64.5> 85 67<363 402.5> 282 73 282 137
LayerCount: 2
Fore
SplineSet
616 -34 m 1,0,-1
 656 -30 l 2,1,2
 665 -30 665 -30 665 -38 c 0,3,4
 663 -56 663 -56 636 -73 c 128,-1,5
 609 -90 609 -90 569 -90 c 0,6,7
 528.241758242 -90 528.241758242 -90 481.5 0.5 c 0,8,9
 441.260273973 78.4109589041 441.260273973 78.4109589041 400 185 c 1,10,11
 373 168 373 168 340 163 c 1,12,13
 296 -40 296 -40 124 -40 c 0,14,15
 79 -40 79 -40 41 -19 c 128,-1,16
 3 2 3 2 3 46 c 0,17,18
 3 73 3 73 17 90.5 c 128,-1,19
 31 108 31 108 54.5 108 c 128,-1,20
 78 108 78 108 78 97 c 0,21,22
 78 92 78 92 72 77.5 c 128,-1,23
 66 63 66 63 66 48.5 c 128,-1,24
 66 34 66 34 83 17.5 c 128,-1,25
 100 1 100 1 132 1 c 128,-1,26
 164 1 164 1 187.5 15 c 128,-1,27
 211 29 211 29 225.5 49 c 128,-1,28
 240 69 240 69 250.5 104 c 128,-1,29
 261 139 261 139 266.5 167 c 128,-1,30
 272 195 272 195 274.5 240.5 c 0,31,32
 278 304.2 278 304.2 278 377.1 c 128,-1,33
 278 450 278 450 280 490 c 1,34,35
 152 468 152 468 152 380 c 0,36,37
 152 355 152 355 141.5 341 c 128,-1,38
 131 327 131 327 115 327 c 0,39,40
 85 327 85 327 85 361 c 0,41,42
 85 421 85 421 139 462.5 c 128,-1,43
 193 504 193 504 283 524 c 1,44,45
 290 564 290 564 318.5 590 c 128,-1,46
 347 616 347 616 369.5 616 c 128,-1,47
 392 616 392 616 405.5 603.5 c 128,-1,48
 419 591 419 591 419 570 c 0,49,50
 419 521 419 521 351 502 c 1,51,-1
 355 316 l 1,52,53
 355 251 355 251 347 200 c 1,54,55
 399 216 399 216 447.5 293 c 128,-1,56
 496 370 496 370 532 490 c 0,57,58
 559 580 559 580 623 580 c 0,59,60
 650 580 650 580 650 547 c 0,61,62
 650 514.666666667 650 514.666666667 610 488 c 0,63,64
 595 478 595 478 593 474 c 0,65,66
 512 290 512 290 445 221 c 1,67,68
 507 95 507 95 547 30.5 c 128,-1,69
 587 -34 587 -34 616 -34 c 1,0,-1
378 582 m 0,70,71
 356 582 356 582 352 537 c 1,72,73
 388 545 388 545 388 566 c 0,74,75
 388 582 388 582 378 582 c 0,70,71
EndSplineSet
EndChar

StartChar: L
Encoding: 76 76 42
Width: 482
Flags: HMW
HStem: -27 65 0 38<79 99 79 103> 86 35<60.5 67.5> 325 30<160.5 201> 555 25<357 402.5>
VStem: 425 61<467.5 516.5>
LayerCount: 2
Fore
SplineSet
264.5 520 m 128,-1,1
 317 580 317 580 401.5 580 c 128,-1,2
 486 580 486 580 486 522 c 0,3,4
 486 483 486 483 467.5 450.5 c 128,-1,5
 449 418 449 418 417.5 396.5 c 0,6,7
 356.554347826 354.902173913 356.554347826 354.902173913 275 337 c 1,8,9
 255 165 255 165 216 91 c 1,10,11
 308 60 308 60 340 51.5 c 128,-1,12
 372 43 372 43 407.5 43 c 128,-1,13
 443 43 443 43 456 72 c 128,-1,14
 469 101 469 101 475 101 c 0,15,16
 487 101 487 101 487 86 c 0,17,18
 487 40 487 40 449.5 6.5 c 128,-1,19
 412 -27 412 -27 376 -27 c 0,20,21
 333.529411765 -27 333.529411765 -27 299.764705882 -13 c 128,-1,22
 266 1 266 1 257 5 c 128,-1,23
 248 9 248 9 220.5 22 c 128,-1,24
 193 35 193 35 182 40 c 1,25,26
 144 0 144 0 80 0 c 0,27,28
 54 0 54 0 34 19 c 128,-1,29
 14 38 14 38 14 64 c 0,30,31
 14 121 14 121 79 121 c 0,32,33
 107 121 107 121 157 108 c 1,34,35
 176 168 176 168 197 326 c 1,36,37
 186 325 186 325 167.5 325 c 128,-1,38
 149 325 149 325 149 331 c 0,39,40
 149 340 149 340 157.5 347.5 c 128,-1,41
 166 355 166 355 177 355 c 2,42,-1
 201 355 l 1,43,0
 212 460 212 460 264.5 520 c 128,-1,1
383.5 413.5 m 128,-1,45
 425 447 425 447 425 501 c 128,-1,46
 425 555 425 555 388 555 c 0,47,48
 307 555 307 555 278 366 c 1,49,44
 342 380 342 380 383.5 413.5 c 128,-1,45
134 61 m 1,50,51
 76 86 76 86 62.5 86 c 128,-1,52
 49 86 49 86 49 72 c 128,-1,53
 49 58 49 58 61.5 48 c 128,-1,54
 74 38 74 38 94 38 c 128,-1,55
 114 38 114 38 134 61 c 1,50,51
EndSplineSet
EndChar

StartChar: M
Encoding: 77 77 43
Width: 553
Flags: HMW
HStem: -15 21G<-71 -46.5> -5 51<425.5 431 425.5 440> 0 21G<179.5 215.5> 639 20G<421 448>
VStem: 60 88 112 36 152 29<75.5 97> 211 61<105 127> 345 68<92 286.5> 345 215<92 191.5>
LayerCount: 2
Fore
SplineSet
439 659 m 0,0,1
 453 659 453 659 468.5 638 c 128,-1,2
 484 617 484 617 484 595 c 0,3,4
 484 527 484 527 425 457 c 1,5,6
 413 372 413 372 413 209 c 128,-1,7
 413 46 413 46 430.5 46.5 c 128,-1,8
 448 47 448 47 482 94.5 c 128,-1,9
 516 142 516 142 531.5 171 c 128,-1,10
 547 200 547 200 553.5 200 c 128,-1,11
 560 200 560 200 560 188 c 0,12,13
 560 163 560 163 504 79 c 128,-1,14
 448 -5 448 -5 417 -5 c 0,15,16
 395 -5 395 -5 377 0.5 c 128,-1,17
 359 6 359 6 355 11 c 0,18,19
 345 23 345 23 345 99 c 0,20,21
 345 279 345 279 357 391 c 1,22,23
 299 334 299 334 251 261 c 1,24,25
 272 181 272 181 272 122.5 c 128,-1,26
 272 64 272 64 249.5 32 c 128,-1,27
 227 0 227 0 193 0 c 0,28,29
 152 0 152 0 152 79 c 0,30,31
 152 133 152 133 195 222 c 1,32,33
 175 292 175 292 137 359 c 1,34,35
 121 268 121 268 88 173 c 128,-1,36
 55 78 55 78 20 31.5 c 128,-1,37
 -15 -15 -15 -15 -63 -15 c 0,38,39
 -98 -15 -98 -15 -98 12 c 0,40,41
 -98 34 -98 34 -83 43 c 128,-1,42
 -68 52 -68 52 -47.5 56.5 c 128,-1,43
 -27 61 -27 61 -21 67 c 0,44,45
 18 108 18 108 52.5 207 c 128,-1,46
 87 306 87 306 103 410 c 1,47,48
 60 466 60 466 60 493.5 c 128,-1,49
 60 521 60 521 75.5 542 c 128,-1,50
 91 563 91 563 124 563 c 0,51,52
 139 563 139 563 146 484 c 1,53,54
 207 395 207 395 239 300 c 1,55,56
 295 392 295 392 367 470 c 1,57,58
 398 659 398 659 439 659 c 0,0,1
205 179 m 1,59,60
 181 126 181 126 181 84.5 c 128,-1,61
 181 43 181 43 191 43 c 128,-1,62
 201 43 201 43 206 67.5 c 128,-1,63
 211 92 211 92 211 119 c 128,-1,64
 211 146 211 146 205 179 c 1,59,60
EndSplineSet
EndChar

StartChar: N
Encoding: 78 78 44
Width: 423
Flags: HMW
HStem: -15 21G<-47 -22.5> 485 115<428 485> 528 72<428 439>
VStem: 74 87<476 484 473 499.5> 206 31<84 117 84 125> 265 70<62 81>
LayerCount: 2
Fore
SplineSet
105.5 171 m 128,-1,1
 77 75 77 75 43 30 c 128,-1,2
 9 -15 9 -15 -39 -15 c 0,3,4
 -74 -15 -74 -15 -74 12 c 0,5,6
 -74 34 -74 34 -59 43 c 128,-1,7
 -44 52 -44 52 -23.5 56.5 c 128,-1,8
 -3 61 -3 61 3 67 c 0,9,10
 40 106 40 106 71.5 206.5 c 128,-1,11
 103 307 103 307 117 411 c 1,12,13
 74 462 74 462 74 487 c 128,-1,14
 74 512 74 512 90 548.5 c 128,-1,15
 106 585 106 585 128 585 c 0,16,17
 141 585 141 585 151 556 c 128,-1,18
 161 527 161 527 161 484 c 2,19,-1
 161 473 l 1,20,21
 213 407 213 407 242 359 c 1,22,23
 273 461 273 461 327 530.5 c 128,-1,24
 381 600 381 600 451 600 c 0,25,26
 476 600 476 600 491 582 c 128,-1,27
 506 564 506 564 506 542 c 128,-1,28
 506 520 506 520 497.5 502.5 c 128,-1,29
 489 485 489 485 475 485 c 128,-1,30
 461 485 461 485 461 499 c 128,-1,31
 461 513 461 513 452.5 520.5 c 128,-1,32
 444 528 444 528 431 528 c 0,33,34
 390 528 390 528 354 485 c 0,35,36
 303 424 303 424 269 311 c 1,37,38
 335 169 335 169 335 81 c 0,39,40
 335 45 335 45 319 17.5 c 128,-1,41
 303 -10 303 -10 272 -10 c 0,42,43
 206 -10 206 -10 206 102 c 0,44,45
 206 181 206 181 218 252 c 1,46,47
 187 316 187 316 150 369 c 1,48,0
 134 267 134 267 105.5 171 c 128,-1,1
242 186 m 1,49,50
 237 150 237 150 237 112 c 128,-1,51
 237 74 237 74 242 53 c 128,-1,52
 247 32 247 32 253 32 c 0,53,54
 265 32 265 32 265 73 c 128,-1,55
 265 114 265 114 242 186 c 1,49,50
EndSplineSet
EndChar

StartChar: O
Encoding: 79 79 45
Width: 601
Flags: HMW
HStem: -10 51<216 295.5> 154 33<365.5 432> 492 34<275.5 289.5 258 307.5> 569 41<263.5 343>
VStem: 21 70<202.5 266> 116 41 456 78<319.5 360>
LayerCount: 2
Fore
SplineSet
21 223 m 0,0,1
 21 290 21 290 46.5 355.5 c 128,-1,2
 72 421 72 421 120 464 c 1,3,4
 132 529 132 529 182.5 569.5 c 128,-1,5
 233 610 233 610 327 610 c 0,6,7
 421 610 421 610 477.5 536.5 c 128,-1,8
 534 463 534 463 534 345 c 0,9,10
 534 268 534 268 511 199 c 1,11,12
 557 215 557 215 594.5 239.5 c 0,13,14
 632 264 632 264 633 264 c 0,15,16
 644 264 644 264 644 251 c 0,17,18
 644 240 644 240 596 208.5 c 0,19,20
 548 177 548 177 497 164 c 1,21,22
 460 83 460 83 392 36.5 c 128,-1,23
 324 -10 324 -10 227.5 -10 c 0,24,25
 131 -10 131 -10 76 54.5 c 128,-1,26
 21 119 21 119 21 223 c 0,0,1
443 187 m 1,27,28
 456 232 456 232 456 287 c 0,29,30
 456 405 456 405 411.5 487 c 128,-1,31
 367 569 367 569 285 569 c 0,32,33
 250 569 250 569 215.5 549.5 c 128,-1,34
 181 530 181 530 166 497 c 1,35,36
 218 526 218 526 271.5 526 c 0,37,38
 325 526 325 526 325 511 c 0,39,40
 325 502 325 502 318 497 c 128,-1,41
 311 492 311 492 304 492 c 0,42,43
 218 492 218 492 158 434 c 1,44,45
 166 332 166 332 247.5 259.5 c 128,-1,46
 329 187 329 187 443 187 c 1,27,28
265 41 m 0,47,48
 385 41 385 41 432 154 c 1,49,50
 317 154 317 154 226 217.5 c 128,-1,51
 135 281 135 281 119 382 c 1,52,53
 91 329 91 329 91 263 c 0,54,55
 91 172 91 172 141.5 106.5 c 128,-1,56
 192 41 192 41 265 41 c 0,47,48
EndSplineSet
EndChar

StartChar: P
Encoding: 80 80 46
Width: 647
Flags: HMW
HStem: -27 230 168 35 356 224 538 42 538 97
VStem: 110 67<392 436.5> 248 119<208 223.5> 296 89 558 75<316 414.5>
LayerCount: 2
Fore
SplineSet
385 579 m 1,0,1
 391 580 391 580 417.5 580 c 0,2,3
 444 580 444 580 481.5 570.5 c 128,-1,4
 519 561 519 561 554.5 539.5 c 128,-1,5
 590 518 590 518 611.5 476.5 c 128,-1,6
 633 435 633 435 633 378 c 0,7,8
 633 286 633 286 557.5 227 c 128,-1,9
 482 168 482 168 367 168 c 1,10,11
 367 -27 367 -27 298 -27 c 0,12,13
 252 -27 252 -27 252 12 c 0,14,15
 252 24 252 24 264 45 c 0,16,17
 276 66 276 66 281 93 c 128,-1,18
 286 120 286 120 289 180 c 1,19,20
 248 193 248 193 248 216 c 0,21,22
 248 235 248 235 269 235 c 0,23,24
 274 235 274 235 291 230 c 1,25,26
 304 505 304 505 309 531 c 1,27,28
 252 517 252 517 214.5 485 c 128,-1,29
 177 453 177 453 177 409 c 0,30,31
 177 384 177 384 166.5 370 c 128,-1,32
 156 356 156 356 140 356 c 0,33,34
 110 356 110 356 110 390 c 0,35,36
 110 457 110 457 169.5 505.5 c 128,-1,37
 229 554 229 554 318 571 c 1,38,39
 337 635 337 635 371 635 c 0,40,41
 385 635 385 635 385 579 c 1,0,1
558 350 m 0,42,43
 558 440 558 440 506.5 487.5 c 128,-1,44
 455 535 455 535 382 538 c 1,45,46
 367 361 367 361 367 205 c 1,47,48
 453 205 453 205 505.5 241 c 128,-1,49
 558 277 558 277 558 350 c 0,42,43
EndSplineSet
EndChar

StartChar: Q
Encoding: 81 81 47
Width: 599
Flags: HMW
HStem: -83 64<424 434.5> -10 51 23 85 546 46<239.5 361.5>
VStem: 36 71<221 308.5> 472 79<282.5 367.5>
LayerCount: 2
Fore
SplineSet
342 592 m 0,0,1
 439 592 439 592 495 529 c 128,-1,2
 551 466 551 466 551 355 c 128,-1,3
 551 244 551 244 503.5 153 c 128,-1,4
 456 62 456 62 371 19 c 1,5,6
 414 -19 414 -19 432 -19 c 0,7,8
 485 -19 485 -19 518 30 c 0,9,10
 535 55 535 55 545 55 c 128,-1,11
 555 55 555 55 555 45 c 0,12,13
 555 21 555 21 538 -5 c 0,14,15
 488 -83 488 -83 399 -83 c 0,16,17
 360 -83 360 -83 293 -5 c 1,18,19
 265 -10 265 -10 242 -10 c 0,20,21
 151 -10 151 -10 93.5 56 c 128,-1,22
 36 122 36 122 36 217 c 0,23,24
 36 362.732394366 36 362.732394366 107.5 472.5 c 0,25,26
 143 527 143 527 203.5 559.5 c 128,-1,27
 264 592 264 592 342 592 c 0,0,1
315 546 m 0,28,29
 208 546 208 546 157.5 467 c 128,-1,30
 107 388 107 388 107 258 c 0,31,32
 107 204 107 204 129 157 c 128,-1,33
 151 110 151 110 186 79 c 1,34,35
 215 108 215 108 246 108 c 128,-1,36
 277 108 277 108 339 50 c 1,37,38
 404 71 404 71 438 136.5 c 128,-1,39
 472 202 472 202 472 303 c 128,-1,40
 472 404 472 404 428 475 c 128,-1,41
 384 546 384 546 315 546 c 0,28,29
EndSplineSet
EndChar

StartChar: R
Encoding: 82 82 48
Width: 511
Flags: HMW
HStem: -118 83<423 516.5> 157 86<239 266.5 227 269> 220 23<243 259.5> 356 224 538 42<217 234.5> 538 97<166 234.5>
VStem: -73 67<392 438 392 438> 49 118<-1 165.5> 91 76 107 85 394 75<334 416>
LayerCount: 2
Fore
SplineSet
478 -43 m 1,0,-1
 511 -35 l 1,1,2
 527 -35 527 -35 527 -51 c 0,3,4
 526 -77 526 -77 500.5 -97.5 c 128,-1,5
 475 -118 475 -118 443 -118 c 128,-1,6
 411 -118 411 -118 392 -87 c 0,7,8
 364.6875 -42.4375 364.6875 -42.4375 341.5 73.5 c 0,9,10
 329.545454545 133.272727273 329.545454545 133.272727273 315 166 c 1,11,12
 288 157 288 157 258 157 c 128,-1,13
 228 157 228 157 205.5 169.5 c 128,-1,14
 183 182 183 182 183 200 c 0,15,16
 185 243 185 243 250 243 c 0,17,18
 296 243 296 243 332 215 c 1,19,20
 394 262 394 262 394 346 c 0,21,22
 394 396 394 396 375 434.5 c 128,-1,23
 356 473 356 473 325 495 c 0,24,25
 264.409090909 538 264.409090909 538 189 538 c 1,26,27
 187 511 187 511 179 435.5 c 0,28,29
 167 322.25 167 322.25 167 147.625 c 128,-1,30
 167 -27 167 -27 95 -27 c 0,31,32
 49 -27 49 -27 49 12 c 0,33,34
 49 22 49 22 62.5 46 c 128,-1,35
 76 70 76 70 82 101.5 c 128,-1,36
 88 133 88 133 91.5 215 c 128,-1,37
 95 297 95 297 114 528 c 1,38,39
 61 513 61 513 27.5 482 c 128,-1,40
 -6 451 -6 451 -6 409 c 0,41,42
 -6 385 -6 385 -17 370.5 c 128,-1,43
 -28 356 -28 356 -44 356 c 0,44,45
 -73 356 -73 356 -73 387 c 0,46,47
 -73 457 -73 457 -16.5 502.5 c 128,-1,48
 40 548 40 548 123 568 c 1,49,50
 143 635 143 635 179 635 c 0,51,52
 191 635 191 635 191 578 c 1,53,54
 202 580 202 580 233 580 c 128,-1,55
 264 580 264 580 303 571 c 128,-1,56
 342 562 342 562 381.5 540.5 c 128,-1,57
 421 519 421 519 445 475.5 c 128,-1,58
 469 432 469 432 469 374 c 128,-1,59
 469 316 469 316 439 266 c 128,-1,60
 409 216 409 216 361 186 c 1,61,62
 394 146 394 146 414 84 c 128,-1,63
 434 22 434 22 451 -10.5 c 128,-1,64
 468 -43 468 -43 478 -43 c 1,0,-1
238 198 m 128,-1,66
 252 192 252 192 267.5 192 c 128,-1,67
 283 192 283 192 296 197 c 1,68,69
 276 220 276 220 250 220 c 128,-1,70
 224 220 224 220 224 212 c 128,-1,65
 224 204 224 204 238 198 c 128,-1,66
EndSplineSet
EndChar

StartChar: S
Encoding: 83 83 49
Width: 481
Flags: HMW
HStem: -4 39<163.5 240 163.5 242.5> 151 48<66.5 126.5> 444 137<230 372> 539 42<243 285.5>
VStem: 9 79<103 130.5 103 133.5> 84 85<397 469.5 397 478.5> 340 63 340 81<123 225>
LayerCount: 2
Fore
SplineSet
337 459 m 1,0,-1
 342 485 l 1,1,2
 340 539 340 539 270 539 c 0,3,4
 230 539 230 539 199.5 510.5 c 128,-1,5
 169 482 169 482 169 450.5 c 128,-1,6
 169 419 169 419 195 396 c 128,-1,7
 221 373 221 373 258 354 c 128,-1,8
 295 335 295 335 332 313.5 c 128,-1,9
 369 292 369 292 395 258 c 128,-1,10
 421 224 421 224 421 181 c 0,11,12
 421 93 421 93 350 44.5 c 128,-1,13
 279 -4 279 -4 196.5 -4 c 128,-1,14
 114 -4 114 -4 61.5 24.5 c 128,-1,15
 9 53 9 53 9 115 c 0,16,17
 9 147 9 147 32 173 c 128,-1,18
 55 199 55 199 96 199 c 0,19,20
 112 199 112 199 125 189.5 c 128,-1,21
 138 180 138 180 140 166 c 1,22,23
 140 151 140 151 122 151 c 0,24,25
 88 151 88 151 88 122 c 0,26,27
 88 89 88 89 118 62 c 128,-1,28
 148 35 148 35 203.5 35 c 128,-1,29
 259 35 259 35 299.5 70.5 c 128,-1,30
 340 106 340 106 340 159 c 0,31,32
 340 195 340 195 313.5 224 c 128,-1,33
 287 253 287 253 249.5 273.5 c 128,-1,34
 212 294 212 294 174.5 315 c 128,-1,35
 137 336 137 336 110.5 366 c 128,-1,36
 84 396 84 396 84 434 c 0,37,38
 84 498 84 498 143.5 539.5 c 128,-1,39
 203 581 203 581 275 581 c 0,40,41
 324 581 324 581 363.5 561 c 128,-1,42
 403 541 403 541 403 500 c 0,43,44
 403 476 403 476 391 460 c 128,-1,45
 379 444 379 444 358 444 c 128,-1,46
 337 444 337 444 337 459 c 1,0,-1
EndSplineSet
EndChar

StartChar: T
Encoding: 84 84 50
Width: 420
Flags: HMW
HStem: -5 40<182.5 253.5 182.5 271> -5 148<108 271> 370 35<107.5 138.5 107.5 161.5> 370 57<100 190.5> 469 40<513 545> 533 73<92.5 126 68.5 134.5> 533 88
VStem: 11 33<480 513 469.5 543.5> 11 191<398.5 543.5> 73 63<77.5 97 77.5 99.5> 307 69<219 496>
LayerCount: 2
Fore
SplineSet
307 326 m 2,0,-1
 307 496 l 1,1,2
 288 500 288 500 252 508.5 c 128,-1,3
 216 517 216 517 197 521 c 0,4,5
 140 533 140 533 107 533 c 0,6,7
 44 533 44 533 44 498 c 0,8,9
 44 459 44 459 70.5 432 c 128,-1,10
 97 405 97 405 118 405 c 128,-1,11
 139 405 139 405 155.5 416 c 128,-1,12
 172 427 172 427 185 427 c 0,13,14
 202 427 202 427 202 409.5 c 128,-1,15
 202 392 202 392 186.5 381 c 128,-1,16
 171 370 171 370 138 370 c 0,17,18
 85 370 85 370 48 416 c 128,-1,19
 11 462 11 462 11 510 c 128,-1,20
 11 558 11 558 33 582 c 128,-1,21
 55 606 55 606 88 606 c 0,22,23
 164 606 164 606 314 558 c 1,24,25
 326 621 326 621 359 621 c 0,26,27
 374 621 374 621 374 539 c 1,28,29
 471 509 471 509 541 509 c 0,30,31
 559 509 559 509 582.5 517.5 c 128,-1,32
 606 526 606 526 618 536 c 128,-1,33
 630 546 630 546 637.5 546 c 128,-1,34
 645 546 645 546 645 539 c 0,35,36
 645 513 645 513 602.5 491 c 128,-1,37
 560 469 560 469 506.5 469 c 128,-1,38
 453 469 453 469 374 483 c 1,39,40
 376 345 376 345 376 293 c 128,-1,41
 376 241 376 241 372.5 204 c 128,-1,42
 369 167 369 167 357 126.5 c 128,-1,43
 345 86 345 86 325.5 58.5 c 128,-1,44
 306 31 306 31 271.5 13 c 128,-1,45
 237 -5 237 -5 191.5 -5 c 128,-1,46
 146 -5 146 -5 109.5 16 c 128,-1,47
 73 37 73 37 73 81 c 0,48,49
 73 108 73 108 87 125.5 c 128,-1,50
 101 143 101 143 124.5 143 c 128,-1,51
 148 143 148 143 148 132 c 0,52,53
 148 127 148 127 142 112.5 c 128,-1,54
 136 98 136 98 136 83.5 c 128,-1,55
 136 69 136 69 154.5 52 c 128,-1,56
 173 35 173 35 208 35 c 0,57,58
 307 35 307 35 307 326 c 2,0,-1
EndSplineSet
EndChar

StartChar: U
Encoding: 85 85 51
Width: 518
Flags: HMW
HStem: -5 55<180.5 200.5> 560 20G<112.5 152 432.5 451>
VStem: 76 70<140.5 234> 106 40 329 73 341 199 376 43
LayerCount: 2
Fore
SplineSet
106 517 m 0,0,1
 106 531 106 531 99 531 c 0,2,3
 83 531 83 531 62.5 507.5 c 128,-1,4
 42 484 42 484 35 435 c 0,5,6
 34 424 34 424 26.5 415.5 c 128,-1,7
 19 407 19 407 11 407 c 0,8,9
 -1 407 -1 407 -1 427 c 128,-1,10
 -1 447 -1 447 19 483.5 c 128,-1,11
 39 520 39 520 71.5 550 c 128,-1,12
 104 580 104 580 135 580 c 0,13,14
 171 580 171 580 170.5 522.5 c 128,-1,15
 170 465 170 465 158 355 c 128,-1,16
 146 245 146 245 146 190 c 0,17,18
 146 50 146 50 198 50 c 0,19,20
 228 50 228 50 268 98 c 128,-1,21
 308 146 308 146 339 210 c 1,22,23
 339 337 339 337 368 527 c 0,24,25
 370 536 370 536 399 558 c 128,-1,26
 428 580 428 580 443.5 580 c 128,-1,27
 459 580 459 580 459 522 c 0,28,29
 459 478 459 478 452 446 c 128,-1,30
 445 414 445 414 434.5 371 c 128,-1,31
 424 328 424 328 419 307 c 1,32,33
 409 173 409 173 409 73 c 0,34,35
 409 46 409 46 415 46 c 0,36,37
 432 47 432 47 464.5 94 c 128,-1,38
 497 141 497 141 512 170.5 c 128,-1,39
 527 200 527 200 533.5 200 c 128,-1,40
 540 200 540 200 540 188 c 0,41,42
 540 163 540 163 486.5 79 c 128,-1,43
 433 -5 433 -5 402 -5 c 0,44,45
 356 -5 356 -5 337 10 c 1,46,47
 329 18 329 18 329 49 c 128,-1,48
 329 80 329 80 334 145 c 1,49,50
 296 80 296 80 253.5 37.5 c 128,-1,51
 211 -5 211 -5 169.5 -5 c 128,-1,52
 128 -5 128 -5 102 39.5 c 128,-1,53
 76 84 76 84 76 159.5 c 128,-1,54
 76 235 76 235 91 348.5 c 128,-1,55
 106 462 106 462 106 517 c 0,0,1
EndSplineSet
EndChar

StartChar: V
Encoding: 86 86 52
Width: 507
Flags: HMW
HStem: -20 50<240 290.5 240 292> 694 20G<369.5 424>
VStem: 76 80<343.5 385.5> 212 38<448 495> 431 53<350.5 494.5>
LayerCount: 2
Fore
SplineSet
234 -20 m 0,0,1
 151 -20 151 -20 121 52 c 0,2,3
 100 101 100 101 88 176 c 1,4,5
 58 142 58 142 48 129.5 c 128,-1,6
 38 117 38 117 30 117 c 0,7,8
 18 117 18 117 18 127 c 0,9,10
 18 133 18 133 24 139 c 0,11,12
 59 174 59 174 84 203 c 1,13,14
 76 260 76 260 76 324.5 c 128,-1,15
 76 389 76 389 88 446 c 128,-1,16
 100 503 100 503 128.5 541.5 c 128,-1,17
 157 580 157 580 199 580 c 0,18,19
 250 580 250 580 250 493 c 0,20,21
 250 381 250 381 160 262 c 1,22,23
 167 172 167 172 195 93 c 0,24,25
 206 61 206 61 219.5 45.5 c 128,-1,26
 233 30 233 30 257.5 30 c 128,-1,27
 282 30 282 30 312.5 63.5 c 128,-1,28
 343 97 343 97 369 150.5 c 128,-1,29
 395 204 395 204 413 279.5 c 128,-1,30
 431 355 431 355 431 437 c 128,-1,31
 431 519 431 519 419 552.5 c 128,-1,32
 407 586 407 586 378 613 c 1,33,34
 340 645 340 645 340 680 c 0,35,36
 340 694 340 694 352 704 c 128,-1,37
 364 714 364 714 378 714 c 0,38,39
 411 714 411 714 433.5 693 c 128,-1,40
 456 672 456 672 466 636.5 c 0,41,42
 484 572.6 484 572.6 484 498 c 0,43,44
 484 357 484 357 445.5 235 c 128,-1,45
 407 113 407 113 349.5 46.5 c 128,-1,46
 292 -20 292 -20 234 -20 c 0,0,1
212 480 m 0,47,48
 212 533 212 533 200 533 c 0,49,50
 192 533 192 533 182 509 c 128,-1,51
 172 485 172 485 164 442 c 128,-1,52
 156 399 156 399 156 358 c 128,-1,53
 156 317 156 317 157 300 c 1,54,55
 212 392 212 392 212 480 c 0,47,48
EndSplineSet
EndChar

StartChar: W
Encoding: 87 87 53
Width: 653
Flags: HMW
HStem: -15 68<168 196.5 168 196.5 454.5 467.5> 272 32 272 52 579 48<183.5 203.5>
VStem: 55 76 221 34<481 532> 341 69<313 332> 501 128 587 42<272 401.5>
LayerCount: 2
Fore
SplineSet
416 480 m 1,0,-1
 410 406 l 1,1,2
 410 266 410 266 428 159.5 c 128,-1,3
 446 53 446 53 471 53 c 0,4,5
 505 53 505 53 546 148 c 128,-1,6
 587 243 587 243 587 338 c 0,7,8
 587 447.294117647 587 447.294117647 563.5 486 c 0,9,10
 555 500 555 500 536 519 c 0,11,12
 501 554 501 554 501 586 c 0,13,14
 501 601 501 601 509.5 610.5 c 128,-1,15
 518 620 518 620 530 620 c 0,16,17
 561 620 561 620 582 595.5 c 128,-1,18
 603 571 603 571 612.5 531.5 c 0,19,20
 629 462.894736842 629 462.894736842 629 386 c 0,21,22
 629 207 629 207 562.5 96 c 128,-1,23
 496 -15 496 -15 432 -15 c 0,24,25
 386 -15 386 -15 363.5 83 c 128,-1,26
 341 181 341 181 341 332 c 1,27,28
 281.364505527 82.2763668957 281.364505527 82.2763668957 213.5 16.5 c 0,29,30
 181 -15 181 -15 143 -15 c 0,31,32
 123 -15 123 -15 103.5 2.5 c 128,-1,33
 84 20 84 20 75 49 c 0,34,35
 55 108 55 108 55 274 c 1,36,37
 8 280 8 280 -20 298 c 1,38,39
 -36 306 -36 306 -36 315 c 128,-1,40
 -36 324 -36 324 -13 324 c 0,41,42
 -8 324 -8 324 2 321.5 c 2,43,-1
 28 315 l 2,44,45
 44 311 44 311 56 309 c 1,46,47
 64.9990512334 482.231736243 64.9990512334 482.231736243 121 576.5 c 0,48,49
 151 627 151 627 188 627 c 0,50,51
 255 627 255 627 255 527 c 0,52,53
 255 446 255 446 224 372 c 128,-1,54
 193 298 193 298 131 278 c 1,55,56
 131 211 131 211 139 157.5 c 0,57,58
 154.626168224 53 154.626168224 53 178 53 c 0,59,60
 197 53 197 53 228 110.5 c 128,-1,61
 259 168 259 168 288.5 266 c 128,-1,62
 318 364 318 364 327 459 c 0,63,64
 328 473 328 473 354 491 c 128,-1,65
 380 509 380 509 390 509 c 0,66,67
 416 509 416 509 416 480 c 1,0,-1
197.5 390.5 m 128,-1,69
 221 455 221 455 221 492.5 c 128,-1,70
 221 530 221 530 217.5 547.5 c 0,71,72
 211.2 579 211.2 579 199 579 c 0,73,74
 177 579 177 579 155.5 487.5 c 128,-1,75
 134 396 134 396 131 309 c 1,76,68
 174 326 174 326 197.5 390.5 c 128,-1,69
EndSplineSet
EndChar

StartChar: X
Encoding: 88 88 54
Width: 524
Flags: HMW
HStem: -20 81<416 436> 214 20G<66.5 74.5> 580 20G<123 158.5 438.5 473>
LayerCount: 2
Fore
SplineSet
405 -20 m 0,0,1
 367 -20 367 -20 338 19.5 c 0,2,3
 309 59 309 59 249 189 c 1,4,5
 120 -20 120 -20 76 -20 c 0,6,7
 26 -20 26 -20 26 9 c 0,8,9
 26 25 26 25 50 48.5 c 128,-1,10
 74 72 74 72 127 124 c 128,-1,11
 180 176 180 176 227 238 c 1,12,13
 184 324 184 324 148 378 c 1,14,15
 147 376 147 376 96 260 c 1,16,17
 86 234 86 234 70 234 c 0,18,19
 59 234 59 234 59 248 c 0,20,21
 59 262 59 262 70 284 c 1,22,23
 102 341 102 341 127 410 c 1,24,25
 96 460 96 460 96 473 c 0,26,27
 96 517 96 517 107 558.5 c 128,-1,28
 118 600 118 600 139 600 c 0,29,30
 165 600 165 600 176 576 c 128,-1,31
 187 552 187 552 187 522 c 2,32,-1
 187 517 l 1,33,34
 201 489 201 489 282 317 c 1,35,36
 313 365 313 365 352.5 444 c 128,-1,37
 392 523 392 523 416.5 561.5 c 128,-1,38
 441 600 441 600 464 600 c 0,39,40
 477 600 477 600 484.5 594 c 128,-1,41
 492 588 492 588 492 570.5 c 0,42,43
 492 553 492 553 483.5 538 c 128,-1,44
 475 523 475 523 456 506 c 128,-1,45
 437 489 437 489 426 474 c 0,46,47
 377 404 377 404 302 275 c 1,48,49
 403 61 403 61 425 61 c 0,50,51
 462 61 462 61 522 194 c 0,52,53
 534 221 534 221 543 221 c 0,54,55
 546 221 546 221 549.5 215.5 c 128,-1,56
 553 210 553 210 552.5 194.5 c 0,57,58
 552 179 552 179 528.5 126.5 c 128,-1,59
 505 74 505 74 469 27 c 128,-1,60
 433 -20 433 -20 405 -20 c 0,0,1
EndSplineSet
EndChar

StartChar: Y
Encoding: 89 89 55
Width: 519
Flags: HMW
HStem: -320 36<268 302.5 268 337> -5 55<187.5 212> -5 128 580 20G
VStem: 83 70<140.5 234> 113 40 158 68<-228 -179> 346 78<-107 -71> 383 26
LayerCount: 2
Fore
SplineSet
113 517 m 0,0,1
 113 531 113 531 106 531 c 0,2,3
 90 531 90 531 69.5 507.5 c 128,-1,4
 49 484 49 484 42 435 c 0,5,6
 41 424 41 424 33.5 415.5 c 128,-1,7
 26 407 26 407 18 407 c 0,8,9
 6 407 6 407 6 427 c 128,-1,10
 6 447 6 447 26 483.5 c 128,-1,11
 46 520 46 520 78.5 550 c 128,-1,12
 111 580 111 580 142 580 c 0,13,14
 178 580 178 580 177.5 522.5 c 128,-1,15
 177 465 177 465 165 355 c 128,-1,16
 153 245 153 245 153 190 c 0,17,18
 153 50 153 50 205 50 c 0,19,20
 243 50 243 50 293.5 121 c 128,-1,21
 344 192 344 192 370 266 c 1,22,23
 390 484 390 484 401 547 c 0,24,25
 403 556 403 556 432 578 c 128,-1,26
 461 600 461 600 476.5 600 c 128,-1,27
 492 600 492 600 492 553 c 0,28,29
 492 498.375 492 498.375 481.5 457.6875 c 0,30,31
 455 355 455 355 448 327 c 1,32,33
 436 247 436 247 431 100 c 1,34,35
 475 123 475 123 507 123 c 0,36,37
 519 123 519 123 519 114.5 c 128,-1,38
 519 106 519 106 507 101 c 1,39,40
 466 88 466 88 429 64 c 1,41,-1
 424 -71 l 2,42,43
 420.122641509 -171.811320755 420.122641509 -171.811320755 408.561320755 -214.405660377 c 128,-1,44
 397 -257 397 -257 381 -276 c 0,45,46
 343.947368421 -320 343.947368421 -320 268 -320 c 0,47,48
 158 -320 158 -320 158 -227 c 0,49,50
 158 -158 158 -158 211.5 -85.5 c 128,-1,51
 265 -13 265 -13 355 51 c 1,52,53
 358 114 358 114 363 186 c 1,54,55
 323 107 323 107 273.5 51 c 128,-1,56
 224 -5 224 -5 179.5 -5 c 128,-1,57
 135 -5 135 -5 109 39.5 c 128,-1,58
 83 84 83 84 83 159.5 c 128,-1,59
 83 235 83 235 98 348.5 c 128,-1,60
 113 462 113 462 113 517 c 0,0,1
260.5 -91.5 m 128,-1,62
 226 -150 226 -150 226 -194.5 c 128,-1,63
 226 -239 226 -239 243 -261.5 c 128,-1,64
 260 -284 260 -284 282 -284 c 0,65,66
 314 -284 314 -284 327.5 -248.5 c 128,-1,67
 341 -213 341 -213 346 -107 c 2,68,-1
 352 9 l 1,69,61
 295 -33 295 -33 260.5 -91.5 c 128,-1,62
EndSplineSet
EndChar

StartChar: Z
Encoding: 90 90 56
Width: 501
Flags: HMW
HStem: -25 85<323 407> -1 129 61 67 435 54<426.5 437.5 426.5 450.5> 521 41<436.5 474.5> 540 22 540 80<134 172.5>
VStem: 82 36<503 511.5 486 553>
LayerCount: 2
Fore
SplineSet
421 435 m 0,0,1
 404 435 404 435 363 454 c 1,2,3
 255 324 255 324 155 125 c 1,4,5
 203 118 203 118 293.5 89 c 128,-1,6
 384 60 384 60 395 60 c 0,7,8
 438 60 438 60 475 114 c 0,9,10
 477 117 477 117 480 121 c 128,-1,11
 483 125 483 125 484 127.5 c 128,-1,12
 485 130 485 130 487 133 c 128,-1,13
 489 136 489 136 490.5 137 c 128,-1,14
 492 138 492 138 493.5 140 c 128,-1,15
 495 142 495 142 496.5 142.5 c 0,16,17
 501 144 501 144 503 144 c 0,18,19
 513 144 513 144 513 132 c 0,20,21
 513 106 513 106 485 66.5 c 128,-1,22
 457 27 457 27 443.5 12.5 c 0,23,24
 408.586206897 -25 408.586206897 -25 343 -25 c 0,25,26
 327 -25 327 -25 249 18 c 128,-1,27
 171 61 171 61 130 61 c 1,28,29
 114 29 114 29 98 14 c 128,-1,30
 82 -1 82 -1 73 -1 c 0,31,32
 29 -1 29 -1 29 38 c 0,33,34
 29 55 29 55 49.5 82.5 c 128,-1,35
 70 110 70 110 97 122 c 1,36,37
 221 334 221 334 338 467 c 1,38,39
 201 540 201 540 143 540 c 0,40,41
 118 540 118 540 118 497 c 0,42,43
 118 485 118 485 124 462.5 c 128,-1,44
 130 440 130 440 130 436 c 0,45,46
 130 424 130 424 118.5 424 c 128,-1,47
 107 424 107 424 94.5 458.5 c 128,-1,48
 82 493 82 493 82 530 c 128,-1,49
 82 567 82 567 97 593.5 c 128,-1,50
 112 620 112 620 136.5 620 c 128,-1,51
 161 620 161 620 187 614 c 128,-1,52
 213 608 213 608 232 601 c 128,-1,53
 251 594 251 594 276.5 579.5 c 128,-1,54
 302 565 302 565 313.5 557.5 c 0,55,56
 358.222222222 528.333333333 358.222222222 528.333333333 380 512 c 1,57,58
 432 562 432 562 462 562 c 0,59,60
 482 562 482 562 497.5 549 c 128,-1,61
 513 536 513 536 513 515 c 0,62,63
 513 477 513 477 489 456 c 128,-1,64
 465 435 465 435 421 435 c 0,0,1
460 507 m 0,65,66
 460 521 460 521 444 521 c 128,-1,67
 428 521 428 521 403 498 c 1,68,69
 419.5 489 419.5 489 430 489 c 0,70,71
 460 489 460 489 460 507 c 0,65,66
EndSplineSet
EndChar

StartChar: period
Encoding: 46 46 57
Width: 167
Flags: HMW
HStem: -18 88<66.5 76.5>
VStem: 17 97<18.5 39>
LayerCount: 2
Fore
SplineSet
31 -8.5 m 128,-1,1
 17 1 17 1 17 23 c 128,-1,2
 17 45 17 45 37 57.5 c 128,-1,3
 57 70 57 70 74 70 c 128,-1,4
 91 70 91 70 102.5 60.5 c 128,-1,5
 114 51 114 51 114 37 c 0,6,7
 114 -18 114 -18 60 -18 c 0,8,0
 45 -18 45 -18 31 -8.5 c 128,-1,1
EndSplineSet
EndChar

StartChar: question
Encoding: 63 63 58
Width: 386
Flags: HMW
HStem: -18 88<139.5 149.5> 428 132<60.5 230> 524 36<167.5 196.5>
VStem: 90 97<18.5 20> 106 54<202.5 243.5 202.5 248> 257 80<360.5 452.5>
LayerCount: 2
Fore
SplineSet
160 133 m 0,0,1
 136 133 136 133 121 152 c 128,-1,2
 106 171 106 171 106 197.5 c 128,-1,3
 106 224 106 224 121.5 244.5 c 128,-1,4
 137 265 137 265 159 279 c 128,-1,5
 181 293 181 293 203.5 309 c 128,-1,6
 226 325 226 325 241.5 354 c 128,-1,7
 257 383 257 383 257 425.5 c 128,-1,8
 257 468 257 468 233.5 496 c 128,-1,9
 210 524 210 524 168 524 c 0,10,11
 150 524 150 524 134 507.5 c 0,12,13
 113.927272727 486.8 113.927272727 486.8 102 454 c 1,14,15
 90 428 90 428 69 428 c 0,16,17
 57 428 57 428 50.5 437 c 128,-1,18
 44 446 44 446 44 456 c 0,19,20
 45 499 45 499 96.5 529.5 c 128,-1,21
 148 560 148 560 200 560 c 128,-1,22
 252 560 252 560 294.5 529.5 c 128,-1,23
 337 499 337 499 337 448.5 c 128,-1,24
 337 398 337 398 319 362.5 c 128,-1,25
 301 327 301 327 275 307.5 c 128,-1,26
 249 288 249 288 222.5 273 c 128,-1,27
 196 258 196 258 178 243.5 c 128,-1,28
 160 229 160 229 160 215.5 c 128,-1,29
 160 202 160 202 175 189 c 128,-1,30
 190 176 190 176 190 169.5 c 128,-1,31
 190 163 190 163 179 148 c 128,-1,32
 168 133 168 133 160 133 c 0,0,1
104 -8.5 m 128,-1,34
 90 1 90 1 90.5 23 c 128,-1,35
 91 45 91 45 110.5 57.5 c 128,-1,36
 130 70 130 70 147 70 c 128,-1,37
 164 70 164 70 175.5 60.5 c 128,-1,38
 187 51 187 51 187 37 c 0,39,40
 187 -18 187 -18 133 -18 c 0,41,33
 118 -18 118 -18 104 -8.5 c 128,-1,34
EndSplineSet
EndChar

StartChar: zero
Encoding: 48 48 59
Width: 494
Flags: HMW
HStem: -5 49<196.5 283.5 196.5 290.5> 504 46<270 301>
VStem: 41 77<181.5 251> 203 241<248 521> 366 78<248 329>
LayerCount: 2
Fore
SplineSet
263 504 m 1,0,-1
 211 499 l 2,1,2
 203 499 203 499 203 509 c 0,3,4
 203 526 203 526 230 538 c 128,-1,5
 257 550 257 550 293 550 c 0,6,7
 356 550 356 550 400 490 c 128,-1,8
 444 430 444 430 444 316 c 0,9,10
 444 204.814814815 444 204.814814815 389 105 c 0,11,12
 362 56 362 56 314 25.5 c 128,-1,13
 266 -5 266 -5 205 -5 c 0,14,15
 120 -5 120 -5 80.5 53.5 c 128,-1,16
 41 112 41 112 41 202 c 0,17,18
 41 371 41 371 122 477 c 0,19,20
 156 522 156 522 180 522 c 0,21,22
 187 522 187 522 187 515 c 0,23,24
 187 509.083333333 187 509.083333333 178.5 497.041666667 c 0,25,26
 136.13800206 437.028836251 136.13800206 437.028836251 127.06900103 381.014418126 c 128,-1,27
 118 325 118 325 118 239 c 128,-1,28
 118 153 118 153 149 98.5 c 128,-1,29
 180 44 180 44 224 44 c 128,-1,30
 268 44 268 44 296.5 66.5 c 128,-1,31
 325 89 325 89 339 126.5 c 0,32,33
 366 198.821428571 366 198.821428571 366 281.910714286 c 128,-1,34
 366 365 366 365 340 434.5 c 128,-1,35
 314 504 314 504 263 504 c 1,0,-1
EndSplineSet
EndChar

StartChar: one
Encoding: 49 49 60
Width: 313
Flags: HMW
HStem: -10 21G<178 212.5> 540 20G<229 250>
VStem: 29 227<202.5 231> 163 93 200 56 200 71<391.5 426>
LayerCount: 2
Fore
SplineSet
169 503 m 0,0,1
 203 560 203 560 237 560 c 128,-1,2
 271 560 271 560 271 426 c 0,3,4
 271 387 271 387 264.5 323 c 128,-1,5
 258 259 258 259 256 231 c 1,6,7
 256 156 256 156 250.5 100.5 c 128,-1,8
 245 45 245 45 243 35 c 128,-1,9
 241 25 241 25 235 12 c 0,10,11
 224.846153846 -10 224.846153846 -10 185 -10 c 0,12,13
 163 -10 163 -10 163 38 c 128,-1,14
 163 86 163 86 181.5 212.5 c 128,-1,15
 200 339 200 339 200 406 c 128,-1,16
 200 473 200 473 192.5 473 c 128,-1,17
 185 473 185 473 152 408 c 128,-1,18
 119 343 119 343 103.5 307 c 128,-1,19
 88 271 88 271 81 241.5 c 128,-1,20
 74 212 74 212 67 198 c 128,-1,21
 60 184 60 184 48 184 c 0,22,23
 29 184 29 184 29 204.5 c 128,-1,24
 29 225 29 225 74.5 323 c 128,-1,25
 120 421 120 421 169 503 c 0,0,1
EndSplineSet
EndChar

StartChar: two
Encoding: 50 50 61
Width: 415
Flags: HMW
HStem: -5 84<240.5 314.5> 0 21G<27.5 44> 61 66 347 213<86.5 263> 517 43<189.5 228>
VStem: 63 45<441 460.5> 63 64<375.5 460.5> 286 86<365 444.5>
LayerCount: 2
Fore
SplineSet
108 455 m 0,0,1
 108 441 108 441 117.5 418.5 c 128,-1,2
 127 396 127 396 127 383.5 c 0,3,4
 127 371 127 371 118.5 359 c 128,-1,5
 110 347 110 347 96 347 c 0,6,7
 82 347 82 347 72.5 370 c 128,-1,8
 63 393 63 393 63 416 c 0,9,10
 63 480 63 480 114 520 c 128,-1,11
 165 560 165 560 225 560 c 0,12,13
 285 560 285 560 328.5 527 c 128,-1,14
 372 494 372 494 372 439.5 c 0,15,16
 372 385 372 385 351.5 346 c 128,-1,17
 331 307 331 307 304 283 c 128,-1,18
 277 259 277 259 223.5 212 c 128,-1,19
 170 165 170 165 130 122 c 1,20,21
 166 116 166 116 229.5 97.5 c 128,-1,22
 293 79 293 79 304 79 c 0,23,24
 341 79 341 79 374 133 c 0,25,26
 391 162 391 162 398 162 c 0,27,28
 407 162 407 162 407 144 c 0,29,30
 407 126 407 126 378 79 c 128,-1,31
 349 32 349 32 326.5 13.5 c 128,-1,32
 304 -5 304 -5 258 -5 c 0,33,34
 244 -5 244 -5 185 28 c 128,-1,35
 126 61 126 61 90 61 c 1,36,37
 62 0 62 0 39 0 c 0,38,39
 22 0 22 0 11.5 10 c 128,-1,40
 1 20 1 20 1 40.5 c 0,41,42
 1 61 1 61 23.5 93.5 c 128,-1,43
 46 126 46 126 77 126 c 1,44,45
 111 162 111 162 154 203 c 128,-1,46
 197 244 197 244 215.5 263 c 128,-1,47
 234 282 234 282 253.5 308 c 128,-1,48
 273 334 273 334 279.5 359 c 128,-1,49
 286 384 286 384 286 422 c 0,50,51
 286 460 286 460 263 488.5 c 128,-1,52
 240 517 240 517 202 517 c 0,53,54
 164 517 164 517 136 503 c 128,-1,55
 108 489 108 489 108 455 c 0,0,1
EndSplineSet
EndChar

StartChar: three
Encoding: 51 51 62
Width: 404
Flags: HMW
HStem: -10 37<121 190.5> -10 114<28 190.5> 308 41<192 293> 457 78 457 103 514 62<107.5 126.5>
VStem: 57 42<464.5 530.5> 298 77<151.5 213.5>
LayerCount: 2
Fore
SplineSet
94 492 m 1,0,-1
 99 467 l 1,1,2
 99 459 99 459 86.5 459 c 128,-1,3
 74 459 74 459 65.5 477.5 c 128,-1,4
 57 496 57 496 57 518 c 128,-1,5
 57 540 57 540 72 558 c 128,-1,6
 87 576 87 576 109 576 c 128,-1,7
 131 576 131 576 190 556 c 128,-1,8
 249 536 249 536 293 535 c 1,9,10
 314 560 314 560 335 560 c 0,11,12
 376 560 376 560 376 500 c 0,13,14
 376 481 376 481 351.5 469.5 c 128,-1,15
 327 458 327 458 302 457 c 1,16,17
 287 439 287 439 257.5 406.5 c 128,-1,18
 228 374 228 374 204 345 c 1,19,20
 228 349 228 349 252 349 c 0,21,22
 309 349 309 349 342 301.5 c 128,-1,23
 375 254 375 254 375 201 c 0,24,25
 375 101 375 101 302 45.5 c 128,-1,26
 229 -10 229 -10 130 -10 c 0,27,28
 89 -10 89 -10 50.5 18 c 128,-1,29
 12 46 12 46 12 74 c 0,30,31
 12 87 12 87 18.5 95.5 c 128,-1,32
 25 104 25 104 39.5 104 c 128,-1,33
 54 104 54 104 69 92 c 128,-1,34
 84 80 84 80 92 65.5 c 128,-1,35
 100 51 100 51 115.5 39 c 128,-1,36
 131 27 131 27 151 27 c 0,37,38
 219 27 219 27 258.5 76.5 c 128,-1,39
 298 126 298 126 298 192 c 0,40,41
 298 230 298 230 272 269 c 128,-1,42
 246 308 246 308 206 308 c 0,43,44
 190 308 190 308 170 304 c 128,-1,45
 150 300 150 300 138.5 300 c 128,-1,46
 127 300 127 300 127 309 c 128,-1,47
 127 318 127 318 135 326 c 0,48,49
 209 396 209 396 255 462 c 1,50,51
 219 470 219 470 172 492 c 128,-1,52
 125 514 125 514 117 514 c 0,53,54
 94 514 94 514 94 492 c 1,0,-1
EndSplineSet
EndChar

StartChar: four
Encoding: 52 52 63
Width: 440
Flags: HMW
HStem: -10 212 151 83<312 392.5> 584 20G<196 231>
VStem: 226 78<13.5 105.5> 226 186<13.5 191> 255 67
LayerCount: 2
Fore
SplineSet
239 161 m 1,0,-1
 44 150 l 2,1,2
 27 150 27 150 17 159 c 128,-1,3
 7 168 7 168 7 178.5 c 128,-1,4
 7 189 7 189 34 197 c 1,5,6
 42 223 42 223 96.5 352 c 128,-1,7
 151 481 151 481 155.5 497.5 c 128,-1,8
 160 514 160 514 165 536 c 128,-1,9
 170 558 170 558 174 569 c 128,-1,10
 178 580 178 580 191 592 c 128,-1,11
 204 604 204 604 219 604 c 128,-1,12
 234 604 234 604 240.5 591 c 128,-1,13
 247 578 247 578 247 563 c 0,14,15
 247 525 247 525 221 485.5 c 128,-1,16
 195 446 195 446 151 362 c 128,-1,17
 107 278 107 278 78 202 c 1,18,19
 125.857142857 202 125.857142857 202 178.428571429 213.5 c 128,-1,20
 231 225 231 225 250 228 c 1,21,22
 265 402 265 402 288 402 c 0,23,24
 299 402 299 402 310.5 387 c 128,-1,25
 322 372 322 372 322 357 c 1,26,-1
 312 234 l 1,27,28
 351 234 351 234 381.5 216 c 128,-1,29
 412 198 412 198 412 177 c 0,30,31
 412 151 412 151 379 151 c 0,32,33
 365 151 365 151 343.5 156.5 c 128,-1,34
 322 162 322 162 307 162 c 1,35,36
 304 96 304 96 304 94 c 2,37,-1
 305 32 l 2,38,39
 305 14 305 14 289.5 2 c 128,-1,40
 274 -10 274 -10 246 -10 c 0,41,42
 226 -10 226 -10 226 23 c 0,43,44
 226 76 226 76 239 161 c 1,0,-1
EndSplineSet
EndChar

StartChar: five
Encoding: 53 53 64
Width: 391
Flags: HMW
HStem: -10 36<117.5 177> -10 120<24.5 177> 306 53 318 41<132 254> 318 229<78 185.5> 455 58<131 160> 575 20G<321.5 341.5>
VStem: 276 76<129.5 220>
LayerCount: 2
Fore
SplineSet
119 348 m 1,0,1
 154 359 154 359 213 359 c 128,-1,2
 272 359 272 359 312 312 c 128,-1,3
 352 265 352 265 352 207.5 c 128,-1,4
 352 150 352 150 330 105 c 128,-1,5
 308 60 308 60 273.5 36.5 c 0,6,7
 205.234042553 -10 205.234042553 -10 147.117021277 -10 c 128,-1,8
 89 -10 89 -10 46 16 c 128,-1,9
 3 42 3 42 3 71 c 0,10,11
 3 85 3 85 12 97.5 c 128,-1,12
 21 110 21 110 35 110 c 128,-1,13
 49 110 49 110 62.5 97 c 128,-1,14
 76 84 76 84 84 68 c 128,-1,15
 92 52 92 52 111 39 c 128,-1,16
 130 26 130 26 157 26 c 0,17,18
 202 26 202 26 239 67.5 c 128,-1,19
 276 109 276 109 276 174 c 128,-1,20
 276 239 276 239 239.5 278.5 c 128,-1,21
 203 318 203 318 151 318 c 0,22,23
 131 318 131 318 112.5 312 c 128,-1,24
 94 306 94 306 79 306 c 128,-1,25
 64 306 64 306 64 319 c 128,-1,26
 64 332 64 332 77 337 c 1,27,28
 92 408 92 408 92 457 c 1,29,30
 73 461 73 461 59.5 473 c 128,-1,31
 46 485 46 485 46 501.5 c 128,-1,32
 46 518 46 518 59.5 532.5 c 128,-1,33
 73 547 73 547 86 547 c 128,-1,34
 99 547 99 547 110 537.5 c 128,-1,35
 121 528 121 528 125 513 c 1,36,37
 165 513 165 513 203.5 526 c 128,-1,38
 242 539 242 539 265 554 c 128,-1,39
 288 569 288 569 307.5 582 c 128,-1,40
 327 595 327 595 334 595 c 0,41,42
 353 595 353 595 353 552 c 0,43,44
 353 528 353 528 331.5 507 c 128,-1,45
 310 486 310 486 259.5 470.5 c 128,-1,46
 209 455 209 455 131 455 c 1,47,48
 131 421 131 421 119 348 c 1,0,1
EndSplineSet
EndChar

StartChar: six
Encoding: 54 54 65
Width: 447
Flags: HMW
HStem: -10 38<175 256.5 175 271> 286 36<224 274> 521 39<251 291.5>
VStem: 38 77<184.5 216 184.5 239> 330 61<130 187.5>
LayerCount: 2
Fore
SplineSet
278 560 m 0,0,1
 332 560 332 560 364 532 c 128,-1,2
 396 504 396 504 396 457 c 0,3,4
 396 438 396 438 387 418 c 128,-1,5
 378 398 378 398 356 398 c 0,6,7
 326 398 326 398 326 426 c 0,8,9
 326 433 326 433 331.5 446.5 c 128,-1,10
 337 460 337 460 337 468 c 0,11,12
 336 521 336 521 273.5 521 c 128,-1,13
 211 521 211 521 168 454.5 c 128,-1,14
 125 388 125 388 116 263 c 1,15,16
 165 322 165 322 258 322 c 0,17,18
 314 322 314 322 352.5 279.5 c 128,-1,19
 391 237 391 237 391 168.5 c 128,-1,20
 391 100 391 100 343.5 45 c 128,-1,21
 296 -10 296 -10 214 -10 c 0,22,23
 38 -10 38 -10 38 197 c 0,24,25
 38 390 38 390 129 492 c 0,26,27
 189 560 189 560 278 560 c 0,0,1
307.5 246 m 128,-1,29
 285 286 285 286 245.5 286 c 0,30,31
 176.666666667 286 176.666666667 286 133.5 237 c 2,32,-1
 115 216 l 1,33,34
 115 156.6 115 156.6 133 99 c 0,35,36
 143 67 143 67 166 47.5 c 128,-1,37
 189 28 189 28 221 28 c 0,38,39
 272 28 272 28 301 68.5 c 128,-1,40
 330 109 330 109 330 157.5 c 128,-1,28
 330 206 330 206 307.5 246 c 128,-1,29
EndSplineSet
EndChar

StartChar: seven
Encoding: 55 55 66
Width: 354
Flags: HMW
HStem: -10 21G<93.5 134> 224 37 437 78 437 110 503 62<51.5 70.5>
VStem: 1 48<443.5 519.5>
LayerCount: 2
Fore
SplineSet
110 214 m 0,0,1
 90 214 90 214 90 230 c 0,2,3
 90 251 90 251 114.5 260.5 c 128,-1,4
 139 270 139 270 159 270 c 128,-1,5
 179 270 179 270 187 269 c 1,6,7
 234 373 234 373 259 441 c 1,8,9
 212.79020979 450.902097902 212.79020979 450.902097902 140.895104895 476.951048951 c 128,-1,10
 69 503 69 503 61 503 c 0,11,12
 40 503 40 503 40 481 c 0,13,14
 40 473 40 473 44.5 461.5 c 128,-1,15
 49 450 49 450 49 446 c 0,16,17
 49 438 49 438 42 438 c 0,18,19
 26 438 26 438 13.5 461.5 c 128,-1,20
 1 485 1 485 1 507 c 128,-1,21
 1 529 1 529 15 547 c 128,-1,22
 29 565 29 565 51 565 c 128,-1,23
 73 565 73 565 154.5 540.5 c 128,-1,24
 236 516 236 516 280 515 c 1,25,26
 286 524 286 524 302 535.5 c 128,-1,27
 318 547 318 547 330.5 547 c 128,-1,28
 343 547 343 547 354 528.5 c 128,-1,29
 365 510 365 510 365 480 c 0,30,31
 365 462 365 462 344.5 451 c 128,-1,32
 324 440 324 440 299 437 c 1,33,34
 276 368 276 368 237 264 c 1,35,36
 268 261 268 261 303.5 261 c 128,-1,37
 339 261 339 261 339 245 c 0,38,39
 339 232 339 232 312 230 c 0,40,41
 303 229 303 229 223 227 c 1,42,43
 180 112 180 112 175 95 c 128,-1,44
 170 78 170 78 166 58 c 128,-1,45
 162 38 162 38 157.5 26 c 128,-1,46
 153 14 153 14 139 2 c 128,-1,47
 125 -10 125 -10 107.5 -10 c 128,-1,48
 90 -10 90 -10 82.5 3 c 128,-1,49
 75 16 75 16 75 31 c 0,50,51
 75 67 75 67 111 116 c 0,52,53
 127 139 127 139 167 225 c 1,54,55
 156 225 156 225 137.5 219.5 c 128,-1,56
 119 214 119 214 110 214 c 0,0,1
EndSplineSet
EndChar

StartChar: eight
Encoding: 56 56 67
Width: 405
Flags: HMW
HStem: -10 28<154.5 220 154.5 225> 521 39<251 269.5>
VStem: 13 72<82 139 82 144.5> 67 60<425.5 459> 194 179<440 531> 295 78 313 60<440 474>
LayerCount: 2
Fore
SplineSet
135 542 m 0,0,1
 160 560 160 560 168.5 560 c 128,-1,2
 177 560 177 560 177 551.5 c 128,-1,3
 177 543 177 543 158 520 c 0,4,5
 127 483 127 483 127 443 c 0,6,7
 127 381 127 381 212 331 c 1,8,9
 313 395 313 395 313 451 c 0,10,11
 313 484 313 484 295.5 502.5 c 128,-1,12
 278 521 278 521 259 521 c 128,-1,13
 240 521 240 521 224 515 c 128,-1,14
 208 509 208 509 203 509 c 0,15,16
 194 509 194 509 194 523 c 128,-1,17
 194 537 194 537 217 548.5 c 128,-1,18
 240 560 240 560 274.5 560 c 128,-1,19
 309 560 309 560 341 538 c 128,-1,20
 373 516 373 516 373 480 c 0,21,22
 373 443 373 443 361 425 c 2,23,-1
 343 398 l 2,24,25
 330.857142857 379.785714286 330.857142857 379.785714286 288.428571429 349.892857143 c 128,-1,26
 246 320 246 320 240 315 c 1,27,28
 374 237 374 237 374 143 c 0,29,30
 374 66 374 66 317 28 c 128,-1,31
 260 -10 260 -10 163 -10 c 0,32,33
 104 -10 104 -10 58.5 18 c 128,-1,34
 13 46 13 46 13 104 c 0,35,36
 13 211 13 211 169 304 c 1,37,38
 137 325 137 325 119 338.5 c 128,-1,39
 101 352 101 352 84 377.5 c 128,-1,40
 67 403 67 403 67 431 c 0,41,42
 67 494 67 494 135 542 c 0,0,1
295 134 m 0,43,44
 295 214 295 214 200 284 c 1,45,46
 85 187 85 187 85 107 c 0,47,48
 85 70 85 70 113 44 c 128,-1,49
 141 18 141 18 188.5 18 c 128,-1,50
 236 18 236 18 265.5 52 c 128,-1,51
 295 86 295 86 295 134 c 0,43,44
EndSplineSet
EndChar

StartChar: nine
Encoding: 57 57 68
Width: 428
Flags: HMW
HStem: -10 37<144 234 144 248> -10 114<57 248> 213 37<155.5 213> 526 34<189 257.5>
VStem: 50 63<353 415.5 353 417> 312 77<265.5 355.5>
LayerCount: 2
Fore
SplineSet
174 27 m 0,0,1
 216 27 216 27 245.5 57 c 128,-1,2
 275 87 275 87 288.5 135.5 c 0,3,4
 312 219.925925926 312 219.925925926 312 314 c 0,5,6
 312 526 312 526 217 526 c 0,7,8
 176 526 176 526 144.5 480.5 c 128,-1,9
 113 435 113 435 113 379 c 0,10,11
 113 307.857142857 113 307.857142857 140.5 272.5 c 0,12,13
 158 250 158 250 189.5 250 c 128,-1,14
 221 250 221 250 252.5 264 c 128,-1,15
 284 278 284 278 289.5 278 c 128,-1,16
 295 278 295 278 295 270 c 0,17,18
 295 251 295 251 261 232 c 128,-1,19
 227 213 227 213 171 213 c 128,-1,20
 115 213 115 213 82.5 260 c 128,-1,21
 50 307 50 307 50 366 c 0,22,23
 50 443 50 443 101.5 501.5 c 128,-1,24
 153 560 153 560 224 560 c 0,25,26
 263 560 263 560 293 545 c 128,-1,27
 323 530 323 530 340.5 507 c 128,-1,28
 358 484 358 484 369.5 452 c 0,29,30
 389 397.739130435 389 397.739130435 389 328 c 0,31,32
 389 -10 389 -10 156 -10 c 0,33,34
 113 -10 113 -10 78.5 15.5 c 128,-1,35
 44 41 44 41 43.5 72.5 c 128,-1,36
 43 104 43 104 63 104 c 128,-1,37
 83 104 83 104 97 92 c 128,-1,38
 111 80 111 80 118 65.5 c 128,-1,39
 125 51 125 51 139.5 39 c 128,-1,40
 154 27 154 27 174 27 c 0,0,1
EndSplineSet
EndChar

StartChar: questiondown
Encoding: 191 191 69
Width: 355
Flags: HMW
HStem: -213 36<177.5 206.5> -213 132<144 313.5> 277 88<224.5 234.5>
VStem: 37 80<-105.5 -13.5> 187 97<308 328.5> 214 54<103.5 144.5>
LayerCount: 2
Fore
SplineSet
215 214 m 0,0,1
 239 214 239 214 253.5 195 c 128,-1,2
 268 176 268 176 268 149.5 c 128,-1,3
 268 123 268 123 252.5 102.5 c 128,-1,4
 237 82 237 82 215 68 c 128,-1,5
 193 54 193 54 170.5 38 c 128,-1,6
 148 22 148 22 132.5 -7 c 128,-1,7
 117 -36 117 -36 117 -78.5 c 128,-1,8
 117 -121 117 -121 140.5 -149 c 128,-1,9
 164 -177 164 -177 206 -177 c 0,10,11
 239.538461538 -177 239.538461538 -177 261 -130.5 c 0,12,13
 264 -124 264 -124 268 -116 c 128,-1,14
 272 -108 272 -108 272 -107 c 0,15,16
 284 -81 284 -81 305 -81 c 0,17,18
 317 -81 317 -81 323.5 -90 c 128,-1,19
 330 -99 330 -99 330 -109 c 0,20,21
 329 -152 329 -152 277.5 -182.5 c 128,-1,22
 226 -213 226 -213 174 -213 c 128,-1,23
 122 -213 122 -213 79.5 -182.5 c 128,-1,24
 37 -152 37 -152 37 -101.5 c 128,-1,25
 37 -51 37 -51 55 -15.5 c 128,-1,26
 73 20 73 20 99 39.5 c 128,-1,27
 125 59 125 59 151.5 74 c 128,-1,28
 178 89 178 89 196 103.5 c 128,-1,29
 214 118 214 118 214 131.5 c 128,-1,30
 214 145 214 145 199 158 c 128,-1,31
 184 171 184 171 184 177.5 c 128,-1,32
 184 184 184 184 195.5 199 c 128,-1,33
 207 214 207 214 215 214 c 0,0,1
270 355.5 m 128,-1,35
 284 346 284 346 284 324 c 128,-1,36
 284 302 284 302 264 289.5 c 128,-1,37
 244 277 244 277 227 277 c 128,-1,38
 210 277 210 277 198.5 286.5 c 128,-1,39
 187 296 187 296 187 310 c 0,40,41
 187 365 187 365 241 365 c 0,42,34
 256 365 256 365 270 355.5 c 128,-1,35
EndSplineSet
EndChar

StartChar: exclam
Encoding: 33 33 70
Width: 253
Flags: HMW
HStem: -18 88<114.5 124.5> 560 20G<162.5 179>
VStem: 65 97<18.5 20>
LayerCount: 2
Fore
SplineSet
79 -8.5 m 128,-1,1
 65 1 65 1 65.5 23 c 128,-1,2
 66 45 66 45 85.5 57.5 c 128,-1,3
 105 70 105 70 122 70 c 128,-1,4
 139 70 139 70 150.5 60.5 c 128,-1,5
 162 51 162 51 162 37 c 0,6,7
 162 -18 162 -18 108 -18 c 0,8,0
 93 -18 93 -18 79 -8.5 c 128,-1,1
195 572 m 128,-1,10
 206 564 206 564 206 548.5 c 128,-1,11
 206 533 206 533 196.5 504.5 c 128,-1,12
 187 476 187 476 181 443.5 c 128,-1,13
 175 411 175 411 162 304 c 128,-1,14
 149 197 149 197 142 158 c 0,15,16
 140 149 140 149 132.5 141 c 128,-1,17
 125 133 125 133 117 133 c 0,18,19
 95 133 95 133 95 172 c 0,20,21
 95 235 95 235 98 278.5 c 128,-1,22
 101 322 101 322 101.5 359.5 c 0,23,24
 102.610887097 442.816532258 102.610887097 442.816532258 112.305443548 483.408266129 c 128,-1,25
 122 524 122 524 139.5 552 c 128,-1,26
 157 580 157 580 170.5 580 c 128,-1,9
 184 580 184 580 195 572 c 128,-1,10
EndSplineSet
EndChar

StartChar: exclamdown
Encoding: 161 161 71
Width: 223
Flags: HMW
HStem: -233 21G<63 79.5> 277 88<117.5 127.5>
VStem: 80 97<308 328.5>
LayerCount: 2
Fore
SplineSet
163 355.5 m 128,-1,1
 177 346 177 346 177 324 c 128,-1,2
 177 302 177 302 157 289.5 c 128,-1,3
 137 277 137 277 120 277 c 128,-1,4
 103 277 103 277 91.5 286.5 c 128,-1,5
 80 296 80 296 80 310 c 0,6,7
 80 365 80 365 134 365 c 0,8,0
 149 365 149 365 163 355.5 c 128,-1,1
47 -225 m 128,-1,10
 36 -217 36 -217 36 -201.5 c 128,-1,11
 36 -186 36 -186 45.5 -157.5 c 128,-1,12
 55 -129 55 -129 61 -96.5 c 128,-1,13
 67 -64 67 -64 80 43 c 128,-1,14
 93 150 93 150 100 189 c 0,15,16
 102 198 102 198 109.5 206 c 128,-1,17
 117 214 117 214 125 214 c 0,18,19
 147 214 147 214 147 175 c 0,20,21
 147 112 147 112 144 68.5 c 128,-1,22
 141 25 141 25 140.5 -12.5 c 0,23,24
 139.389112903 -95.8165322581 139.389112903 -95.8165322581 129.694556452 -136.408266129 c 128,-1,25
 120 -177 120 -177 102.5 -205 c 128,-1,26
 85 -233 85 -233 71.5 -233 c 128,-1,9
 58 -233 58 -233 47 -225 c 128,-1,10
EndSplineSet
EndChar

StartChar: slash
Encoding: 47 47 72
Width: 274
Flags: HMW
HStem: -151 21G<-7 13.5> 557 20G<239 251>
LayerCount: 2
Fore
SplineSet
-19 -137.5 m 128,-1,1
 -28 -124 -28 -124 -28 -108.5 c 128,-1,2
 -28 -93 -28 -93 -15 -59.5 c 128,-1,3
 -2 -26 -2 -26 12.5 1.5 c 0,4,5
 39.4285714286 52.5714285714 39.4285714286 52.5714285714 73 113 c 1,6,7
 114 194 114 194 156 353 c 128,-1,8
 198 512 198 512 213 544.5 c 128,-1,9
 228 577 228 577 248 577 c 0,10,11
 255 577 255 577 255 565 c 128,-1,12
 255 553 255 553 249 529 c 0,13,14
 158 138 158 138 83 -52 c 0,15,16
 67 -92 67 -92 43 -121.5 c 128,-1,17
 19 -151 19 -151 4.5 -151 c 128,-1,0
 -10 -151 -10 -151 -19 -137.5 c 128,-1,1
EndSplineSet
EndChar

StartChar: acute
Encoding: 180 180 73
Width: 348
Flags: HMW
HStem: 415 21G<114 126.5> 544 20G<207 220>
VStem: 179 68<513 520.5>
LayerCount: 2
Fore
SplineSet
179 513 m 0,0,1
 179 521 179 521 174 528.5 c 128,-1,2
 169 536 169 536 169 541 c 0,3,4
 169 546 169 546 186.5 555 c 128,-1,5
 204 564 204 564 215 564 c 0,6,7
 226 564 226 564 236.5 552 c 128,-1,8
 247 540 247 540 247 518 c 0,9,10
 247 484 247 484 204 452 c 0,11,12
 184 437 184 437 157.5 426 c 128,-1,13
 131 415 131 415 118.5 415 c 0,14,15
 106 415 106 415 106 424 c 0,16,17
 106 429 106 429 120 437 c 1,18,19
 178 465 178 465 179 513 c 0,0,1
EndSplineSet
EndChar

StartChar: aacute
Encoding: 225 225 74
Width: 372
Flags: HMW
HStem: -5 53<84.5 105> 315 40<118.5 146> 544 20G<216 229>
VStem: -25 68<137.5 200> 188 68<513 520.5>
LayerCount: 2
Fore
SplineSet
256 -5 m 0,0,1
 217 -5 217 -5 197 11 c 1,2,3
 190 18 190 18 190 46.5 c 0,4,5
 190 75 190 75 192 123 c 1,6,7
 166 58 166 58 140.5 26.5 c 128,-1,8
 115 -5 115 -5 75 -5 c 0,9,10
 35 -5 35 -5 5 32.5 c 128,-1,11
 -25 70 -25 70 -25 150.5 c 0,12,13
 -25 231 -25 231 20.5 293 c 128,-1,14
 66 355 66 355 140 355 c 0,15,16
 172 355 172 355 212 313 c 1,17,18
 220 324 220 324 240.5 339.5 c 128,-1,19
 261 355 261 355 275.5 355 c 0,20,21
 290 355 290 355 290 317 c 0,22,23
 290 307 290 307 284.5 278 c 128,-1,24
 279 249 279 249 272 236 c 1,25,26
 263 213 263 213 263 73 c 0,27,28
 263 46 263 46 269 46 c 0,29,30
 286 47 286 47 316 88.5 c 128,-1,31
 346 130 346 130 375.5 195 c 0,32,33
 405 260 405 260 411.5 260 c 0,34,35
 418 260 418 260 418 252 c 0,36,37
 418 224 418 224 389 163 c 0,38,39
 310 -5 310 -5 256 -5 c 0,0,1
134 315 m 0,40,41
 106 315 106 315 74.5 273.5 c 128,-1,42
 43 232 43 232 43 176 c 0,43,44
 43 120 43 120 59.5 84 c 128,-1,45
 76 48 76 48 103 48 c 0,46,47
 136 48 136 48 200 213 c 1,48,49
 201 221 201 221 202.5 240.5 c 128,-1,50
 204 260 204 260 205 270 c 1,51,52
 196 286 196 286 173.5 300.5 c 128,-1,53
 151 315 151 315 134 315 c 0,40,41
188 513 m 0,54,55
 188 521 188 521 183 528.5 c 128,-1,56
 178 536 178 536 178 541 c 0,57,58
 178 546 178 546 195.5 555 c 128,-1,59
 213 564 213 564 224 564 c 0,60,61
 235 564 235 564 245.5 552 c 128,-1,62
 256 540 256 540 256 518 c 0,63,64
 256 484 256 484 213 452 c 0,65,66
 193 437 193 437 166.5 426 c 128,-1,67
 140 415 140 415 127.5 415 c 0,68,69
 115 415 115 415 115 424 c 0,70,71
 115 429 115 429 129 437 c 1,72,73
 187 465 187 465 188 513 c 0,54,55
EndSplineSet
EndChar

StartChar: eacute
Encoding: 233 233 75
Width: 277
Flags: HMW
HStem: -5 52<112.5 158.5> 143 212 323 32<113.5 148> 544 20G<169 182>
VStem: -16 69 -16 243<101 307.5> 141 68<513 520.5>
LayerCount: 2
Fore
SplineSet
106 -5 m 0,0,1
 50 -5 50 -5 17 37.5 c 128,-1,2
 -16 80 -16 80 -16 134 c 0,3,4
 -16 243 -16 243 30 299 c 128,-1,5
 76 355 76 355 149 355 c 0,6,7
 183 355 183 355 205 336.5 c 128,-1,8
 227 318 227 318 227 286 c 0,9,10
 227 226 227 226 176.5 185.5 c 128,-1,11
 126 145 126 145 53 143 c 1,12,13
 57 104 57 104 79.5 75.5 c 128,-1,14
 102 47 102 47 132 47 c 128,-1,15
 162 47 162 47 186 61 c 128,-1,16
 210 75 210 75 230 101 c 0,17,18
 272.258064516 155.935483871 272.258064516 155.935483871 302.5 226.5 c 0,19,20
 310 244 310 244 314.5 252 c 128,-1,21
 319 260 319 260 324.5 260 c 128,-1,22
 330 260 330 260 330 252 c 0,23,24
 330 202.133333333 330 202.133333333 269 102.5 c 0,25,26
 203.183673469 -5 203.183673469 -5 106 -5 c 0,0,1
86.5 176 m 0,27,28
 167 200.769230769 167 200.769230769 167 282 c 0,29,30
 167 323 167 323 138 323 c 0,31,32
 103 323 103 323 79 274.5 c 128,-1,33
 55 226 55 226 53 167 c 1,34,35
 57.25 167 57.25 167 86.5 176 c 0,27,28
141 513 m 0,36,37
 141 521 141 521 136 528.5 c 128,-1,38
 131 536 131 536 131 541 c 128,-1,39
 131 546 131 546 148.5 555 c 128,-1,40
 166 564 166 564 177 564 c 128,-1,41
 188 564 188 564 198.5 552 c 128,-1,42
 209 540 209 540 209 518 c 0,43,44
 209 484 209 484 166 452 c 0,45,46
 146 437 146 437 119.5 426 c 128,-1,47
 93 415 93 415 80.5 415 c 128,-1,48
 68 415 68 415 68 424 c 0,49,50
 68 429 68 429 82 437 c 1,51,52
 140 465 140 465 141 513 c 0,36,37
EndSplineSet
EndChar

StartChar: oacute
Encoding: 243 243 76
Width: 352
Flags: HMW
HStem: -5 45<105 159.5 105 159.5> 164 39<194 195> 322 23 322 43 544 20G<207 220>
VStem: -23 71<132.5 186.5 132.5 195.5> 82 50<262.5 268> 179 68<513 520.5> 227 65<204 234 221 230.5>
LayerCount: 2
Fore
SplineSet
292 221 m 1,0,1
 330 236 330 236 355 250 c 128,-1,2
 380 264 380 264 382 264 c 0,3,4
 388 264 388 264 388 254 c 128,-1,5
 388 244 388 244 360 223.5 c 128,-1,6
 332 203 332 203 289 187 c 1,7,8
 279 102 279 102 231.5 48.5 c 128,-1,9
 184 -5 184 -5 103 -5 c 0,10,11
 43 -5 43 -5 10 40 c 128,-1,12
 -23 85 -23 85 -23 154 c 128,-1,13
 -23 223 -23 223 17.5 284 c 128,-1,14
 58 345 58 345 122 345 c 1,15,16
 148 365 148 365 188.5 365 c 128,-1,17
 229 365 229 365 260.5 328.5 c 128,-1,18
 292 292 292 292 292 234 c 2,19,-1
 292 221 l 1,0,1
126 40 m 0,20,21
 209 40 209 40 224 167 c 1,22,23
 206 164 206 164 190 164 c 0,24,25
 144 164 144 164 113 191.5 c 128,-1,26
 82 219 82 219 82 252.5 c 128,-1,27
 82 286 82 286 93 308 c 1,28,29
 69 288 69 288 58.5 247 c 128,-1,30
 48 206 48 206 48 160.5 c 128,-1,31
 48 115 48 115 71 77.5 c 128,-1,32
 94 40 94 40 126 40 c 0,20,21
179 513 m 0,33,34
 179 521 179 521 174 528.5 c 128,-1,35
 169 536 169 536 169 541 c 128,-1,36
 169 546 169 546 186.5 555 c 128,-1,37
 204 564 204 564 215 564 c 128,-1,38
 226 564 226 564 236.5 552 c 128,-1,39
 247 540 247 540 247 518 c 0,40,41
 247 484 247 484 204 452 c 0,42,43
 184 437 184 437 157.5 426 c 128,-1,44
 131 415 131 415 118.5 415 c 128,-1,45
 106 415 106 415 106 424 c 0,46,47
 106 429 106 429 120 437 c 1,48,49
 178 465 178 465 179 513 c 0,33,34
227 204 m 1,50,-1
 227 209 l 2,51,52
 227 249 227 249 211 290.5 c 128,-1,53
 195 332 195 332 167 332 c 0,54,55
 151 332 151 332 141.5 317.5 c 128,-1,56
 132 303 132 303 132 286 c 0,57,58
 132 251 132 251 157 227 c 128,-1,59
 182 203 182 203 216 203 c 0,60,61
 223 203 223 203 227 204 c 1,50,-1
EndSplineSet
EndChar

StartChar: uacute
Encoding: 250 250 77
Width: 380
Flags: HMW
HStem: -5 53<85.5 94> 544 20G<220 233>
VStem: 6 66 192 68<513 520.5>
LayerCount: 2
Fore
SplineSet
0 87 m 1,0,-1
 6 199 l 1,1,-1
 6 258 l 2,2,3
 6 306 6 306 16 316 c 128,-1,4
 26 326 26 326 51.5 345.5 c 128,-1,5
 77 365 77 365 88.5 365 c 128,-1,6
 100 365 100 365 103 361 c 128,-1,7
 106 357 106 357 106 345 c 0,8,9
 106 302 106 302 87 258 c 1,10,11
 72 166 72 166 72 107 c 128,-1,12
 72 48 72 48 91 48 c 0,13,14
 114 48 114 48 145 88 c 128,-1,15
 176 128 176 128 207 207 c 1,16,17
 216 307 216 307 221.5 315 c 128,-1,18
 227 323 227 323 249 344 c 128,-1,19
 271 365 271 365 285.5 365 c 128,-1,20
 300 365 300 365 300 327 c 0,21,22
 300 317 300 317 294.5 288 c 128,-1,23
 289 259 289 259 282 246 c 1,24,25
 271 218 271 218 271 73 c 0,26,27
 271 46 271 46 277 46 c 0,28,29
 294 47 294 47 324 88.5 c 128,-1,30
 354 130 354 130 383.5 195 c 128,-1,31
 413 260 413 260 419.5 260 c 128,-1,32
 426 260 426 260 426 252 c 0,33,34
 426 224 426 224 397 163 c 0,35,36
 318 -5 318 -5 264 -5 c 0,37,38
 225 -5 225 -5 205 11 c 1,39,40
 198 18 198 18 198 54 c 128,-1,41
 198 90 198 90 201 134 c 1,42,43
 169 66 169 66 137 30.5 c 128,-1,44
 105 -5 105 -5 65.5 -5 c 128,-1,45
 26 -5 26 -5 13 16 c 128,-1,46
 0 37 0 37 0 87 c 1,0,-1
192 513 m 0,47,48
 192 521 192 521 187 528.5 c 128,-1,49
 182 536 182 536 182 541 c 128,-1,50
 182 546 182 546 199.5 555 c 128,-1,51
 217 564 217 564 228 564 c 128,-1,52
 239 564 239 564 249.5 552 c 128,-1,53
 260 540 260 540 260 518 c 0,54,55
 260 484 260 484 217 452 c 0,56,57
 197 437 197 437 170.5 426 c 128,-1,58
 144 415 144 415 131.5 415 c 128,-1,59
 119 415 119 415 119 424 c 0,60,61
 119 429 119 429 133 437 c 1,62,63
 191 465 191 465 192 513 c 0,47,48
EndSplineSet
EndChar

StartChar: dotlessi
Encoding: 305 305 78
Width: 178
Flags: HMW
HStem: -5 21G<43.5 83> 345 20G<72.5 89.5>
VStem: -6 73<67 89.5> -6 206<55.5 191.5>
LayerCount: 2
Fore
SplineSet
0.5 204.5 m 128,-1,1
 7 305 7 305 12 313 c 128,-1,2
 17 321 17 321 43 343 c 128,-1,3
 69 365 69 365 83.5 365 c 128,-1,4
 98 365 98 365 98 327 c 0,5,6
 98 317 98 317 92.5 288 c 128,-1,7
 87 259 87 259 80 246 c 1,8,9
 67 213 67 213 67 73 c 0,10,11
 67 46 67 46 73 46 c 0,12,13
 90 47 90 47 124 94.5 c 128,-1,14
 158 142 158 142 172.5 171 c 128,-1,15
 187 200 187 200 193.5 200 c 128,-1,16
 200 200 200 200 200 188 c 0,17,18
 200 163 200 163 145.5 79 c 128,-1,19
 91 -5 91 -5 60 -5 c 0,20,21
 21 -5 21 -5 1 11 c 1,22,23
 -6 18 -6 18 -6 61 c 128,-1,0
 -6 104 -6 104 0.5 204.5 c 128,-1,1
EndSplineSet
EndChar

StartChar: iacute
Encoding: 237 237 79
Width: 178
Flags: HMW
HStem: -5 21G<43.5 83> 544 20G<120 133>
VStem: -6 73<67 89.5> -6 206<55.5 191.5> 92 68<513 520.5>
LayerCount: 2
Fore
SplineSet
0.5 204.5 m 128,-1,1
 7 305 7 305 12 313 c 128,-1,2
 17 321 17 321 43 343 c 128,-1,3
 69 365 69 365 83.5 365 c 128,-1,4
 98 365 98 365 98 327 c 0,5,6
 98 317 98 317 92.5 288 c 128,-1,7
 87 259 87 259 80 246 c 1,8,9
 67 213 67 213 67 73 c 0,10,11
 67 46 67 46 73 46 c 0,12,13
 90 47 90 47 124 94.5 c 128,-1,14
 158 142 158 142 172.5 171 c 128,-1,15
 187 200 187 200 193.5 200 c 128,-1,16
 200 200 200 200 200 188 c 0,17,18
 200 163 200 163 145.5 79 c 128,-1,19
 91 -5 91 -5 60 -5 c 0,20,21
 21 -5 21 -5 1 11 c 1,22,23
 -6 18 -6 18 -6 61 c 128,-1,0
 -6 104 -6 104 0.5 204.5 c 128,-1,1
92 513 m 0,24,25
 92 521 92 521 87 528.5 c 128,-1,26
 82 536 82 536 82 541 c 128,-1,27
 82 546 82 546 99.5 555 c 128,-1,28
 117 564 117 564 128 564 c 128,-1,29
 139 564 139 564 149.5 552 c 128,-1,30
 160 540 160 540 160 518 c 0,31,32
 160 484 160 484 117 452 c 0,33,34
 97 437 97 437 70.5 426 c 128,-1,35
 44 415 44 415 31.5 415 c 128,-1,36
 19 415 19 415 19 424 c 0,37,38
 19 429 19 429 33 437 c 1,39,40
 91 465 91 465 92 513 c 0,24,25
EndSplineSet
EndChar

StartChar: grave
Encoding: 96 96 80
Width: 344
Flags: HMW
HStem: 416 21G<225 238> 543 20G<126 139>
LayerCount: 2
Fore
SplineSet
159.5 522 m 128,-1,1
 167 504 167 504 171 498 c 128,-1,2
 175 492 175 492 178.5 487.5 c 128,-1,3
 182 483 182 483 185 480 c 128,-1,4
 188 477 188 477 193 473.5 c 128,-1,5
 198 470 198 470 201 468 c 128,-1,6
 204 466 204 466 210.5 462.5 c 128,-1,7
 217 459 217 459 219.5 458 c 128,-1,8
 222 457 222 457 230 453 c 2,9,-1
 240 448 l 2,10,11
 253 442 253 442 253 431 c 0,12,13
 253 416 253 416 235.5 416 c 128,-1,14
 218 416 218 416 190 425.5 c 128,-1,15
 162 435 162 435 141 449 c 0,16,17
 91 483 91 483 91 521 c 0,18,19
 91 532 91 532 107 547.5 c 128,-1,20
 123 563 123 563 130.5 563 c 128,-1,21
 138 563 138 563 145 551.5 c 128,-1,0
 152 540 152 540 159.5 522 c 128,-1,1
EndSplineSet
EndChar

StartChar: agrave
Encoding: 224 224 81
Width: 372
Flags: HMW
HStem: -5 53<84.5 105> 315 40<118.5 146> 315 248<140 146>
VStem: -25 68<137.5 200> 190 73<67 72.5>
LayerCount: 2
Fore
SplineSet
256 -5 m 0,0,1
 217 -5 217 -5 197 11 c 1,2,3
 190 18 190 18 190 46.5 c 128,-1,4
 190 75 190 75 192 123 c 1,5,6
 166 58 166 58 140.5 26.5 c 128,-1,7
 115 -5 115 -5 75 -5 c 128,-1,8
 35 -5 35 -5 5 32.5 c 128,-1,9
 -25 70 -25 70 -25 150.5 c 128,-1,10
 -25 231 -25 231 20.5 293 c 128,-1,11
 66 355 66 355 140 355 c 0,12,13
 172 355 172 355 212 313 c 1,14,15
 220 324 220 324 240.5 339.5 c 128,-1,16
 261 355 261 355 275.5 355 c 128,-1,17
 290 355 290 355 290 317 c 0,18,19
 290 307 290 307 284.5 278 c 128,-1,20
 279 249 279 249 272 236 c 1,21,22
 263 213 263 213 263 73 c 0,23,24
 263 46 263 46 269 46 c 0,25,26
 286 47 286 47 316 88.5 c 128,-1,27
 346 130 346 130 375.5 195 c 128,-1,28
 405 260 405 260 411.5 260 c 128,-1,29
 418 260 418 260 418 252 c 0,30,31
 418 224 418 224 389 163 c 0,32,33
 310 -5 310 -5 256 -5 c 0,0,1
134 315 m 0,34,35
 106 315 106 315 74.5 273.5 c 128,-1,36
 43 232 43 232 43 176 c 128,-1,37
 43 120 43 120 59.5 84 c 128,-1,38
 76 48 76 48 103 48 c 0,39,40
 136 48 136 48 200 213 c 1,41,42
 201 221 201 221 202.5 240.5 c 128,-1,43
 204 260 204 260 205 270 c 1,44,45
 196 286 196 286 173.5 300.5 c 128,-1,46
 151 315 151 315 134 315 c 0,34,35
173.5 522 m 128,-1,48
 181 504 181 504 185 498 c 128,-1,49
 189 492 189 492 192.5 487.5 c 128,-1,50
 196 483 196 483 199 480 c 128,-1,51
 202 477 202 477 207 473.5 c 128,-1,52
 212 470 212 470 215 468 c 128,-1,53
 218 466 218 466 224.5 462.5 c 128,-1,54
 231 459 231 459 233.5 458 c 128,-1,55
 236 457 236 457 244 453 c 2,56,-1
 254 448 l 2,57,58
 267 442 267 442 267 431 c 0,59,60
 267 416 267 416 249.5 416 c 128,-1,61
 232 416 232 416 204 425.5 c 128,-1,62
 176 435 176 435 155 449 c 0,63,64
 105 483 105 483 105 521 c 0,65,66
 105 532 105 532 121 547.5 c 128,-1,67
 137 563 137 563 144.5 563 c 128,-1,68
 152 563 152 563 159 551.5 c 128,-1,47
 166 540 166 540 173.5 522 c 128,-1,48
EndSplineSet
EndChar

StartChar: egrave
Encoding: 232 232 82
Width: 277
Flags: HMW
HStem: -5 52<112.5 158.5> 143 212 323 32<113.5 148> 323 240<93 148>
VStem: -16 69 -16 243<101 307.5>
LayerCount: 2
Fore
SplineSet
106 -5 m 0,0,1
 50 -5 50 -5 17 37.5 c 128,-1,2
 -16 80 -16 80 -16 134 c 0,3,4
 -16 243 -16 243 30 299 c 128,-1,5
 76 355 76 355 149 355 c 0,6,7
 183 355 183 355 205 336.5 c 128,-1,8
 227 318 227 318 227 286 c 0,9,10
 227 226 227 226 176.5 185.5 c 128,-1,11
 126 145 126 145 53 143 c 1,12,13
 57 104 57 104 79.5 75.5 c 128,-1,14
 102 47 102 47 132 47 c 128,-1,15
 162 47 162 47 186 61 c 128,-1,16
 210 75 210 75 230 101 c 0,17,18
 272.258064516 155.935483871 272.258064516 155.935483871 302.5 226.5 c 0,19,20
 310 244 310 244 314.5 252 c 128,-1,21
 319 260 319 260 324.5 260 c 128,-1,22
 330 260 330 260 330 252 c 0,23,24
 330 202.133333333 330 202.133333333 269 102.5 c 0,25,26
 203.183673469 -5 203.183673469 -5 106 -5 c 0,0,1
86.5 176 m 0,27,28
 167 200.769230769 167 200.769230769 167 282 c 0,29,30
 167 323 167 323 138 323 c 0,31,32
 103 323 103 323 79 274.5 c 128,-1,33
 55 226 55 226 53 167 c 1,34,35
 57.25 167 57.25 167 86.5 176 c 0,27,28
126.5 522 m 128,-1,37
 134 504 134 504 138 498 c 128,-1,38
 142 492 142 492 145.5 487.5 c 128,-1,39
 149 483 149 483 152 480 c 128,-1,40
 155 477 155 477 160 473.5 c 128,-1,41
 165 470 165 470 168 468 c 128,-1,42
 171 466 171 466 177.5 462.5 c 128,-1,43
 184 459 184 459 186.5 458 c 128,-1,44
 189 457 189 457 197 453 c 2,45,-1
 207 448 l 2,46,47
 220 442 220 442 220 431 c 0,48,49
 220 416 220 416 202.5 416 c 128,-1,50
 185 416 185 416 157 425.5 c 128,-1,51
 129 435 129 435 108 449 c 0,52,53
 58 483 58 483 58 521 c 0,54,55
 58 532 58 532 74 547.5 c 128,-1,56
 90 563 90 563 97.5 563 c 128,-1,57
 105 563 105 563 112 551.5 c 128,-1,36
 119 540 119 540 126.5 522 c 128,-1,37
EndSplineSet
EndChar

StartChar: igrave
Encoding: 236 236 83
Width: 178
Flags: HMW
HStem: -5 21G<43.5 83> 543 20G<43 56>
VStem: -6 73<67 89.5> -6 206<55.5 191.5>
LayerCount: 2
Fore
SplineSet
0.5 204.5 m 128,-1,1
 7 305 7 305 12 313 c 128,-1,2
 17 321 17 321 43 343 c 128,-1,3
 69 365 69 365 83.5 365 c 128,-1,4
 98 365 98 365 98 327 c 0,5,6
 98 317 98 317 92.5 288 c 128,-1,7
 87 259 87 259 80 246 c 1,8,9
 67 213 67 213 67 73 c 0,10,11
 67 46 67 46 73 46 c 0,12,13
 90 47 90 47 124 94.5 c 128,-1,14
 158 142 158 142 172.5 171 c 128,-1,15
 187 200 187 200 193.5 200 c 128,-1,16
 200 200 200 200 200 188 c 0,17,18
 200 163 200 163 145.5 79 c 128,-1,19
 91 -5 91 -5 60 -5 c 0,20,21
 21 -5 21 -5 1 11 c 1,22,23
 -6 18 -6 18 -6 61 c 128,-1,0
 -6 104 -6 104 0.5 204.5 c 128,-1,1
76.5 522 m 128,-1,25
 84 504 84 504 88 498 c 128,-1,26
 92 492 92 492 95.5 487.5 c 128,-1,27
 99 483 99 483 102 480 c 128,-1,28
 105 477 105 477 110 473.5 c 128,-1,29
 115 470 115 470 118 468 c 128,-1,30
 121 466 121 466 127.5 462.5 c 128,-1,31
 134 459 134 459 136.5 458 c 128,-1,32
 139 457 139 457 147 453 c 2,33,-1
 157 448 l 2,34,35
 170 442 170 442 170 431 c 0,36,37
 170 416 170 416 152.5 416 c 128,-1,38
 135 416 135 416 107 425.5 c 128,-1,39
 79 435 79 435 58 449 c 0,40,41
 8 483 8 483 8 521 c 0,42,43
 8 532 8 532 24 547.5 c 128,-1,44
 40 563 40 563 47.5 563 c 128,-1,45
 55 563 55 563 62 551.5 c 128,-1,24
 69 540 69 540 76.5 522 c 128,-1,25
EndSplineSet
EndChar

StartChar: ograve
Encoding: 242 242 84
Width: 352
Flags: HMW
HStem: -5 45<105 159.5 105 159.5> 164 39<194 195> 322 23 322 43 322 241
VStem: -23 71<132.5 186.5 132.5 195.5> 82 50<262.5 268> 227 65<204 234 221 230.5>
LayerCount: 2
Fore
SplineSet
292 221 m 1,0,1
 330 236 330 236 355 250 c 128,-1,2
 380 264 380 264 382 264 c 0,3,4
 388 264 388 264 388 254 c 128,-1,5
 388 244 388 244 360 223.5 c 128,-1,6
 332 203 332 203 289 187 c 1,7,8
 279 102 279 102 231.5 48.5 c 128,-1,9
 184 -5 184 -5 103 -5 c 0,10,11
 43 -5 43 -5 10 40 c 128,-1,12
 -23 85 -23 85 -23 154 c 128,-1,13
 -23 223 -23 223 17.5 284 c 128,-1,14
 58 345 58 345 122 345 c 1,15,16
 148 365 148 365 188.5 365 c 128,-1,17
 229 365 229 365 260.5 328.5 c 128,-1,18
 292 292 292 292 292 234 c 2,19,-1
 292 221 l 1,0,1
126 40 m 0,20,21
 209 40 209 40 224 167 c 1,22,23
 206 164 206 164 190 164 c 0,24,25
 144 164 144 164 113 191.5 c 128,-1,26
 82 219 82 219 82 252.5 c 128,-1,27
 82 286 82 286 93 308 c 1,28,29
 69 288 69 288 58.5 247 c 128,-1,30
 48 206 48 206 48 160.5 c 128,-1,31
 48 115 48 115 71 77.5 c 128,-1,32
 94 40 94 40 126 40 c 0,20,21
163.5 522 m 128,-1,34
 171 504 171 504 175 498 c 128,-1,35
 179 492 179 492 182.5 487.5 c 128,-1,36
 186 483 186 483 189 480 c 128,-1,37
 192 477 192 477 197 473.5 c 128,-1,38
 202 470 202 470 205 468 c 128,-1,39
 208 466 208 466 214.5 462.5 c 128,-1,40
 221 459 221 459 223.5 458 c 128,-1,41
 226 457 226 457 234 453 c 2,42,-1
 244 448 l 2,43,44
 257 442 257 442 257 431 c 0,45,46
 257 416 257 416 239.5 416 c 128,-1,47
 222 416 222 416 194 425.5 c 128,-1,48
 166 435 166 435 145 449 c 0,49,50
 95 483 95 483 95 521 c 0,51,52
 95 532 95 532 111 547.5 c 128,-1,53
 127 563 127 563 134.5 563 c 128,-1,54
 142 563 142 563 149 551.5 c 128,-1,33
 156 540 156 540 163.5 522 c 128,-1,34
227 204 m 1,55,-1
 227 209 l 2,56,57
 227 249 227 249 211 290.5 c 128,-1,58
 195 332 195 332 167 332 c 0,59,60
 151 332 151 332 141.5 317.5 c 128,-1,61
 132 303 132 303 132 286 c 0,62,63
 132 251 132 251 157 227 c 128,-1,64
 182 203 182 203 216 203 c 0,65,66
 223 203 223 203 227 204 c 1,55,-1
EndSplineSet
EndChar

StartChar: ugrave
Encoding: 249 249 85
Width: 380
Flags: HMW
HStem: -5 53<85.5 94> 543 20G<144 157>
VStem: 6 66 198 73<67 73.5>
LayerCount: 2
Fore
SplineSet
0 87 m 1,0,-1
 6 199 l 1,1,-1
 6 258 l 2,2,3
 6 306 6 306 16 316 c 128,-1,4
 26 326 26 326 51.5 345.5 c 128,-1,5
 77 365 77 365 88.5 365 c 128,-1,6
 100 365 100 365 103 361 c 128,-1,7
 106 357 106 357 106 345 c 0,8,9
 106 302 106 302 87 258 c 1,10,11
 72 166 72 166 72 107 c 128,-1,12
 72 48 72 48 91 48 c 0,13,14
 114 48 114 48 145 88 c 128,-1,15
 176 128 176 128 207 207 c 1,16,17
 216 307 216 307 221.5 315 c 128,-1,18
 227 323 227 323 249 344 c 128,-1,19
 271 365 271 365 285.5 365 c 128,-1,20
 300 365 300 365 300 327 c 0,21,22
 300 317 300 317 294.5 288 c 128,-1,23
 289 259 289 259 282 246 c 1,24,25
 271 218 271 218 271 73 c 0,26,27
 271 46 271 46 277 46 c 0,28,29
 294 47 294 47 324 88.5 c 128,-1,30
 354 130 354 130 383.5 195 c 128,-1,31
 413 260 413 260 419.5 260 c 128,-1,32
 426 260 426 260 426 252 c 0,33,34
 426 224 426 224 397 163 c 0,35,36
 318 -5 318 -5 264 -5 c 0,37,38
 225 -5 225 -5 205 11 c 1,39,40
 198 18 198 18 198 54 c 128,-1,41
 198 90 198 90 201 134 c 1,42,43
 169 66 169 66 137 30.5 c 128,-1,44
 105 -5 105 -5 65.5 -5 c 128,-1,45
 26 -5 26 -5 13 16 c 128,-1,46
 0 37 0 37 0 87 c 1,0,-1
177.5 522 m 128,-1,48
 185 504 185 504 189 498 c 128,-1,49
 193 492 193 492 196.5 487.5 c 128,-1,50
 200 483 200 483 203 480 c 128,-1,51
 206 477 206 477 211 473.5 c 128,-1,52
 216 470 216 470 219 468 c 128,-1,53
 222 466 222 466 228.5 462.5 c 128,-1,54
 235 459 235 459 237.5 458 c 128,-1,55
 240 457 240 457 248 453 c 2,56,-1
 258 448 l 2,57,58
 271 442 271 442 271 431 c 0,59,60
 271 416 271 416 253.5 416 c 128,-1,61
 236 416 236 416 208 425.5 c 128,-1,62
 180 435 180 435 159 449 c 0,63,64
 109 483 109 483 109 521 c 0,65,66
 109 532 109 532 125 547.5 c 128,-1,67
 141 563 141 563 148.5 563 c 128,-1,68
 156 563 156 563 163 551.5 c 128,-1,47
 170 540 170 540 177.5 522 c 128,-1,48
EndSplineSet
EndChar

StartChar: dieresis
Encoding: 168 168 86
Width: 367
Flags: HMW
HStem: 448 82<109 118.5 254 263>
VStem: 63 91<482 500.5> 207 91<482 500.5>
LayerCount: 2
Fore
SplineSet
76.5 457 m 128,-1,1
 63 466 63 466 63 486 c 128,-1,2
 63 506 63 506 81.5 518 c 128,-1,3
 100 530 100 530 116 530 c 128,-1,4
 132 530 132 530 143 521 c 128,-1,5
 154 512 154 512 154 499 c 0,6,7
 154 448 154 448 103 448 c 0,8,0
 90 448 90 448 76.5 457 c 128,-1,1
220.5 457 m 128,-1,10
 207 466 207 466 207 486 c 128,-1,11
 207 506 207 506 226 518 c 128,-1,12
 245 530 245 530 261 530 c 128,-1,13
 277 530 277 530 287.5 521 c 128,-1,14
 298 512 298 512 298 499 c 0,15,16
 298 448 298 448 248 448 c 0,17,9
 234 448 234 448 220.5 457 c 128,-1,10
EndSplineSet
EndChar

StartChar: adieresis
Encoding: 228 228 87
Width: 372
Flags: HMW
HStem: -5 53<84.5 105> 315 40<118.5 146> 448 82<114 123.5 259 268>
VStem: -25 68<137.5 200> 68 91<482 500.5> 190 73<67 72.5> 212 91<482 500.5>
LayerCount: 2
Fore
SplineSet
256 -5 m 0,0,1
 217 -5 217 -5 197 11 c 1,2,3
 190 18 190 18 190 46.5 c 128,-1,4
 190 75 190 75 192 123 c 1,5,6
 166 58 166 58 140.5 26.5 c 128,-1,7
 115 -5 115 -5 75 -5 c 128,-1,8
 35 -5 35 -5 5 32.5 c 128,-1,9
 -25 70 -25 70 -25 150.5 c 128,-1,10
 -25 231 -25 231 20.5 293 c 128,-1,11
 66 355 66 355 140 355 c 0,12,13
 172 355 172 355 212 313 c 1,14,15
 220 324 220 324 240.5 339.5 c 128,-1,16
 261 355 261 355 275.5 355 c 128,-1,17
 290 355 290 355 290 317 c 0,18,19
 290 307 290 307 284.5 278 c 128,-1,20
 279 249 279 249 272 236 c 1,21,22
 263 213 263 213 263 73 c 0,23,24
 263 46 263 46 269 46 c 0,25,26
 286 47 286 47 316 88.5 c 128,-1,27
 346 130 346 130 375.5 195 c 128,-1,28
 405 260 405 260 411.5 260 c 128,-1,29
 418 260 418 260 418 252 c 0,30,31
 418 224 418 224 389 163 c 0,32,33
 310 -5 310 -5 256 -5 c 0,0,1
134 315 m 0,34,35
 106 315 106 315 74.5 273.5 c 128,-1,36
 43 232 43 232 43 176 c 128,-1,37
 43 120 43 120 59.5 84 c 128,-1,38
 76 48 76 48 103 48 c 0,39,40
 136 48 136 48 200 213 c 1,41,42
 201 221 201 221 202.5 240.5 c 128,-1,43
 204 260 204 260 205 270 c 1,44,45
 196 286 196 286 173.5 300.5 c 128,-1,46
 151 315 151 315 134 315 c 0,34,35
225.5 457 m 128,-1,48
 212 466 212 466 212 486 c 128,-1,49
 212 506 212 506 231 518 c 128,-1,50
 250 530 250 530 266 530 c 128,-1,51
 282 530 282 530 292.5 521 c 128,-1,52
 303 512 303 512 303 499 c 0,53,54
 303 448 303 448 253 448 c 0,55,47
 239 448 239 448 225.5 457 c 128,-1,48
81.5 457 m 128,-1,57
 68 466 68 466 68 486 c 128,-1,58
 68 506 68 506 86.5 518 c 128,-1,59
 105 530 105 530 121 530 c 128,-1,60
 137 530 137 530 148 521 c 128,-1,61
 159 512 159 512 159 499 c 0,62,63
 159 448 159 448 108 448 c 0,64,56
 95 448 95 448 81.5 457 c 128,-1,57
EndSplineSet
EndChar

StartChar: odieresis
Encoding: 246 246 88
Width: 352
Flags: HMW
HStem: -5 45<105 159.5 105 159.5> 164 39<194 195> 322 23 322 43 448 82<105 114.5 250 259>
VStem: -23 71<132.5 186.5 132.5 195.5> 59 91<482 500.5> 82 50<262.5 268> 203 89 227 65<204 234 221 230.5>
LayerCount: 2
Fore
SplineSet
292 221 m 1,0,1
 330 236 330 236 355 250 c 128,-1,2
 380 264 380 264 382 264 c 0,3,4
 388 264 388 264 388 254 c 128,-1,5
 388 244 388 244 360 223.5 c 128,-1,6
 332 203 332 203 289 187 c 1,7,8
 279 102 279 102 231.5 48.5 c 128,-1,9
 184 -5 184 -5 103 -5 c 0,10,11
 43 -5 43 -5 10 40 c 128,-1,12
 -23 85 -23 85 -23 154 c 128,-1,13
 -23 223 -23 223 17.5 284 c 128,-1,14
 58 345 58 345 122 345 c 1,15,16
 148 365 148 365 188.5 365 c 128,-1,17
 229 365 229 365 260.5 328.5 c 128,-1,18
 292 292 292 292 292 234 c 2,19,-1
 292 221 l 1,0,1
126 40 m 0,20,21
 209 40 209 40 224 167 c 1,22,23
 206 164 206 164 190 164 c 0,24,25
 144 164 144 164 113 191.5 c 128,-1,26
 82 219 82 219 82 252.5 c 128,-1,27
 82 286 82 286 93 308 c 1,28,29
 69 288 69 288 58.5 247 c 128,-1,30
 48 206 48 206 48 160.5 c 128,-1,31
 48 115 48 115 71 77.5 c 128,-1,32
 94 40 94 40 126 40 c 0,20,21
227 204 m 1,33,-1
 227 209 l 2,34,35
 227 249 227 249 211 290.5 c 128,-1,36
 195 332 195 332 167 332 c 0,37,38
 151 332 151 332 141.5 317.5 c 128,-1,39
 132 303 132 303 132 286 c 0,40,41
 132 251 132 251 157 227 c 128,-1,42
 182 203 182 203 216 203 c 0,43,44
 223 203 223 203 227 204 c 1,33,-1
216.5 457 m 128,-1,46
 203 466 203 466 203 486 c 128,-1,47
 203 506 203 506 222 518 c 128,-1,48
 241 530 241 530 257 530 c 128,-1,49
 273 530 273 530 283.5 521 c 128,-1,50
 294 512 294 512 294 499 c 0,51,52
 294 448 294 448 244 448 c 0,53,45
 230 448 230 448 216.5 457 c 128,-1,46
72.5 457 m 128,-1,55
 59 466 59 466 59 486 c 128,-1,56
 59 506 59 506 77.5 518 c 128,-1,57
 96 530 96 530 112 530 c 128,-1,58
 128 530 128 530 139 521 c 128,-1,59
 150 512 150 512 150 499 c 0,60,61
 150 448 150 448 99 448 c 0,62,54
 86 448 86 448 72.5 457 c 128,-1,55
EndSplineSet
EndChar

StartChar: idieresis
Encoding: 239 239 89
Width: 178
Flags: HMW
HStem: -5 21G<43.5 83> 448 82<18 27.5 163 172>
VStem: -28 91<482 500.5> -6 69 116 91<482 500.5>
LayerCount: 2
Fore
SplineSet
0.5 204.5 m 128,-1,1
 7 305 7 305 12 313 c 128,-1,2
 17 321 17 321 43 343 c 128,-1,3
 69 365 69 365 83.5 365 c 128,-1,4
 98 365 98 365 98 327 c 0,5,6
 98 317 98 317 92.5 288 c 128,-1,7
 87 259 87 259 80 246 c 1,8,9
 67 213 67 213 67 73 c 0,10,11
 67 46 67 46 73 46 c 0,12,13
 90 47 90 47 124 94.5 c 128,-1,14
 158 142 158 142 172.5 171 c 128,-1,15
 187 200 187 200 193.5 200 c 128,-1,16
 200 200 200 200 200 188 c 0,17,18
 200 163 200 163 145.5 79 c 128,-1,19
 91 -5 91 -5 60 -5 c 0,20,21
 21 -5 21 -5 1 11 c 1,22,23
 -6 18 -6 18 -6 61 c 128,-1,0
 -6 104 -6 104 0.5 204.5 c 128,-1,1
-14.5 457 m 128,-1,25
 -28 466 -28 466 -28 486 c 128,-1,26
 -28 506 -28 506 -9.5 518 c 128,-1,27
 9 530 9 530 25 530 c 128,-1,28
 41 530 41 530 52 521 c 128,-1,29
 63 512 63 512 63 499 c 0,30,31
 63 448 63 448 12 448 c 0,32,24
 -1 448 -1 448 -14.5 457 c 128,-1,25
129.5 457 m 128,-1,34
 116 466 116 466 116 486 c 128,-1,35
 116 506 116 506 135 518 c 128,-1,36
 154 530 154 530 170 530 c 128,-1,37
 186 530 186 530 196.5 521 c 128,-1,38
 207 512 207 512 207 499 c 0,39,40
 207 448 207 448 157 448 c 0,41,33
 143 448 143 448 129.5 457 c 128,-1,34
EndSplineSet
EndChar

StartChar: edieresis
Encoding: 235 235 90
Width: 277
Flags: HMW
HStem: -5 52<112.5 158.5> 143 212 323 32<113.5 148> 448 82<67 76.5 212 221>
VStem: -16 69 21 91<482 500.5> 165 62 165 91<482 500.5>
LayerCount: 2
Fore
SplineSet
106 -5 m 0,0,1
 50 -5 50 -5 17 37.5 c 128,-1,2
 -16 80 -16 80 -16 134 c 0,3,4
 -16 243 -16 243 30 299 c 128,-1,5
 76 355 76 355 149 355 c 0,6,7
 184 355 184 355 205.5 337 c 128,-1,8
 227 319 227 319 227 286 c 0,9,10
 227 226 227 226 176.5 185.5 c 128,-1,11
 126 145 126 145 53 143 c 1,12,13
 57 104 57 104 79.5 75.5 c 128,-1,14
 102 47 102 47 132 47 c 128,-1,15
 162 47 162 47 186 61 c 128,-1,16
 210 75 210 75 230 101 c 0,17,18
 272.258064516 155.935483871 272.258064516 155.935483871 302.5 226.5 c 0,19,20
 310 244 310 244 314.5 252 c 128,-1,21
 319 260 319 260 324.5 260 c 128,-1,22
 330 260 330 260 330 252 c 0,23,24
 330 202.133333333 330 202.133333333 269 102.5 c 0,25,26
 203.183673469 -5 203.183673469 -5 106 -5 c 0,0,1
86.5 176 m 0,27,28
 167 200.769230769 167 200.769230769 167 282 c 0,29,30
 167 323 167 323 138 323 c 0,31,32
 103 323 103 323 79 274.5 c 128,-1,33
 55 226 55 226 53 167 c 1,34,35
 57.25 167 57.25 167 86.5 176 c 0,27,28
178.5 457 m 128,-1,37
 165 466 165 466 165 486 c 128,-1,38
 165 506 165 506 184 518 c 128,-1,39
 203 530 203 530 219 530 c 128,-1,40
 235 530 235 530 245.5 521 c 128,-1,41
 256 512 256 512 256 499 c 0,42,43
 256 448 256 448 206 448 c 0,44,36
 192 448 192 448 178.5 457 c 128,-1,37
34.5 457 m 128,-1,46
 21 466 21 466 21 486 c 128,-1,47
 21 506 21 506 39.5 518 c 128,-1,48
 58 530 58 530 74 530 c 128,-1,49
 90 530 90 530 101 521 c 128,-1,50
 112 512 112 512 112 499 c 0,51,52
 112 448 112 448 61 448 c 0,53,45
 48 448 48 448 34.5 457 c 128,-1,46
EndSplineSet
EndChar

StartChar: udieresis
Encoding: 252 252 91
Width: 380
Flags: HMW
HStem: -5 53<85.5 94> 448 82<118 127.5 263 272>
VStem: 6 66 72 91<482 500.5> 198 73<67 73.5> 216 91<482 500.5>
LayerCount: 2
Fore
SplineSet
0 87 m 1,0,-1
 6 199 l 1,1,-1
 6 258 l 2,2,3
 6 306 6 306 16 316 c 128,-1,4
 26 326 26 326 51.5 345.5 c 128,-1,5
 77 365 77 365 88.5 365 c 128,-1,6
 100 365 100 365 103 361 c 128,-1,7
 106 357 106 357 106 345 c 0,8,9
 106 302 106 302 87 258 c 1,10,11
 72 166 72 166 72 107 c 128,-1,12
 72 48 72 48 91 48 c 0,13,14
 114 48 114 48 145 88 c 128,-1,15
 176 128 176 128 207 207 c 1,16,17
 216 307 216 307 221.5 315 c 128,-1,18
 227 323 227 323 249 344 c 128,-1,19
 271 365 271 365 285.5 365 c 128,-1,20
 300 365 300 365 300 327 c 0,21,22
 300 317 300 317 294.5 288 c 128,-1,23
 289 259 289 259 282 246 c 1,24,25
 271 218 271 218 271 73 c 0,26,27
 271 46 271 46 277 46 c 0,28,29
 294 47 294 47 324 88.5 c 128,-1,30
 354 130 354 130 383.5 195 c 128,-1,31
 413 260 413 260 419.5 260 c 128,-1,32
 426 260 426 260 426 252 c 0,33,34
 426 224 426 224 397 163 c 0,35,36
 318 -5 318 -5 264 -5 c 0,37,38
 225 -5 225 -5 205 11 c 1,39,40
 198 18 198 18 198 54 c 128,-1,41
 198 90 198 90 201 134 c 1,42,43
 169 66 169 66 137 30.5 c 128,-1,44
 105 -5 105 -5 65.5 -5 c 128,-1,45
 26 -5 26 -5 13 16 c 128,-1,46
 0 37 0 37 0 87 c 1,0,-1
229.5 457 m 128,-1,48
 216 466 216 466 216 486 c 128,-1,49
 216 506 216 506 235 518 c 128,-1,50
 254 530 254 530 270 530 c 128,-1,51
 286 530 286 530 296.5 521 c 128,-1,52
 307 512 307 512 307 499 c 0,53,54
 307 448 307 448 257 448 c 0,55,47
 243 448 243 448 229.5 457 c 128,-1,48
85.5 457 m 128,-1,57
 72 466 72 466 72 486 c 128,-1,58
 72 506 72 506 90.5 518 c 128,-1,59
 109 530 109 530 125 530 c 128,-1,60
 141 530 141 530 152 521 c 128,-1,61
 163 512 163 512 163 499 c 0,62,63
 163 448 163 448 112 448 c 0,64,56
 99 448 99 448 85.5 457 c 128,-1,57
EndSplineSet
EndChar

StartChar: circumflex
Encoding: 710 710 92
Width: 342
Flags: HMW
HStem: 420 21G<239 255> 555 20G<181.5 189.5>
LayerCount: 2
Fore
SplineSet
269 428 m 128,-1,1
 257 420 257 420 251 420 c 0,2,3
 199 420 199 420 164 491 c 1,4,5
 152 465 152 465 121 448 c 128,-1,6
 90 431 90 431 75.5 431 c 128,-1,7
 61 431 61 431 60 440 c 0,8,9
 60 444.272727273 60 444.272727273 68.5 448.136363636 c 128,-1,10
 77 452 77 452 85.5 457.5 c 128,-1,11
 94 463 94 463 105 473.5 c 128,-1,12
 116 484 116 484 122 489.5 c 128,-1,13
 128 495 128 495 132 505.5 c 128,-1,14
 136 516 136 516 137 518.5 c 0,15,16
 142 531 142 531 142 546 c 1,17,18
 143 554 143 554 160.5 564.5 c 128,-1,19
 178 575 178 575 186 575 c 0,20,21
 198 575 198 575 201 555.5 c 128,-1,22
 204 536 204 536 207.5 523 c 128,-1,23
 211 510 211 510 223.5 490 c 0,24,25
 239.902439024 463.756097561 239.902439024 463.756097561 265 453 c 0,26,27
 281 446.142857143 281 446.142857143 281 441.071428571 c 128,-1,0
 281 436 281 436 269 428 c 128,-1,1
EndSplineSet
EndChar

StartChar: acircumflex
Encoding: 226 226 93
Width: 372
Flags: HMW
HStem: -5 53<84.5 105> 315 40<118.5 146> 355 65<264.5 269 253 281.5> 555 20G<195.5 203.5>
VStem: -25 68<137.5 200> 190 73<67 72.5>
LayerCount: 2
Fore
SplineSet
256 -5 m 0,0,1
 217 -5 217 -5 197 11 c 1,2,3
 190 18 190 18 190 46.5 c 128,-1,4
 190 75 190 75 192 123 c 1,5,6
 166 58 166 58 140.5 26.5 c 128,-1,7
 115 -5 115 -5 75 -5 c 128,-1,8
 35 -5 35 -5 5 32.5 c 128,-1,9
 -25 70 -25 70 -25 150.5 c 128,-1,10
 -25 231 -25 231 20.5 293 c 128,-1,11
 66 355 66 355 140 355 c 0,12,13
 172 355 172 355 212 313 c 1,14,15
 220 324 220 324 240.5 339.5 c 128,-1,16
 261 355 261 355 275.5 355 c 128,-1,17
 290 355 290 355 290 317 c 0,18,19
 290 307 290 307 284.5 278 c 128,-1,20
 279 249 279 249 272 236 c 1,21,22
 263 213 263 213 263 73 c 0,23,24
 263 46 263 46 269 46 c 0,25,26
 286 47 286 47 316 88.5 c 128,-1,27
 346 130 346 130 375.5 195 c 128,-1,28
 405 260 405 260 411.5 260 c 128,-1,29
 418 260 418 260 418 252 c 0,30,31
 418 224 418 224 389 163 c 0,32,33
 310 -5 310 -5 256 -5 c 0,0,1
134 315 m 0,34,35
 106 315 106 315 74.5 273.5 c 128,-1,36
 43 232 43 232 43 176 c 128,-1,37
 43 120 43 120 59.5 84 c 128,-1,38
 76 48 76 48 103 48 c 0,39,40
 136 48 136 48 200 213 c 1,41,42
 201 221 201 221 202.5 240.5 c 128,-1,43
 204 260 204 260 205 270 c 1,44,45
 196 286 196 286 173.5 300.5 c 128,-1,46
 151 315 151 315 134 315 c 0,34,35
283 428 m 128,-1,48
 271 420 271 420 265 420 c 0,49,50
 213 420 213 420 178 491 c 1,51,52
 166 465 166 465 135 448 c 128,-1,53
 104 431 104 431 89.5 431 c 128,-1,54
 75 431 75 431 74 440 c 0,55,56
 74 444.272727273 74 444.272727273 82.5 448.136363636 c 128,-1,57
 91 452 91 452 99.5 457.5 c 128,-1,58
 108 463 108 463 119 473.5 c 128,-1,59
 130 484 130 484 136 489.5 c 128,-1,60
 142 495 142 495 146 505.5 c 128,-1,61
 150 516 150 516 151 518.5 c 0,62,63
 156 531 156 531 156 546 c 1,64,65
 157 554 157 554 174.5 564.5 c 128,-1,66
 192 575 192 575 200 575 c 0,67,68
 212 575 212 575 215 555.5 c 128,-1,69
 218 536 218 536 221.5 523 c 128,-1,70
 225 510 225 510 237.5 490 c 0,71,72
 253.902439024 463.756097561 253.902439024 463.756097561 279 453 c 0,73,74
 295 446.142857143 295 446.142857143 295 441.071428571 c 128,-1,47
 295 436 295 436 283 428 c 128,-1,48
EndSplineSet
EndChar

StartChar: ecircumflex
Encoding: 234 234 94
Width: 277
Flags: HMW
HStem: -5 52<112.5 158.5> 47 96 323 32<113.5 148> 355 65<102.5 222> 555 20G<148.5 156.5>
VStem: -16 69 37 190
LayerCount: 2
Fore
SplineSet
106 -5 m 0,0,1
 50 -5 50 -5 17 37.5 c 128,-1,2
 -16 80 -16 80 -16 134 c 0,3,4
 -16 243 -16 243 30 299 c 128,-1,5
 76 355 76 355 149 355 c 0,6,7
 183 355 183 355 205 336.5 c 128,-1,8
 227 318 227 318 227 286 c 0,9,10
 227 226 227 226 176.5 185.5 c 128,-1,11
 126 145 126 145 53 143 c 1,12,13
 57 104 57 104 79.5 75.5 c 128,-1,14
 102 47 102 47 132 47 c 128,-1,15
 162 47 162 47 186 61 c 128,-1,16
 210 75 210 75 230 101 c 0,17,18
 272.258064516 155.935483871 272.258064516 155.935483871 302.5 226.5 c 0,19,20
 310 244 310 244 314.5 252 c 128,-1,21
 319 260 319 260 324.5 260 c 128,-1,22
 330 260 330 260 330 252 c 0,23,24
 330 202.133333333 330 202.133333333 269 102.5 c 0,25,26
 203.183673469 -5 203.183673469 -5 106 -5 c 0,0,1
236 428 m 128,-1,28
 224 420 224 420 218 420 c 0,29,30
 166 420 166 420 131 491 c 1,31,32
 119 465 119 465 88 448 c 128,-1,33
 57 431 57 431 42.5 431 c 128,-1,34
 28 431 28 431 27 440 c 0,35,36
 27 444.272727273 27 444.272727273 35.5 448.136363636 c 128,-1,37
 44 452 44 452 52.5 457.5 c 128,-1,38
 61 463 61 463 72 473.5 c 128,-1,39
 83 484 83 484 89 489.5 c 128,-1,40
 95 495 95 495 99 505.5 c 128,-1,41
 103 516 103 516 104 518.5 c 0,42,43
 109 531 109 531 109 546 c 1,44,45
 110 554 110 554 127.5 564.5 c 128,-1,46
 145 575 145 575 153 575 c 0,47,48
 165 575 165 575 168 555.5 c 128,-1,49
 171 536 171 536 174.5 523 c 128,-1,50
 178 510 178 510 190.5 490 c 0,51,52
 206.902439024 463.756097561 206.902439024 463.756097561 232 453 c 0,53,54
 248 446.142857143 248 446.142857143 248 441.071428571 c 128,-1,27
 248 436 248 436 236 428 c 128,-1,28
86.5 176 m 0,55,56
 167 200.769230769 167 200.769230769 167 282 c 0,57,58
 167 323 167 323 138 323 c 0,59,60
 103 323 103 323 79 274.5 c 128,-1,61
 55 226 55 226 53 167 c 1,62,63
 57.25 167 57.25 167 86.5 176 c 0,55,56
EndSplineSet
EndChar

StartChar: icircumflex
Encoding: 238 238 95
Width: 178
Flags: HMW
HStem: -5 21G<43.5 83> 555 20G<99.5 107.5>
VStem: -6 73<67 89.5> -6 206<55.5 191.5>
LayerCount: 2
Fore
SplineSet
0.5 204.5 m 128,-1,1
 7 305 7 305 12 313 c 128,-1,2
 17 321 17 321 43 343 c 128,-1,3
 69 365 69 365 83.5 365 c 128,-1,4
 98 365 98 365 98 327 c 0,5,6
 98 317 98 317 92.5 288 c 128,-1,7
 87 259 87 259 80 246 c 1,8,9
 67 213 67 213 67 73 c 0,10,11
 67 46 67 46 73 46 c 0,12,13
 90 47 90 47 124 94.5 c 128,-1,14
 158 142 158 142 172.5 171 c 128,-1,15
 187 200 187 200 193.5 200 c 128,-1,16
 200 200 200 200 200 188 c 0,17,18
 200 163 200 163 145.5 79 c 128,-1,19
 91 -5 91 -5 60 -5 c 0,20,21
 21 -5 21 -5 1 11 c 1,22,23
 -6 18 -6 18 -6 61 c 128,-1,0
 -6 104 -6 104 0.5 204.5 c 128,-1,1
187 428 m 128,-1,25
 175 420 175 420 169 420 c 0,26,27
 117 420 117 420 82 491 c 1,28,29
 70 465 70 465 39 448 c 128,-1,30
 8 431 8 431 -6.5 431 c 128,-1,31
 -21 431 -21 431 -22 440 c 0,32,33
 -22 444.272727273 -22 444.272727273 -13.5 448.136363636 c 128,-1,34
 -5 452 -5 452 3.5 457.5 c 128,-1,35
 12 463 12 463 23 473.5 c 128,-1,36
 34 484 34 484 40 489.5 c 128,-1,37
 46 495 46 495 50 505.5 c 128,-1,38
 54 516 54 516 55 518.5 c 0,39,40
 60 531 60 531 60 546 c 1,41,42
 61 554 61 554 78.5 564.5 c 128,-1,43
 96 575 96 575 104 575 c 0,44,45
 116 575 116 575 119 555.5 c 128,-1,46
 122 536 122 536 125.5 523 c 128,-1,47
 129 510 129 510 141.5 490 c 0,48,49
 157.902439024 463.756097561 157.902439024 463.756097561 183 453 c 0,50,51
 199 446.142857143 199 446.142857143 199 441.071428571 c 128,-1,24
 199 436 199 436 187 428 c 128,-1,25
EndSplineSet
EndChar

StartChar: ocircumflex
Encoding: 244 244 96
Width: 352
Flags: HMW
HStem: -5 45<105 159.5 105 159.5> 40 124<159 159.5> 164 39<194 195> 203 119 322 23 365 55<172 259> 555 20G<185.5 193.5>
VStem: -23 71<132.5 186.5 132.5 195.5> 82 50<262.5 268> 227 65<204 234 221 230.5>
LayerCount: 2
Fore
SplineSet
292 221 m 1,0,1
 330 236 330 236 355 250 c 128,-1,2
 380 264 380 264 382 264 c 0,3,4
 388 264 388 264 388 254 c 128,-1,5
 388 244 388 244 360 223.5 c 128,-1,6
 332 203 332 203 289 187 c 1,7,8
 279 102 279 102 231.5 48.5 c 128,-1,9
 184 -5 184 -5 103 -5 c 0,10,11
 43 -5 43 -5 10 40 c 128,-1,12
 -23 85 -23 85 -23 154 c 128,-1,13
 -23 223 -23 223 17.5 284 c 128,-1,14
 58 345 58 345 122 345 c 1,15,16
 148 365 148 365 188.5 365 c 128,-1,17
 229 365 229 365 260.5 328.5 c 128,-1,18
 292 292 292 292 292 234 c 2,19,-1
 292 221 l 1,0,1
126 40 m 0,20,21
 209 40 209 40 224 167 c 1,22,23
 206 164 206 164 190 164 c 0,24,25
 144 164 144 164 113 191.5 c 128,-1,26
 82 219 82 219 82 252.5 c 128,-1,27
 82 286 82 286 93 308 c 1,28,29
 69 288 69 288 58.5 247 c 128,-1,30
 48 206 48 206 48 160.5 c 128,-1,31
 48 115 48 115 71 77.5 c 128,-1,32
 94 40 94 40 126 40 c 0,20,21
273 428 m 128,-1,34
 261 420 261 420 255 420 c 0,35,36
 203 420 203 420 168 491 c 1,37,38
 156 465 156 465 125 448 c 128,-1,39
 94 431 94 431 79.5 431 c 128,-1,40
 65 431 65 431 64 440 c 0,41,42
 64 444.272727273 64 444.272727273 72.5 448.136363636 c 128,-1,43
 81 452 81 452 89.5 457.5 c 128,-1,44
 98 463 98 463 109 473.5 c 128,-1,45
 120 484 120 484 126 489.5 c 128,-1,46
 132 495 132 495 136 505.5 c 128,-1,47
 140 516 140 516 141 518.5 c 0,48,49
 146 531 146 531 146 546 c 1,50,51
 147 554 147 554 164.5 564.5 c 128,-1,52
 182 575 182 575 190 575 c 0,53,54
 202 575 202 575 205 555.5 c 128,-1,55
 208 536 208 536 211.5 523 c 128,-1,56
 215 510 215 510 227.5 490 c 0,57,58
 243.902439024 463.756097561 243.902439024 463.756097561 269 453 c 0,59,60
 285 446.142857143 285 446.142857143 285 441.071428571 c 128,-1,33
 285 436 285 436 273 428 c 128,-1,34
227 204 m 1,61,-1
 227 209 l 2,62,63
 227 249 227 249 211 290.5 c 128,-1,64
 195 332 195 332 167 332 c 0,65,66
 151 332 151 332 141.5 317.5 c 128,-1,67
 132 303 132 303 132 286 c 0,68,69
 132 251 132 251 157 227 c 128,-1,70
 182 203 182 203 216 203 c 0,71,72
 223 203 223 203 227 204 c 1,61,-1
EndSplineSet
EndChar

StartChar: ucircumflex
Encoding: 251 251 97
Width: 380
Flags: HMW
HStem: -5 53<85.5 94> 365 55<257 291.5> 555 20G<199.5 207.5>
VStem: 6 66 198 73<67 73.5>
LayerCount: 2
Fore
SplineSet
0 87 m 1,0,-1
 6 199 l 1,1,-1
 6 258 l 2,2,3
 6 306 6 306 16 316 c 128,-1,4
 26 326 26 326 51.5 345.5 c 128,-1,5
 77 365 77 365 88.5 365 c 128,-1,6
 100 365 100 365 103 361 c 128,-1,7
 106 357 106 357 106 345 c 0,8,9
 106 302 106 302 87 258 c 1,10,11
 72 166 72 166 72 107 c 128,-1,12
 72 48 72 48 91 48 c 0,13,14
 114 48 114 48 145 88 c 128,-1,15
 176 128 176 128 207 207 c 1,16,17
 216 307 216 307 221.5 315 c 128,-1,18
 227 323 227 323 249 344 c 128,-1,19
 271 365 271 365 285.5 365 c 128,-1,20
 300 365 300 365 300 327 c 0,21,22
 300 317 300 317 294.5 288 c 128,-1,23
 289 259 289 259 282 246 c 1,24,25
 271 218 271 218 271 73 c 0,26,27
 271 46 271 46 277 46 c 0,28,29
 294 47 294 47 324 88.5 c 128,-1,30
 354 130 354 130 383.5 195 c 128,-1,31
 413 260 413 260 419.5 260 c 128,-1,32
 426 260 426 260 426 252 c 0,33,34
 426 224 426 224 397 163 c 0,35,36
 318 -5 318 -5 264 -5 c 0,37,38
 225 -5 225 -5 205 11 c 1,39,40
 198 18 198 18 198 54 c 128,-1,41
 198 90 198 90 201 134 c 1,42,43
 169 66 169 66 137 30.5 c 128,-1,44
 105 -5 105 -5 65.5 -5 c 128,-1,45
 26 -5 26 -5 13 16 c 128,-1,46
 0 37 0 37 0 87 c 1,0,-1
287 428 m 128,-1,48
 275 420 275 420 269 420 c 0,49,50
 217 420 217 420 182 491 c 1,51,52
 170 465 170 465 139 448 c 128,-1,53
 108 431 108 431 93.5 431 c 128,-1,54
 79 431 79 431 78 440 c 0,55,56
 78 444.272727273 78 444.272727273 86.5 448.136363636 c 128,-1,57
 95 452 95 452 103.5 457.5 c 128,-1,58
 112 463 112 463 123 473.5 c 128,-1,59
 134 484 134 484 140 489.5 c 128,-1,60
 146 495 146 495 150 505.5 c 128,-1,61
 154 516 154 516 155 518.5 c 0,62,63
 160 531 160 531 160 546 c 1,64,65
 161 554 161 554 178.5 564.5 c 128,-1,66
 196 575 196 575 204 575 c 0,67,68
 216 575 216 575 219 555.5 c 128,-1,69
 222 536 222 536 225.5 523 c 128,-1,70
 229 510 229 510 241.5 490 c 0,71,72
 257.902439024 463.756097561 257.902439024 463.756097561 283 453 c 0,73,74
 299 446.142857143 299 446.142857143 299 441.071428571 c 128,-1,47
 299 436 299 436 287 428 c 128,-1,48
EndSplineSet
EndChar

StartChar: ydieresis
Encoding: 255 255 98
Width: 345
Flags: HMW
HStem: -320 36<105 139.5 105 158.5> -5 53<75.5 85.5> 448 82<101 110.5 246 255>
VStem: -5 79 12 62<-228 -191.5> 55 91<482 500.5> 183 66 199 91<482 500.5>
LayerCount: 2
Fore
SplineSet
-5 87 m 1,0,-1
 1 199 l 1,1,-1
 1 258 l 2,2,3
 1 306 1 306 11 316 c 128,-1,4
 21 326 21 326 46.5 345.5 c 128,-1,5
 72 365 72 365 83.5 365 c 128,-1,6
 95 365 95 365 98 361 c 128,-1,7
 101 357 101 357 101 345 c 0,8,9
 101 302 101 302 82 258 c 1,10,11
 67 166 67 166 67 107 c 128,-1,12
 67 48 67 48 81 48 c 0,13,14
 105 48 105 48 136.5 90.5 c 128,-1,15
 168 133 168 133 201 216 c 1,16,17
 202 238 202 238 203 262.5 c 128,-1,18
 204 287 204 287 205 298.5 c 128,-1,19
 206 310 206 310 206.5 315 c 128,-1,20
 207 320 207 320 234 342.5 c 128,-1,21
 261 365 261 365 275.5 365 c 128,-1,22
 290 365 290 365 290 327 c 0,23,24
 290 317 290 317 284.5 288 c 128,-1,25
 279 259 279 259 272 246 c 1,26,27
 261 151 261 151 261 122 c 1,28,29
 359 246 359 246 365.5 253 c 128,-1,30
 372 260 372 260 377 260 c 0,31,32
 387 260 387 260 387 250 c 0,33,34
 387 244 387 244 383 237 c 0,35,36
 351 190 351 190 257 72 c 1,37,38
 251 -47 251 -47 249 -90 c 0,39,40
 244 -217 244 -217 213.5 -268.5 c 128,-1,41
 183 -320 183 -320 105 -320 c 0,42,43
 71 -320 71 -320 41.5 -299.5 c 128,-1,44
 12 -279 12 -279 12 -228.5 c 128,-1,45
 12 -178 12 -178 50.5 -125 c 128,-1,46
 89 -72 89 -72 191 38 c 1,47,-1
 197 147 l 1,48,49
 163 72 163 72 130 33.5 c 128,-1,50
 97 -5 97 -5 57 -5 c 128,-1,51
 17 -5 17 -5 6 15 c 128,-1,52
 -5 35 -5 35 -5 87 c 1,0,-1
188 -9 m 1,53,54
 74 -132 74 -132 74 -206 c 0,55,56
 74 -240 74 -240 86 -262 c 128,-1,57
 98 -284 98 -284 119.5 -284 c 128,-1,58
 141 -284 141 -284 152.5 -266 c 0,59,60
 177.267181467 -227.233976834 177.267181467 -227.233976834 188 -9 c 1,53,54
212.5 457 m 128,-1,62
 199 466 199 466 199 486 c 128,-1,63
 199 506 199 506 218 518 c 128,-1,64
 237 530 237 530 253 530 c 128,-1,65
 269 530 269 530 279.5 521 c 128,-1,66
 290 512 290 512 290 499 c 0,67,68
 290 448 290 448 240 448 c 0,69,61
 226 448 226 448 212.5 457 c 128,-1,62
68.5 457 m 128,-1,71
 55 466 55 466 55 486 c 128,-1,72
 55 506 55 506 73.5 518 c 128,-1,73
 92 530 92 530 108 530 c 128,-1,74
 124 530 124 530 135 521 c 128,-1,75
 146 512 146 512 146 499 c 0,76,77
 146 448 146 448 95 448 c 0,78,70
 82 448 82 448 68.5 457 c 128,-1,71
EndSplineSet
EndChar

StartChar: tilde
Encoding: 732 732 99
Width: 340
Flags: HMW
HStem: 460 21G<199.5 235> 464 63 498 62<84 109.5> 548 20G<272.5 286.5>
LayerCount: 2
Fore
SplineSet
237 527 m 0,0,1
 252 527 252 527 263 547.5 c 128,-1,2
 274 568 274 568 281 568 c 0,3,4
 298 568 298 568 298 543.5 c 0,5,6
 298 519 298 519 271.5 489.5 c 128,-1,7
 245 460 245 460 212 460 c 0,8,9
 201 460 201 460 156 479 c 128,-1,10
 111 498 111 498 91 498 c 0,11,12
 84 498 84 498 77.5 481 c 128,-1,13
 71 464 71 464 62 464 c 0,14,15
 41 464 41 464 41 487.5 c 0,16,17
 41 511 41 511 57 535.5 c 128,-1,18
 73 560 73 560 94 560 c 0,19,20
 115 560 115 560 173.5 543.5 c 128,-1,21
 232 527 232 527 237 527 c 0,0,1
EndSplineSet
EndChar

StartChar: ntilde
Encoding: 241 241 100
Width: 380
Flags: HMW
HStem: -5 21G<48.5 68.5 245.5 281.5> 464 63 498 62<94 119.5> 548 20G<282.5 296.5>
VStem: 5 72 77 130 207 62
LayerCount: 2
Fore
SplineSet
77 54 m 2,0,-1
 78 23 l 2,1,2
 78 -5 78 -5 62 -5 c 0,3,4
 38 -5 38 -5 16 1.5 c 128,-1,5
 -6 8 -6 8 -6 19.5 c 128,-1,6
 -6 31 -6 31 -0.5 98.5 c 128,-1,7
 5 166 5 166 5 200 c 2,8,-1
 5 259 l 2,9,10
 5 307 5 307 15 317 c 128,-1,11
 25 327 25 327 50.5 346 c 128,-1,12
 76 365 76 365 87.5 365 c 128,-1,13
 99 365 99 365 102 361 c 128,-1,14
 105 357 105 357 105 346 c 0,15,16
 105 293 105 293 85 246 c 1,17,18
 80 188 80 188 80 167 c 1,19,20
 84 173 84 173 122 235 c 128,-1,21
 160 297 160 297 186.5 326 c 128,-1,22
 213 355 213 355 234 355 c 128,-1,23
 255 355 255 355 271.5 341 c 128,-1,24
 288 327 288 327 288 306 c 0,25,26
 288 262 288 262 278.5 176.5 c 128,-1,27
 269 91 269 91 269 68.5 c 128,-1,28
 269 46 269 46 275 46 c 0,29,30
 292 47 292 47 322 88.5 c 128,-1,31
 352 130 352 130 381.5 195 c 128,-1,32
 411 260 411 260 417.5 260 c 128,-1,33
 424 260 424 260 424 252 c 0,34,35
 424 224 424 224 395 163 c 0,36,37
 316 -5 316 -5 262 -5 c 0,38,39
 223 -5 223 -5 203 11 c 1,40,41
 196 18 196 18 196 47.5 c 128,-1,42
 196 77 196 77 201.5 143.5 c 128,-1,43
 207 210 207 210 207 243 c 128,-1,44
 207 276 207 276 195.5 276 c 128,-1,45
 184 276 184 276 135 207.5 c 128,-1,46
 86 139 86 139 83 120 c 0,47,48
 77 85 77 85 77 54 c 2,0,-1
247 527 m 0,49,50
 262 527 262 527 273 547.5 c 128,-1,51
 284 568 284 568 291 568 c 0,52,53
 308 568 308 568 308 543.5 c 128,-1,54
 308 519 308 519 281.5 489.5 c 128,-1,55
 255 460 255 460 222 460 c 0,56,57
 211 460 211 460 166 479 c 128,-1,58
 121 498 121 498 101 498 c 0,59,60
 94 498 94 498 87.5 481 c 128,-1,61
 81 464 81 464 72 464 c 0,62,63
 51 464 51 464 51 487.5 c 128,-1,64
 51 511 51 511 67 535.5 c 128,-1,65
 83 560 83 560 104 560 c 128,-1,66
 125 560 125 560 183.5 543.5 c 128,-1,67
 242 527 242 527 247 527 c 0,49,50
EndSplineSet
EndChar

StartChar: atilde
Encoding: 227 227 101
Width: 372
Flags: HMW
HStem: -5 53<84.5 105> 315 40<118.5 146> 464 63 498 62<90 115.5> 548 20G<278.5 292.5>
VStem: -25 68<137.5 200> 190 73<67 72.5>
LayerCount: 2
Fore
SplineSet
256 -5 m 0,0,1
 217 -5 217 -5 197 11 c 1,2,3
 190 18 190 18 190 46.5 c 0,4,5
 190 75 190 75 192 123 c 1,6,7
 166 58 166 58 140.5 26.5 c 128,-1,8
 115 -5 115 -5 75 -5 c 0,9,10
 35 -5 35 -5 5 32.5 c 128,-1,11
 -25 70 -25 70 -25 150.5 c 0,12,13
 -25 231 -25 231 20.5 293 c 128,-1,14
 66 355 66 355 140 355 c 0,15,16
 172 355 172 355 212 313 c 1,17,18
 220 324 220 324 240.5 339.5 c 128,-1,19
 261 355 261 355 275.5 355 c 0,20,21
 290 355 290 355 290 317 c 0,22,23
 290 307 290 307 284.5 278 c 128,-1,24
 279 249 279 249 272 236 c 1,25,26
 263 213 263 213 263 73 c 0,27,28
 263 46 263 46 269 46 c 0,29,30
 286 47 286 47 316 88.5 c 128,-1,31
 346 130 346 130 375.5 195 c 0,32,33
 405 260 405 260 411.5 260 c 0,34,35
 418 260 418 260 418 252 c 0,36,37
 418 224 418 224 389 163 c 0,38,39
 310 -5 310 -5 256 -5 c 0,0,1
134 315 m 0,40,41
 106 315 106 315 74.5 273.5 c 128,-1,42
 43 232 43 232 43 176 c 0,43,44
 43 120 43 120 59.5 84 c 128,-1,45
 76 48 76 48 103 48 c 0,46,47
 136 48 136 48 200 213 c 1,48,49
 201 221 201 221 202.5 240.5 c 128,-1,50
 204 260 204 260 205 270 c 1,51,52
 196 286 196 286 173.5 300.5 c 128,-1,53
 151 315 151 315 134 315 c 0,40,41
243 527 m 0,54,55
 258 527 258 527 269 547.5 c 128,-1,56
 280 568 280 568 287 568 c 0,57,58
 304 568 304 568 304 543.5 c 0,59,60
 304 519 304 519 277.5 489.5 c 128,-1,61
 251 460 251 460 218 460 c 0,62,63
 207 460 207 460 162 479 c 128,-1,64
 117 498 117 498 97 498 c 0,65,66
 90 498 90 498 83.5 481 c 128,-1,67
 77 464 77 464 68 464 c 0,68,69
 47 464 47 464 47 487.5 c 0,70,71
 47 511 47 511 63 535.5 c 128,-1,72
 79 560 79 560 100 560 c 0,73,74
 121 560 121 560 179.5 543.5 c 128,-1,75
 238 527 238 527 243 527 c 0,54,55
EndSplineSet
EndChar

StartChar: otilde
Encoding: 245 245 102
Width: 352
Flags: HMW
HStem: -5 45<105 159.5 105 159.5> 164 39<194 195> 203 129<155 217.5> 332 33<172 187.5> 464 63 498 62<81 106.5> 548 20G<269.5 283.5>
VStem: -23 71<132.5 186.5 132.5 195.5> 48 247 82 50<262.5 268> 132 95<204 295.5> 227 65<204 234 221 230.5>
LayerCount: 2
Fore
SplineSet
292 221 m 1,0,1
 330 236 330 236 355 250 c 128,-1,2
 380 264 380 264 382 264 c 0,3,4
 388 264 388 264 388 254 c 128,-1,5
 388 244 388 244 360 223.5 c 128,-1,6
 332 203 332 203 289 187 c 1,7,8
 279 102 279 102 231.5 48.5 c 128,-1,9
 184 -5 184 -5 103 -5 c 0,10,11
 43 -5 43 -5 10 40 c 128,-1,12
 -23 85 -23 85 -23 154 c 128,-1,13
 -23 223 -23 223 17.5 284 c 128,-1,14
 58 345 58 345 122 345 c 1,15,16
 148 365 148 365 188.5 365 c 128,-1,17
 229 365 229 365 260.5 328.5 c 128,-1,18
 292 292 292 292 292 234 c 2,19,-1
 292 221 l 1,0,1
126 40 m 0,20,21
 209 40 209 40 224 167 c 1,22,23
 206 164 206 164 190 164 c 0,24,25
 144 164 144 164 113 191.5 c 128,-1,26
 82 219 82 219 82 252.5 c 128,-1,27
 82 286 82 286 93 308 c 1,28,29
 69 288 69 288 58.5 247 c 128,-1,30
 48 206 48 206 48 160.5 c 128,-1,31
 48 115 48 115 71 77.5 c 128,-1,32
 94 40 94 40 126 40 c 0,20,21
234 527 m 0,33,34
 249 527 249 527 260 547.5 c 128,-1,35
 271 568 271 568 278 568 c 0,36,37
 295 568 295 568 295 543.5 c 128,-1,38
 295 519 295 519 268.5 489.5 c 128,-1,39
 242 460 242 460 209 460 c 0,40,41
 198 460 198 460 153 479 c 128,-1,42
 108 498 108 498 88 498 c 0,43,44
 81 498 81 498 74.5 481 c 128,-1,45
 68 464 68 464 59 464 c 0,46,47
 38 464 38 464 38 487.5 c 128,-1,48
 38 511 38 511 54 535.5 c 128,-1,49
 70 560 70 560 91 560 c 128,-1,50
 112 560 112 560 170.5 543.5 c 128,-1,51
 229 527 229 527 234 527 c 0,33,34
227 204 m 1,52,-1
 227 209 l 2,53,54
 227 249 227 249 211 290.5 c 128,-1,55
 195 332 195 332 167 332 c 0,56,57
 151 332 151 332 141.5 317.5 c 128,-1,58
 132 303 132 303 132 286 c 0,59,60
 132 251 132 251 157 227 c 128,-1,61
 182 203 182 203 216 203 c 0,62,63
 223 203 223 203 227 204 c 1,52,-1
EndSplineSet
EndChar

StartChar: ccedilla
Encoding: 231 231 103
Width: 270
Flags: HMW
HStem: -150 34<75.5 80.5 64.5 102.5> -5 52 224 131<173 182 111.5 192> 323 32<120 154>
VStem: -16 71<125.5 188.5 125.5 201.5> 31 126<-133.5 -56.5> 71 86<-97.5 -18.5> 103 54<-91 -61> 171 57<284.5 301>
LayerCount: 2
Fore
SplineSet
163 243 m 1,0,-1
 171 294 l 1,1,2
 171 305 171 305 164 314 c 128,-1,3
 157 323 157 323 146 323 c 0,4,5
 109 323 109 323 82 267.5 c 128,-1,6
 55 212 55 212 55 161 c 128,-1,7
 55 110 55 110 76 78.5 c 128,-1,8
 97 47 97 47 127.5 47 c 128,-1,9
 158 47 158 47 182 61 c 128,-1,10
 206 75 206 75 226 101 c 0,11,12
 268.258064516 155.935483871 268.258064516 155.935483871 298.5 226.5 c 0,13,14
 306 244 306 244 310.5 252 c 128,-1,15
 315 260 315 260 320.5 260 c 128,-1,16
 326 260 326 260 326 252 c 0,17,18
 326 219 326 219 294 154.5 c 128,-1,19
 262 90 262 90 219.5 45 c 128,-1,20
 177 0 177 0 113 -4 c 1,21,22
 109 -7 109 -7 109 -12 c 128,-1,23
 109 -17 109 -17 121 -25 c 0,24,25
 157 -49 157 -49 157 -78 c 128,-1,26
 157 -107 157 -107 134.5 -128.5 c 128,-1,27
 112 -150 112 -150 90 -150 c 128,-1,28
 68 -150 68 -150 49.5 -143 c 128,-1,29
 31 -136 31 -136 31 -125 c 0,30,31
 31 -107 31 -107 47 -107 c 0,32,33
 50 -107 50 -107 57 -111.5 c 128,-1,34
 64 -116 64 -116 74.5 -116 c 128,-1,35
 85 -116 85 -116 94 -106 c 128,-1,36
 103 -96 103 -96 103 -77 c 128,-1,37
 103 -58 103 -58 87 -42 c 128,-1,38
 71 -26 71 -26 71 -20 c 128,-1,39
 71 -14 71 -14 78 -3 c 1,40,41
 31 5 31 5 7.5 42.5 c 128,-1,42
 -16 80 -16 80 -16 122 c 0,43,44
 -16 236 -16 236 33.5 295.5 c 128,-1,45
 83 355 83 355 159 355 c 0,46,47
 191 355 191 355 209.5 338.5 c 128,-1,48
 228 322 228 322 228 301 c 0,49,50
 228 262 228 262 214 243 c 128,-1,51
 200 224 200 224 180 224 c 0,52,53
 163 224 163 224 163 243 c 1,0,-1
EndSplineSet
EndChar

StartChar: Ccedilla
Encoding: 199 199 104
Width: 386
Flags: HMW
HStem: -150 34<135.5 140.5 124.5 162.5> -10 55 369 211<303.5 311 200 334> 543 37<200 282>
VStem: -26 77<190 302.5 190 313.5> 91 126<-133.5 -56.5> 131 86<-97.5 -19.5> 163 54<-91 -61> 285 101<378.5 510.5> 324 62<458 485>
LayerCount: 2
Fore
SplineSet
324 472 m 0,0,1
 324 543 324 543 248.5 543 c 128,-1,2
 173 543 173 543 112 442 c 128,-1,3
 51 341 51 341 51 234 c 0,4,5
 51 160 51 160 93 102.5 c 128,-1,6
 135 45 135 45 211 45 c 0,7,8
 268 45 268 45 317.5 85.5 c 128,-1,9
 367 126 367 126 383 158.5 c 128,-1,10
 399 191 399 191 412 191 c 0,11,12
 420 191 420 191 420 182 c 128,-1,13
 420 173 420 173 411.5 153 c 128,-1,14
 403 133 403 133 383 106 c 128,-1,15
 363 79 363 79 335.5 54.5 c 128,-1,16
 308 30 308 30 264 12 c 128,-1,17
 220 -6 220 -6 169 -9 c 1,18,19
 169 -16 169 -16 181 -24.5 c 0,20,21
 217 -50 217 -50 217 -78.5 c 128,-1,22
 217 -107 217 -107 194.5 -128.5 c 128,-1,23
 172 -150 172 -150 150 -150 c 128,-1,24
 128 -150 128 -150 109.5 -143 c 128,-1,25
 91 -136 91 -136 91 -125 c 0,26,27
 91 -107 91 -107 107 -107 c 0,28,29
 110 -107 110 -107 117 -111.5 c 128,-1,30
 124 -116 124 -116 134.5 -116 c 128,-1,31
 145 -116 145 -116 154 -106 c 128,-1,32
 163 -96 163 -96 163 -77 c 128,-1,33
 163 -58 163 -58 147 -42 c 128,-1,34
 131 -26 131 -26 131 -20.5 c 128,-1,35
 131 -15 131 -15 134 -9 c 1,36,37
 59 -1 59 -1 16.5 62 c 128,-1,38
 -26 125 -26 125 -26 193 c 0,39,40
 -26 367 -26 367 64.5 473.5 c 128,-1,41
 155 580 155 580 279 580 c 0,42,43
 326 580 326 580 356 552.5 c 128,-1,44
 386 525 386 525 386 483 c 128,-1,45
 386 441 386 441 365 405 c 128,-1,46
 344 369 344 369 314.5 369 c 128,-1,47
 285 369 285 369 285 385 c 0,48,49
 285 403 285 403 304.5 426 c 128,-1,50
 324 449 324 449 324 472 c 0,0,1
EndSplineSet
EndChar

StartChar: Ntilde
Encoding: 209 209 105
Width: 495
Flags: HMW
HStem: -15 21G<27 51.5> 519 91<544.5 601> 555 55<544.5 553> 610 62 651 54 693 20G<453.5 467.5>
VStem: 159 83<475 491.5 473 499.5> 291 29<86 118 86 122.5> 350 70<62 80.5>
LayerCount: 2
Fore
SplineSet
184 176 m 128,-1,1
 153 76 153 76 118 30.5 c 128,-1,2
 83 -15 83 -15 35 -15 c 0,3,4
 0 -15 0 -15 0 12 c 0,5,6
 0 34 0 34 15 43 c 128,-1,7
 30 52 30 52 50.5 56.5 c 128,-1,8
 71 61 71 61 77 67 c 0,9,10
 115 107 115 107 150.5 208.5 c 128,-1,11
 186 310 186 310 202 412 c 1,12,13
 159 461 159 461 159 486 c 128,-1,14
 159 511 159 511 175 545.5 c 128,-1,15
 191 580 191 580 213 580 c 0,16,17
 224 580 224 580 233 542.5 c 128,-1,18
 242 505 242 505 242 473 c 1,19,20
 299 402 299 402 334 344 c 1,21,22
 376 473 376 473 437.5 541.5 c 128,-1,23
 499 610 499 610 565 610 c 0,24,25
 590 610 590 610 604.5 593.5 c 128,-1,26
 619 577 619 577 619 559.5 c 128,-1,27
 619 542 619 542 611.5 530.5 c 128,-1,28
 604 519 604 519 592.5 519 c 128,-1,29
 581 519 581 519 577 531 c 0,30,31
 569 555 569 555 545 555 c 0,32,33
 508 555 508 555 473 519 c 0,34,35
 404 448 404 448 357 301 c 1,36,37
 420 163 420 163 420 76 c 0,38,39
 420 40 420 40 404 15 c 128,-1,40
 388 -10 388 -10 357 -10 c 0,41,42
 291 -10 291 -10 291 102 c 0,43,44
 291 169 291 169 307 242 c 1,45,46
 266 330 266 330 231 374 c 1,47,0
 215 276 215 276 184 176 c 128,-1,1
328 185 m 1,48,49
 320 139 320 139 320 113 c 128,-1,50
 320 87 320 87 323 69 c 0,51,52
 329.166666667 32 329.166666667 32 336.083333333 32 c 128,-1,53
 343 32 343 32 346.5 44.5 c 128,-1,54
 350 57 350 57 350 65 c 0,55,56
 350 112 350 112 328 185 c 1,48,49
418 672 m 0,57,58
 433 672 433 672 444 692.5 c 128,-1,59
 455 713 455 713 462 713 c 0,60,61
 479 713 479 713 479 688.5 c 128,-1,62
 479 664 479 664 452.5 634.5 c 128,-1,63
 426 605 426 605 393 605 c 0,64,65
 382 605 382 605 337 624 c 128,-1,66
 292 643 292 643 272 643 c 0,67,68
 265 643 265 643 258.5 626 c 128,-1,69
 252 609 252 609 243 609 c 0,70,71
 222 609 222 609 222 632.5 c 128,-1,72
 222 656 222 656 238 680.5 c 128,-1,73
 254 705 254 705 275 705 c 128,-1,74
 296 705 296 705 354.5 688.5 c 128,-1,75
 413 672 413 672 418 672 c 0,57,58
EndSplineSet
EndChar

StartChar: Adieresis
Encoding: 196 196 106
Width: 501
Flags: HMW
HStem: -5 51<391 406> 185 47 489 91<282.5 343> 623 82<259 268.5 404 413>
VStem: 213 91<657 675.5> 307 69 307 216 357 91<657 675.5>
LayerCount: 2
Fore
SplineSet
328 580 m 0,0,1
 348 580 348 580 358.5 497 c 128,-1,2
 369 414 369 414 379 237 c 1,3,4
 395 237 395 237 395 227 c 128,-1,5
 395 217 395 217 380 210 c 1,6,7
 386 46 386 46 396 46 c 0,8,9
 413 46 413 46 446.5 94 c 128,-1,10
 480 142 480 142 495 171 c 128,-1,11
 510 200 510 200 516.5 200 c 128,-1,12
 523 200 523 200 523 188 c 0,13,14
 523 163 523 163 468.5 79 c 128,-1,15
 414 -5 414 -5 383 -5 c 0,16,17
 337 -5 337 -5 317 11 c 1,18,19
 308 20 308 20 308 201 c 1,20,-1
 144 189 l 1,21,22
 125 137 125 137 110 85 c 128,-1,23
 95 33 95 33 90 21 c 0,24,25
 79 -5 79 -5 37 -5 c 0,26,27
 9 -5 9 -5 9 19 c 128,-1,28
 9 43 9 43 47 89 c 0,29,30
 54 98 54 98 93 186 c 1,31,32
 79 185 79 185 66 185 c 0,33,34
 31 185 31 185 31 215 c 0,35,36
 31 242 31 242 59 242 c 0,37,38
 61 242 61 242 116 237 c 1,39,40
 161 344 161 344 230 462 c 128,-1,41
 299 580 299 580 328 580 c 0,0,1
159 232 m 1,42,43
 276 232 276 232 308 233 c 1,44,45
 307 249 307 249 306 289 c 128,-1,46
 305 329 305 329 304 358.5 c 128,-1,47
 303 388 303 388 301.5 420.5 c 0,48,49
 298.338461538 489 298.338461538 489 290 489 c 0,50,51
 279 489 279 489 231 396 c 128,-1,52
 183 303 183 303 159 232 c 1,42,43
370.5 632 m 128,-1,54
 357 641 357 641 357 661 c 128,-1,55
 357 681 357 681 376 693 c 128,-1,56
 395 705 395 705 411 705 c 128,-1,57
 427 705 427 705 437.5 696 c 128,-1,58
 448 687 448 687 448 674 c 0,59,60
 448 623 448 623 398 623 c 0,61,53
 384 623 384 623 370.5 632 c 128,-1,54
226.5 632 m 128,-1,63
 213 641 213 641 213 661 c 128,-1,64
 213 681 213 681 231.5 693 c 128,-1,65
 250 705 250 705 266 705 c 128,-1,66
 282 705 282 705 293 696 c 128,-1,67
 304 687 304 687 304 674 c 0,68,69
 304 623 304 623 253 623 c 0,70,62
 240 623 240 623 226.5 632 c 128,-1,63
EndSplineSet
EndChar

StartChar: Eacute
Encoding: 201 201 107
Width: 442
Flags: HMW
HStem: -15 41<196.5 256.5> 280 23<254 274> 344 29<241 247.5> 454 146<247.5 354> 569 31<247.5 296> 762 20G<328 341>
VStem: 22 80<147 189> 77 25 77 72<414 468 414 482> 300 68<731 738.5> 334 56<509.5 529>
LayerCount: 2
Fore
SplineSet
277 569 m 0,0,1
 220 569 220 569 184.5 529 c 128,-1,2
 149 489 149 489 149 437.5 c 128,-1,3
 149 386 149 386 173 354 c 1,4,5
 216 373 216 373 253.5 373 c 128,-1,6
 291 373 291 373 313.5 360.5 c 128,-1,7
 336 348 336 348 336 325 c 0,8,9
 336 280 336 280 267.5 280 c 128,-1,10
 199 280 199 280 153 303 c 1,11,12
 130 278 130 278 116 244.5 c 128,-1,13
 102 211 102 211 102 183 c 0,14,15
 102 124 102 124 140 75 c 128,-1,16
 178 26 178 26 241 26 c 0,17,18
 330.379310345 26 330.379310345 26 416 121.5 c 0,19,20
 440.655172414 149 440.655172414 149 446.827586207 149 c 128,-1,21
 453 149 453 149 453 141 c 128,-1,22
 453 133 453 133 448 125 c 0,23,24
 396 49 396 49 339.5 17 c 128,-1,25
 283 -15 283 -15 200.5 -15 c 128,-1,26
 118 -15 118 -15 70 34 c 128,-1,27
 22 83 22 83 22 156 c 0,28,29
 22 203 22 203 50 247.5 c 128,-1,30
 78 292 78 292 122 324 c 1,31,32
 77 361 77 361 77 419.5 c 128,-1,33
 77 478 77 478 113.5 521 c 0,34,35
 180.558139535 600 180.558139535 600 290 600 c 0,36,37
 341 600 341 600 365.5 576.5 c 128,-1,38
 390 553 390 553 390 522 c 128,-1,39
 390 491 390 491 376 472.5 c 128,-1,40
 362 454 362 454 342 454 c 0,41,42
 325 454 325 454 325 473 c 0,43,44
 325 479 325 479 329.5 494 c 128,-1,45
 334 509 334 509 334 522.5 c 128,-1,46
 334 536 334 536 318.5 552.5 c 128,-1,47
 303 569 303 569 277 569 c 0,0,1
300 731 m 0,48,49
 300 739 300 739 295 746.5 c 128,-1,50
 290 754 290 754 290 759 c 128,-1,51
 290 764 290 764 307.5 773 c 128,-1,52
 325 782 325 782 336 782 c 128,-1,53
 347 782 347 782 357.5 770 c 128,-1,54
 368 758 368 758 368 736 c 0,55,56
 368 702 368 702 325 670 c 0,57,58
 305 655 305 655 278.5 644 c 128,-1,59
 252 633 252 633 239.5 633 c 128,-1,60
 227 633 227 633 227 642 c 0,61,62
 227 647 227 647 241 655 c 1,63,64
 299 683 299 683 300 731 c 0,48,49
268 303 m 0,65,66
 277 303 277 303 282 307.5 c 128,-1,67
 287 312 287 312 287 315 c 0,68,69
 287 327 287 327 271 335.5 c 128,-1,70
 255 344 255 344 233.5 344 c 128,-1,71
 212 344 212 344 192 333 c 1,72,73
 225 303 225 303 268 303 c 0,65,66
EndSplineSet
EndChar

StartChar: Odieresis
Encoding: 214 214 108
Width: 601
Flags: HMW
HStem: -10 51<216 295.5> 41 113<216 432> 154 33<365.5 432> 492 34<275.5 289.5 258 307.5> 526 43<263.5 289.5> 569 41<263.5 343> 663 82<258 267.5 423 432>
VStem: 21 70<202.5 266> 116 41 303 73<697 715.5 685 723> 456 78<319.5 360>
LayerCount: 2
Fore
SplineSet
21 223 m 0,0,1
 21 290 21 290 46.5 355.5 c 128,-1,2
 72 421 72 421 120 464 c 1,3,4
 132 529 132 529 182.5 569.5 c 128,-1,5
 233 610 233 610 327 610 c 128,-1,6
 421 610 421 610 477.5 536.5 c 128,-1,7
 534 463 534 463 534 345 c 0,8,9
 534 268 534 268 511 199 c 1,10,11
 557 215 557 215 594.5 239.5 c 128,-1,12
 632 264 632 264 633 264 c 0,13,14
 644 264 644 264 644 251 c 0,15,16
 644 240 644 240 596 208.5 c 128,-1,17
 548 177 548 177 497 164 c 1,18,19
 460 83 460 83 392 36.5 c 128,-1,20
 324 -10 324 -10 227.5 -10 c 128,-1,21
 131 -10 131 -10 76 54.5 c 128,-1,22
 21 119 21 119 21 223 c 0,0,1
443 187 m 1,23,24
 456 232 456 232 456 287 c 0,25,26
 456 405 456 405 411.5 487 c 128,-1,27
 367 569 367 569 285 569 c 0,28,29
 250 569 250 569 215.5 549.5 c 128,-1,30
 181 530 181 530 166 497 c 1,31,32
 218 526 218 526 271.5 526 c 128,-1,33
 325 526 325 526 325 511 c 0,34,35
 325 502 325 502 318 497 c 128,-1,36
 311 492 311 492 304 492 c 0,37,38
 218 492 218 492 158 434 c 1,39,40
 166 332 166 332 247.5 259.5 c 128,-1,41
 329 187 329 187 443 187 c 1,23,24
265 41 m 0,42,43
 385 41 385 41 432 154 c 1,44,45
 316 154 316 154 225.5 217.5 c 128,-1,46
 135 281 135 281 119 382 c 1,47,48
 91 329 91 329 91 263 c 0,49,50
 91 172 91 172 141.5 106.5 c 128,-1,51
 192 41 192 41 265 41 c 0,42,43
389.5 672 m 128,-1,53
 376 681 376 681 376 701 c 128,-1,54
 376 721 376 721 395 733 c 128,-1,55
 414 745 414 745 430 745 c 128,-1,56
 446 745 446 745 456.5 736 c 128,-1,57
 467 727 467 727 467 714 c 0,58,59
 467 663 467 663 417 663 c 0,60,52
 403 663 403 663 389.5 672 c 128,-1,53
225.5 672 m 128,-1,62
 212 681 212 681 212 701 c 128,-1,63
 212 721 212 721 230.5 733 c 128,-1,64
 249 745 249 745 265 745 c 128,-1,65
 281 745 281 745 292 736 c 128,-1,66
 303 727 303 727 303 714 c 0,67,68
 303 663 303 663 252 663 c 0,69,61
 239 663 239 663 225.5 672 c 128,-1,62
EndSplineSet
EndChar

StartChar: Udieresis
Encoding: 220 220 109
Width: 518
Flags: HMW
HStem: -5 55<180.5 200.5> 652 82<208 217.5 373 382>
VStem: 76 70<140.5 234> 106 40 162 91<686 704.5> 326 76 341 61 341 199<175 238> 376 41
LayerCount: 2
Fore
SplineSet
106 517 m 0,0,1
 106 531 106 531 99 531 c 0,2,3
 83 531 83 531 62.5 507.5 c 128,-1,4
 42 484 42 484 35 435 c 0,5,6
 34 424 34 424 26.5 415.5 c 128,-1,7
 19 407 19 407 11 407 c 0,8,9
 -1 407 -1 407 -1 427 c 128,-1,10
 -1 447 -1 447 19 483.5 c 128,-1,11
 39 520 39 520 71.5 550 c 128,-1,12
 104 580 104 580 135 580 c 0,13,14
 171 580 171 580 170.5 522.5 c 128,-1,15
 170 465 170 465 158 355 c 128,-1,16
 146 245 146 245 146 190 c 0,17,18
 146 50 146 50 198 50 c 0,19,20
 228 50 228 50 268 98 c 128,-1,21
 308 146 308 146 339 210 c 1,22,-1
 341 238 l 1,23,24
 359 468 359 468 368 527 c 0,25,26
 370 536 370 536 399 558 c 128,-1,27
 428 580 428 580 443.5 580 c 128,-1,28
 459 580 459 580 459 522 c 0,29,30
 459 478 459 478 452 446 c 128,-1,31
 445 414 445 414 434.5 371 c 128,-1,32
 424 328 424 328 419 307 c 1,33,34
 409 173 409 173 409 73 c 0,35,36
 409 46 409 46 415 46 c 0,37,38
 432 47 432 47 464.5 94 c 128,-1,39
 497 141 497 141 512 170.5 c 128,-1,40
 527 200 527 200 533.5 200 c 128,-1,41
 540 200 540 200 540 188 c 0,42,43
 540 163 540 163 486.5 79 c 128,-1,44
 433 -5 433 -5 402 -5 c 0,45,46
 356 -5 356 -5 337 10 c 1,47,48
 329 18 329 18 329 49 c 128,-1,49
 329 80 329 80 334 145 c 1,50,51
 296 80 296 80 253.5 37.5 c 128,-1,52
 211 -5 211 -5 169.5 -5 c 128,-1,53
 128 -5 128 -5 102 39.5 c 128,-1,54
 76 84 76 84 76 159.5 c 128,-1,55
 76 235 76 235 91 348.5 c 128,-1,56
 106 462 106 462 106 517 c 0,0,1
339.5 661 m 128,-1,58
 326 670 326 670 326 690 c 128,-1,59
 326 710 326 710 345 722 c 128,-1,60
 364 734 364 734 380 734 c 128,-1,61
 396 734 396 734 406.5 725 c 128,-1,62
 417 716 417 716 417 703 c 0,63,64
 417 652 417 652 367 652 c 0,65,57
 353 652 353 652 339.5 661 c 128,-1,58
175.5 661 m 128,-1,67
 162 670 162 670 162 690 c 128,-1,68
 162 710 162 710 180.5 722 c 128,-1,69
 199 734 199 734 215 734 c 128,-1,70
 231 734 231 734 242 725 c 128,-1,71
 253 716 253 716 253 703 c 0,72,73
 253 652 253 652 202 652 c 0,74,66
 189 652 189 652 175.5 661 c 128,-1,67
EndSplineSet
EndChar

StartChar: Acircumflex
Encoding: 194 194 110
Width: 501
Flags: HMW
HStem: -5 51<391 406> 185 47 489 91<282.5 343> 728 20G<352.5 360.5>
VStem: 307 69 307 216
LayerCount: 2
Fore
SplineSet
440 601 m 128,-1,1
 428 593 428 593 422 593 c 0,2,3
 370 593 370 593 335 664 c 1,4,5
 323 638 323 638 292 621 c 128,-1,6
 261 604 261 604 246.5 604 c 128,-1,7
 232 604 232 604 231 613 c 0,8,9
 231 617.272727273 231 617.272727273 239.5 621.136363636 c 128,-1,10
 248 625 248 625 256.5 630.5 c 128,-1,11
 265 636 265 636 276 646.5 c 128,-1,12
 287 657 287 657 293 662.5 c 128,-1,13
 299 668 299 668 303 678.5 c 128,-1,14
 307 689 307 689 308 691.5 c 0,15,16
 313 704 313 704 313 719 c 1,17,18
 314 727 314 727 331.5 737.5 c 128,-1,19
 349 748 349 748 357 748 c 0,20,21
 369 748 369 748 372 728.5 c 128,-1,22
 375 709 375 709 378.5 696 c 128,-1,23
 382 683 382 683 394.5 663 c 0,24,25
 410.902439024 636.756097561 410.902439024 636.756097561 436 626 c 0,26,27
 452 619.142857143 452 619.142857143 452 614.071428571 c 128,-1,0
 452 609 452 609 440 601 c 128,-1,1
328 580 m 0,28,29
 348 580 348 580 358.5 497 c 128,-1,30
 369 414 369 414 379 237 c 1,31,32
 395 237 395 237 395 227 c 128,-1,33
 395 217 395 217 380 210 c 1,34,35
 386 46 386 46 396 46 c 0,36,37
 413 46 413 46 446.5 94 c 128,-1,38
 480 142 480 142 495 171 c 128,-1,39
 510 200 510 200 516.5 200 c 128,-1,40
 523 200 523 200 523 188 c 0,41,42
 523 163 523 163 468.5 79 c 128,-1,43
 414 -5 414 -5 383 -5 c 0,44,45
 337 -5 337 -5 317 11 c 1,46,47
 308 20 308 20 308 201 c 1,48,-1
 144 189 l 1,49,50
 125 137 125 137 110 85 c 128,-1,51
 95 33 95 33 90 21 c 0,52,53
 79 -5 79 -5 37 -5 c 0,54,55
 9 -5 9 -5 9 19 c 128,-1,56
 9 43 9 43 47 89 c 0,57,58
 54 98 54 98 93 186 c 1,59,60
 79 185 79 185 66 185 c 0,61,62
 31 185 31 185 31 215 c 0,63,64
 31 242 31 242 59 242 c 0,65,66
 61 242 61 242 116 237 c 1,67,68
 161 344 161 344 230 462 c 128,-1,69
 299 580 299 580 328 580 c 0,28,29
159 232 m 1,70,71
 276 232 276 232 308 233 c 1,72,73
 307 249 307 249 306 289 c 128,-1,74
 305 329 305 329 304 358.5 c 128,-1,75
 303 388 303 388 301.5 420.5 c 0,76,77
 298.338461538 489 298.338461538 489 290 489 c 0,78,79
 279 489 279 489 231 396 c 128,-1,80
 183 303 183 303 159 232 c 1,70,71
EndSplineSet
EndChar

StartChar: Ecircumflex
Encoding: 202 202 111
Width: 442
Flags: HMW
HStem: -15 41<196.5 256.5> 280 23<254.5 274> 303 41<226 275> 344 29<241 247.5> 373 81<241 376.5> 454 146<223.5 376.5> 569 31 600 35 770 20G<314.5 322.5>
VStem: 22 80<147 189.5> 77 25 334 56
LayerCount: 2
Fore
SplineSet
402 643 m 128,-1,1
 390 635 390 635 384 635 c 0,2,3
 332 635 332 635 297 706 c 1,4,5
 285 680 285 680 254 663 c 128,-1,6
 223 646 223 646 208.5 646 c 128,-1,7
 194 646 194 646 193 655 c 0,8,9
 193 659.272727273 193 659.272727273 201.5 663.136363636 c 128,-1,10
 210 667 210 667 218.5 672.5 c 128,-1,11
 227 678 227 678 238 688.5 c 128,-1,12
 249 699 249 699 255 704.5 c 128,-1,13
 261 710 261 710 265 720.5 c 128,-1,14
 269 731 269 731 270 733.5 c 0,15,16
 275 746 275 746 275 761 c 1,17,18
 276 769 276 769 293.5 779.5 c 128,-1,19
 311 790 311 790 319 790 c 0,20,21
 331 790 331 790 334 770.5 c 128,-1,22
 337 751 337 751 340.5 738 c 128,-1,23
 344 725 344 725 356.5 705 c 0,24,25
 372.902439024 678.756097561 372.902439024 678.756097561 398 668 c 0,26,27
 414 661.142857143 414 661.142857143 414 656.071428571 c 128,-1,0
 414 651 414 651 402 643 c 128,-1,1
334 482 m 1,28,-1
 336 509 l 1,29,30
 336 531 336 531 319.5 550.5 c 128,-1,31
 303 570 303 570 275 570 c 0,32,33
 227 570 227 570 188 527 c 128,-1,34
 149 484 149 484 149 435.5 c 128,-1,35
 149 387 149 387 174 354 c 1,36,37
 217 373 217 373 254 373 c 128,-1,38
 291 373 291 373 313.5 360.5 c 128,-1,39
 336 348 336 348 336 325 c 0,40,41
 336 280 336 280 262 280 c 0,42,43
 203 280 203 280 155 305 c 1,44,45
 131 280 131 280 116.5 246 c 128,-1,46
 102 212 102 212 102 183 c 0,47,48
 102 124 102 124 140 75 c 128,-1,49
 178 26 178 26 241 26 c 0,50,51
 330.379310345 26 330.379310345 26 416 121.5 c 0,52,53
 440.655172414 149 440.655172414 149 446.827586207 149 c 128,-1,54
 453 149 453 149 453 141 c 128,-1,55
 453 133 453 133 448 125 c 0,56,57
 396 49 396 49 339.5 17 c 128,-1,58
 283 -15 283 -15 200.5 -15 c 128,-1,59
 118 -15 118 -15 70 34 c 128,-1,60
 22 83 22 83 22 156 c 0,61,62
 22 204 22 204 50.5 248.5 c 128,-1,63
 79 293 79 293 124 325 c 1,64,65
 77 364 77 364 77 419 c 0,66,67
 77 495 77 495 136 547.5 c 128,-1,68
 195 600 195 600 279 600 c 0,69,70
 334 600 334 600 371.5 571.5 c 128,-1,71
 409 543 409 543 409 504 c 0,72,73
 409 482 409 482 396 468 c 128,-1,74
 383 454 383 454 363 454 c 0,75,76
 334 454 334 454 334 482 c 1,28,-1
271 335.5 m 128,-1,78
 255 344 255 344 234 344 c 128,-1,79
 213 344 213 344 193 334 c 1,80,81
 227 303 227 303 268 303 c 0,82,83
 277 303 277 303 282 307.5 c 128,-1,84
 287 312 287 312 287 315 c 0,85,77
 287 327 287 327 271 335.5 c 128,-1,78
EndSplineSet
EndChar

StartChar: Aacute
Encoding: 193 193 112
Width: 501
Flags: HMW
HStem: -5 51<391 406> 185 47 489 91<282.5 343> 750 20G<358 371>
VStem: 307 216 330 68<719 726.5>
LayerCount: 2
Fore
SplineSet
330 719 m 0,0,1
 330 727 330 727 325 734.5 c 128,-1,2
 320 742 320 742 320 747 c 128,-1,3
 320 752 320 752 337.5 761 c 128,-1,4
 355 770 355 770 366 770 c 128,-1,5
 377 770 377 770 387.5 758 c 128,-1,6
 398 746 398 746 398 724 c 0,7,8
 398 690 398 690 355 658 c 0,9,10
 335 643 335 643 308.5 632 c 128,-1,11
 282 621 282 621 269.5 621 c 128,-1,12
 257 621 257 621 257 630 c 0,13,14
 257 635 257 635 271 643 c 1,15,16
 329 671 329 671 330 719 c 0,0,1
328 580 m 0,17,18
 348 580 348 580 358.5 497 c 128,-1,19
 369 414 369 414 379 237 c 1,20,21
 395 237 395 237 395 227 c 128,-1,22
 395 217 395 217 380 210 c 1,23,24
 386 46 386 46 396 46 c 0,25,26
 413 46 413 46 446.5 94 c 128,-1,27
 480 142 480 142 495 171 c 128,-1,28
 510 200 510 200 516.5 200 c 128,-1,29
 523 200 523 200 523 188 c 0,30,31
 523 163 523 163 468.5 79 c 128,-1,32
 414 -5 414 -5 383 -5 c 0,33,34
 337 -5 337 -5 317 11 c 1,35,36
 308 20 308 20 308 201 c 1,37,-1
 144 189 l 1,38,39
 125 137 125 137 110 85 c 128,-1,40
 95 33 95 33 90 21 c 0,41,42
 79 -5 79 -5 37 -5 c 0,43,44
 9 -5 9 -5 9 19 c 128,-1,45
 9 43 9 43 47 89 c 0,46,47
 54 98 54 98 93 186 c 1,48,49
 79 185 79 185 66 185 c 0,50,51
 31 185 31 185 31 215 c 0,52,53
 31 242 31 242 59 242 c 0,54,55
 61 242 61 242 116 237 c 1,56,57
 161 344 161 344 230 462 c 128,-1,58
 299 580 299 580 328 580 c 0,17,18
159 232 m 1,59,60
 276 232 276 232 308 233 c 1,61,62
 307 249 307 249 306 289 c 128,-1,63
 305 329 305 329 304 358.5 c 128,-1,64
 303 388 303 388 301.5 420.5 c 0,65,66
 298.338461538 489 298.338461538 489 290 489 c 0,67,68
 279 489 279 489 231 396 c 128,-1,69
 183 303 183 303 159 232 c 1,59,60
EndSplineSet
EndChar

StartChar: Edieresis
Encoding: 203 203 113
Width: 442
Flags: HMW
HStem: -15 41<196.5 256.5> 280 23<254.5 274> 344 29<241 247.5> 454 146<223.5 376.5> 648 82<203 212.5 348 357>
VStem: 22 80<147 189.5> 77 25 157 91<682 700.5> 301 91<682 700.5> 334 58
LayerCount: 2
Fore
SplineSet
314.5 657 m 128,-1,1
 301 666 301 666 301 686 c 128,-1,2
 301 706 301 706 320 718 c 128,-1,3
 339 730 339 730 355 730 c 128,-1,4
 371 730 371 730 381.5 721 c 128,-1,5
 392 712 392 712 392 699 c 0,6,7
 392 648 392 648 342 648 c 0,8,0
 328 648 328 648 314.5 657 c 128,-1,1
170.5 657 m 128,-1,10
 157 666 157 666 157 686 c 128,-1,11
 157 706 157 706 175.5 718 c 128,-1,12
 194 730 194 730 210 730 c 128,-1,13
 226 730 226 730 237 721 c 128,-1,14
 248 712 248 712 248 699 c 0,15,16
 248 648 248 648 197 648 c 0,17,9
 184 648 184 648 170.5 657 c 128,-1,10
334 482 m 1,18,-1
 336 509 l 1,19,20
 336 531 336 531 319.5 550.5 c 128,-1,21
 303 570 303 570 275 570 c 0,22,23
 227 570 227 570 188 527 c 128,-1,24
 149 484 149 484 149 435.5 c 128,-1,25
 149 387 149 387 174 354 c 1,26,27
 217 373 217 373 254 373 c 128,-1,28
 291 373 291 373 313.5 360.5 c 128,-1,29
 336 348 336 348 336 325 c 0,30,31
 336 280 336 280 262 280 c 0,32,33
 203 280 203 280 155 305 c 1,34,35
 131 280 131 280 116.5 246 c 128,-1,36
 102 212 102 212 102 183 c 0,37,38
 102 124 102 124 140 75 c 128,-1,39
 178 26 178 26 241 26 c 0,40,41
 330.379310345 26 330.379310345 26 416 121.5 c 0,42,43
 440.655172414 149 440.655172414 149 446.827586207 149 c 128,-1,44
 453 149 453 149 453 141 c 128,-1,45
 453 133 453 133 448 125 c 0,46,47
 396 49 396 49 339.5 17 c 128,-1,48
 283 -15 283 -15 200.5 -15 c 128,-1,49
 118 -15 118 -15 70 34 c 128,-1,50
 22 83 22 83 22 156 c 0,51,52
 22 204 22 204 50.5 248.5 c 128,-1,53
 79 293 79 293 124 325 c 1,54,55
 77 364 77 364 77 419 c 0,56,57
 77 495 77 495 136 547.5 c 128,-1,58
 195 600 195 600 279 600 c 0,59,60
 334 600 334 600 371.5 571.5 c 128,-1,61
 409 543 409 543 409 504 c 0,62,63
 409 482 409 482 396 468 c 128,-1,64
 383 454 383 454 363 454 c 0,65,66
 334 454 334 454 334 482 c 1,18,-1
271 335.5 m 128,-1,68
 255 344 255 344 234 344 c 128,-1,69
 213 344 213 344 193 334 c 1,70,71
 227 303 227 303 268 303 c 0,72,73
 277 303 277 303 282 307.5 c 128,-1,74
 287 312 287 312 287 315 c 0,75,67
 287 327 287 327 271 335.5 c 128,-1,68
EndSplineSet
EndChar

StartChar: Egrave
Encoding: 200 200 114
Width: 442
Flags: HMW
HStem: -15 41<196.5 256.5> 280 23<254.5 274> 344 29<241 247.5> 454 146<223.5 376.5> 569 207
VStem: 22 80<147 189.5> 77 25 334 56
LayerCount: 2
Fore
SplineSet
264.5 735 m 128,-1,1
 272 717 272 717 276 711 c 128,-1,2
 280 705 280 705 283.5 700.5 c 128,-1,3
 287 696 287 696 290 693 c 128,-1,4
 293 690 293 690 298 686.5 c 128,-1,5
 303 683 303 683 306 681 c 128,-1,6
 309 679 309 679 315.5 675.5 c 128,-1,7
 322 672 322 672 324.5 671 c 128,-1,8
 327 670 327 670 335 666 c 2,9,-1
 345 661 l 2,10,11
 358 654 358 654 358 644 c 0,12,13
 358 629 358 629 340.5 629 c 128,-1,14
 323 629 323 629 295 638.5 c 128,-1,15
 267 648 267 648 246 662 c 0,16,17
 196 696 196 696 196 734 c 0,18,19
 196 745 196 745 212 760.5 c 128,-1,20
 228 776 228 776 235.5 776 c 128,-1,21
 243 776 243 776 250 764.5 c 128,-1,0
 257 753 257 753 264.5 735 c 128,-1,1
334 482 m 1,22,-1
 336 509 l 1,23,24
 336 531 336 531 319.5 550.5 c 128,-1,25
 303 570 303 570 275 570 c 0,26,27
 227 570 227 570 188 527 c 128,-1,28
 149 484 149 484 149 435.5 c 128,-1,29
 149 387 149 387 174 354 c 1,30,31
 217 373 217 373 254 373 c 128,-1,32
 291 373 291 373 313.5 360.5 c 128,-1,33
 336 348 336 348 336 325 c 0,34,35
 336 280 336 280 262 280 c 0,36,37
 203 280 203 280 155 305 c 1,38,39
 131 280 131 280 116.5 246 c 128,-1,40
 102 212 102 212 102 183 c 0,41,42
 102 124 102 124 140 75 c 128,-1,43
 178 26 178 26 241 26 c 0,44,45
 330.379310345 26 330.379310345 26 416 121.5 c 0,46,47
 440.655172414 149 440.655172414 149 446.827586207 149 c 128,-1,48
 453 149 453 149 453 141 c 128,-1,49
 453 133 453 133 448 125 c 0,50,51
 396 49 396 49 339.5 17 c 128,-1,52
 283 -15 283 -15 200.5 -15 c 128,-1,53
 118 -15 118 -15 70 34 c 128,-1,54
 22 83 22 83 22 156 c 0,55,56
 22 204 22 204 50.5 248.5 c 128,-1,57
 79 293 79 293 124 325 c 1,58,59
 77 364 77 364 77 419 c 0,60,61
 77 495 77 495 136 547.5 c 128,-1,62
 195 600 195 600 279 600 c 0,63,64
 334 600 334 600 371.5 571.5 c 128,-1,65
 409 543 409 543 409 504 c 0,66,67
 409 482 409 482 396 468 c 128,-1,68
 383 454 383 454 363 454 c 0,69,70
 334 454 334 454 334 482 c 1,22,-1
271 335.5 m 128,-1,72
 255 344 255 344 234 344 c 128,-1,73
 213 344 213 344 193 334 c 1,74,75
 227 303 227 303 268 303 c 0,76,77
 277 303 277 303 282 307.5 c 128,-1,78
 287 312 287 312 287 315 c 0,79,71
 287 327 287 327 271 335.5 c 128,-1,72
EndSplineSet
EndChar

StartChar: Iacute
Encoding: 205 205 115
Width: 429
Flags: HMW
HStem: -20 41<133.5 227.5 133.5 240.5> -20 148<62 240.5> 769 20G<329 342>
VStem: 108 67<363 403> 301 74<283.5 347 233.5 371.5> 301 138
LayerCount: 2
Fore
SplineSet
371 502 m 1,0,-1
 375 316 l 1,1,2
 375 -20 375 -20 145 -20 c 0,3,4
 100 -20 100 -20 63.5 1 c 128,-1,5
 27 22 27 22 27 66 c 0,6,7
 27 93 27 93 41 110.5 c 128,-1,8
 55 128 55 128 78.5 128 c 128,-1,9
 102 128 102 128 102 117 c 0,10,11
 102 112 102 112 96 97.5 c 128,-1,12
 90 83 90 83 90 68.5 c 128,-1,13
 90 54 90 54 107 37.5 c 128,-1,14
 124 21 124 21 158 21 c 128,-1,15
 192 21 192 21 217 35 c 128,-1,16
 242 49 242 49 257 76.5 c 128,-1,17
 272 104 272 104 281.5 133 c 128,-1,18
 291 162 291 162 295 205.5 c 0,19,20
 301 270.75 301 270.75 301 363.375 c 128,-1,21
 301 456 301 456 303 490 c 1,22,23
 175 468 175 468 175 380 c 0,24,25
 175 355 175 355 164.5 341 c 128,-1,26
 154 327 154 327 138 327 c 0,27,28
 108 327 108 327 108 361 c 0,29,30
 108 422 108 422 161.5 463 c 128,-1,31
 215 504 215 504 307 524 c 1,32,33
 314 565 314 565 341 590.5 c 128,-1,34
 368 616 368 616 390 616 c 128,-1,35
 412 616 412 616 425.5 603.5 c 128,-1,36
 439 591 439 591 439 570 c 0,37,38
 439 521 439 521 371 502 c 1,0,-1
301 738 m 0,39,40
 301 746 301 746 296 753.5 c 128,-1,41
 291 761 291 761 291 766 c 128,-1,42
 291 771 291 771 308.5 780 c 128,-1,43
 326 789 326 789 337 789 c 128,-1,44
 348 789 348 789 358.5 777.5 c 128,-1,45
 369 766 369 766 369 743 c 0,46,47
 369 709 369 709 326 677 c 0,48,49
 306 662 306 662 279.5 651 c 128,-1,50
 253 640 253 640 240.5 640 c 128,-1,51
 228 640 228 640 228 649 c 0,52,53
 228 654 228 654 242 662 c 1,54,55
 300 690 300 690 301 738 c 0,39,40
398 582 m 0,56,57
 376 582 376 582 372 537 c 1,58,59
 408 545 408 545 408 566 c 0,60,61
 408 582 408 582 398 582 c 0,56,57
EndSplineSet
EndChar

StartChar: Icircumflex
Encoding: 206 206 116
Width: 429
Flags: HMW
HStem: -20 41<133.5 227.5 133.5 240.5> -20 148<62 240.5> 775 20G<325.5 333.5>
VStem: 108 67<363 403> 301 74<283.5 347 233.5 371.5> 301 138
LayerCount: 2
Fore
SplineSet
413 648 m 128,-1,1
 401 640 401 640 395 640 c 0,2,3
 343 640 343 640 308 711 c 1,4,5
 296 685 296 685 265 668 c 128,-1,6
 234 651 234 651 219.5 651 c 128,-1,7
 205 651 205 651 204 660 c 0,8,9
 204 664.272727273 204 664.272727273 212.5 668.136363636 c 128,-1,10
 221 672 221 672 229.5 677.5 c 128,-1,11
 238 683 238 683 249 693.5 c 128,-1,12
 260 704 260 704 266 709.5 c 128,-1,13
 272 715 272 715 276 725.5 c 128,-1,14
 280 736 280 736 281 738.5 c 0,15,16
 286 751 286 751 286 766 c 1,17,18
 287 774 287 774 304.5 784.5 c 128,-1,19
 322 795 322 795 330 795 c 0,20,21
 342 795 342 795 345 775.5 c 128,-1,22
 348 756 348 756 351.5 743 c 128,-1,23
 355 730 355 730 367.5 710 c 0,24,25
 383.902439024 683.756097561 383.902439024 683.756097561 409 673 c 0,26,27
 425 666.142857143 425 666.142857143 425 661.071428571 c 128,-1,0
 425 656 425 656 413 648 c 128,-1,1
371 502 m 1,28,-1
 375 316 l 1,29,30
 375 -20 375 -20 145 -20 c 0,31,32
 100 -20 100 -20 63.5 1 c 128,-1,33
 27 22 27 22 27 66 c 0,34,35
 27 93 27 93 41 110.5 c 128,-1,36
 55 128 55 128 78.5 128 c 128,-1,37
 102 128 102 128 102 117 c 0,38,39
 102 112 102 112 96 97.5 c 128,-1,40
 90 83 90 83 90 68.5 c 128,-1,41
 90 54 90 54 107 37.5 c 128,-1,42
 124 21 124 21 158 21 c 128,-1,43
 192 21 192 21 217 35 c 128,-1,44
 242 49 242 49 257 76.5 c 128,-1,45
 272 104 272 104 281.5 133 c 128,-1,46
 291 162 291 162 295 205.5 c 0,47,48
 301 270.75 301 270.75 301 363.375 c 128,-1,49
 301 456 301 456 303 490 c 1,50,51
 175 468 175 468 175 380 c 0,52,53
 175 355 175 355 164.5 341 c 128,-1,54
 154 327 154 327 138 327 c 0,55,56
 108 327 108 327 108 361 c 0,57,58
 108 422 108 422 161.5 463 c 128,-1,59
 215 504 215 504 307 524 c 1,60,61
 314 565 314 565 341 590.5 c 128,-1,62
 368 616 368 616 390 616 c 128,-1,63
 412 616 412 616 425.5 603.5 c 128,-1,64
 439 591 439 591 439 570 c 0,65,66
 439 521 439 521 371 502 c 1,28,-1
398 582 m 0,67,68
 376 582 376 582 372 537 c 1,69,70
 408 545 408 545 408 566 c 0,71,72
 408 582 408 582 398 582 c 0,67,68
EndSplineSet
EndChar

StartChar: Idieresis
Encoding: 207 207 117
Width: 429
Flags: HMW
HStem: -20 41<133.5 227.5 133.5 240.5> 128 199<62 148> 648 82<241 250.5 386 395>
VStem: 108 67<363 403> 286 53<682 700.5 670 708> 301 74<283.5 347 233.5 371.5> 301 138
LayerCount: 2
Fore
SplineSet
352.5 657 m 128,-1,1
 339 666 339 666 339 686 c 128,-1,2
 339 706 339 706 358 718 c 128,-1,3
 377 730 377 730 393 730 c 128,-1,4
 409 730 409 730 419.5 721 c 128,-1,5
 430 712 430 712 430 699 c 0,6,7
 430 648 430 648 380 648 c 0,8,0
 366 648 366 648 352.5 657 c 128,-1,1
208.5 657 m 128,-1,10
 195 666 195 666 195 686 c 128,-1,11
 195 706 195 706 213.5 718 c 128,-1,12
 232 730 232 730 248 730 c 128,-1,13
 264 730 264 730 275 721 c 128,-1,14
 286 712 286 712 286 699 c 0,15,16
 286 648 286 648 235 648 c 0,17,9
 222 648 222 648 208.5 657 c 128,-1,10
371 502 m 1,18,-1
 375 316 l 1,19,20
 375 -20 375 -20 145 -20 c 0,21,22
 100 -20 100 -20 63.5 1 c 128,-1,23
 27 22 27 22 27 66 c 0,24,25
 27 93 27 93 41 110.5 c 128,-1,26
 55 128 55 128 78.5 128 c 128,-1,27
 102 128 102 128 102 117 c 0,28,29
 102 112 102 112 96 97.5 c 128,-1,30
 90 83 90 83 90 68.5 c 128,-1,31
 90 54 90 54 107 37.5 c 128,-1,32
 124 21 124 21 158 21 c 128,-1,33
 192 21 192 21 217 35 c 128,-1,34
 242 49 242 49 257 76.5 c 128,-1,35
 272 104 272 104 281.5 133 c 128,-1,36
 291 162 291 162 295 205.5 c 0,37,38
 301 270.75 301 270.75 301 363.375 c 128,-1,39
 301 456 301 456 303 490 c 1,40,41
 175 468 175 468 175 380 c 0,42,43
 175 355 175 355 164.5 341 c 128,-1,44
 154 327 154 327 138 327 c 0,45,46
 108 327 108 327 108 361 c 0,47,48
 108 422 108 422 161.5 463 c 128,-1,49
 215 504 215 504 307 524 c 1,50,51
 314 565 314 565 341 590.5 c 128,-1,52
 368 616 368 616 390 616 c 128,-1,53
 412 616 412 616 425.5 603.5 c 128,-1,54
 439 591 439 591 439 570 c 0,55,56
 439 521 439 521 371 502 c 1,18,-1
398 582 m 0,57,58
 376 582 376 582 372 537 c 1,59,60
 408 545 408 545 408 566 c 0,61,62
 408 582 408 582 398 582 c 0,57,58
EndSplineSet
EndChar

StartChar: Igrave
Encoding: 204 204 118
Width: 429
Flags: HMW
HStem: -20 41<133.5 227.5 133.5 240.5> 128 199<62 148> 768 20G<243 256>
VStem: 108 67<363 403> 301 74<283.5 347 233.5 371.5> 301 138
LayerCount: 2
Fore
SplineSet
276.5 747 m 128,-1,1
 284 729 284 729 288 723 c 128,-1,2
 292 717 292 717 295.5 712.5 c 128,-1,3
 299 708 299 708 302 705 c 128,-1,4
 305 702 305 702 310 698.5 c 128,-1,5
 315 695 315 695 318 693 c 128,-1,6
 321 691 321 691 327.5 687.5 c 128,-1,7
 334 684 334 684 336.5 683 c 128,-1,8
 339 682 339 682 347 678 c 2,9,-1
 357 673 l 2,10,11
 370 666 370 666 370 656 c 0,12,13
 370 641 370 641 352.5 641 c 128,-1,14
 335 641 335 641 307 650.5 c 128,-1,15
 279 660 279 660 258 674 c 0,16,17
 208 708 208 708 208 746 c 0,18,19
 208 757 208 757 224 772.5 c 128,-1,20
 240 788 240 788 247.5 788 c 128,-1,21
 255 788 255 788 262 776.5 c 128,-1,0
 269 765 269 765 276.5 747 c 128,-1,1
371 502 m 1,22,-1
 375 316 l 1,23,24
 375 -20 375 -20 145 -20 c 0,25,26
 100 -20 100 -20 63.5 1 c 128,-1,27
 27 22 27 22 27 66 c 0,28,29
 27 93 27 93 41 110.5 c 128,-1,30
 55 128 55 128 78.5 128 c 128,-1,31
 102 128 102 128 102 117 c 0,32,33
 102 112 102 112 96 97.5 c 128,-1,34
 90 83 90 83 90 68.5 c 128,-1,35
 90 54 90 54 107 37.5 c 128,-1,36
 124 21 124 21 158 21 c 128,-1,37
 192 21 192 21 217 35 c 128,-1,38
 242 49 242 49 257 76.5 c 128,-1,39
 272 104 272 104 281.5 133 c 128,-1,40
 291 162 291 162 295 205.5 c 0,41,42
 301 270.75 301 270.75 301 363.375 c 128,-1,43
 301 456 301 456 303 490 c 1,44,45
 175 468 175 468 175 380 c 0,46,47
 175 355 175 355 164.5 341 c 128,-1,48
 154 327 154 327 138 327 c 0,49,50
 108 327 108 327 108 361 c 0,51,52
 108 422 108 422 161.5 463 c 128,-1,53
 215 504 215 504 307 524 c 1,54,55
 314 565 314 565 341 590.5 c 128,-1,56
 368 616 368 616 390 616 c 128,-1,57
 412 616 412 616 425.5 603.5 c 128,-1,58
 439 591 439 591 439 570 c 0,59,60
 439 521 439 521 371 502 c 1,22,-1
398 582 m 0,61,62
 376 582 376 582 372 537 c 1,63,64
 408 545 408 545 408 566 c 0,65,66
 408 582 408 582 398 582 c 0,61,62
EndSplineSet
EndChar

StartChar: Oacute
Encoding: 211 211 119
Width: 601
Flags: HMW
HStem: -10 51<216 295.5> 154 33<365.5 432> 492 34<275.5 289.5 258 307.5> 569 41<263.5 343> 769 20G<374 387>
VStem: 21 70<202.5 266> 116 41 414 120 456 78<319.5 360>
LayerCount: 2
Fore
SplineSet
21 223 m 0,0,1
 21 290 21 290 46.5 355.5 c 128,-1,2
 72 421 72 421 120 464 c 1,3,4
 132 529 132 529 182.5 569.5 c 128,-1,5
 233 610 233 610 327 610 c 0,6,7
 421 610 421 610 477.5 536.5 c 128,-1,8
 534 463 534 463 534 345 c 0,9,10
 534 268 534 268 511 199 c 1,11,12
 557 215 557 215 594.5 239.5 c 0,13,14
 632 264 632 264 633 264 c 0,15,16
 644 264 644 264 644 251 c 0,17,18
 644 240 644 240 596 208.5 c 0,19,20
 548 177 548 177 497 164 c 1,21,22
 460 83 460 83 392 36.5 c 128,-1,23
 324 -10 324 -10 227.5 -10 c 0,24,25
 131 -10 131 -10 76 54.5 c 128,-1,26
 21 119 21 119 21 223 c 0,0,1
443 187 m 1,27,28
 456 232 456 232 456 287 c 0,29,30
 456 405 456 405 411.5 487 c 128,-1,31
 367 569 367 569 285 569 c 0,32,33
 250 569 250 569 215.5 549.5 c 128,-1,34
 181 530 181 530 166 497 c 1,35,36
 218 526 218 526 271.5 526 c 0,37,38
 325 526 325 526 325 511 c 0,39,40
 325 502 325 502 318 497 c 128,-1,41
 311 492 311 492 304 492 c 0,42,43
 218 492 218 492 158 434 c 1,44,45
 166 332 166 332 247.5 259.5 c 128,-1,46
 329 187 329 187 443 187 c 1,27,28
265 41 m 0,47,48
 385 41 385 41 432 154 c 1,49,50
 317 154 317 154 226 217.5 c 128,-1,51
 135 281 135 281 119 382 c 1,52,53
 91 329 91 329 91 263 c 0,54,55
 91 172 91 172 141.5 106.5 c 128,-1,56
 192 41 192 41 265 41 c 0,47,48
346 738 m 0,57,58
 346 746 346 746 341 753.5 c 128,-1,59
 336 761 336 761 336 766 c 0,60,61
 336 771 336 771 353.5 780 c 128,-1,62
 371 789 371 789 382 789 c 0,63,64
 393 789 393 789 403.5 777.5 c 128,-1,65
 414 766 414 766 414 743 c 0,66,67
 414 709 414 709 371 677 c 0,68,69
 351 662 351 662 324.5 651 c 128,-1,70
 298 640 298 640 285.5 640 c 0,71,72
 273 640 273 640 273 649 c 0,73,74
 273 654 273 654 287 662 c 1,75,76
 345 690 345 690 346 738 c 0,57,58
EndSplineSet
EndChar

StartChar: Ocircumflex
Encoding: 212 212 120
Width: 601
Flags: HMW
HStem: -10 51<216 295.5> 154 33<365.5 432> 492 34<275.5 289.5 258 307.5> 569 41<263.5 343> 569 76<263.5 421> 780 20G<347.5 355.5>
VStem: 21 70<202.5 266> 116 41 456 78<319.5 360>
LayerCount: 2
Fore
SplineSet
435 653 m 128,-1,1
 423 645 423 645 417 645 c 0,2,3
 365 645 365 645 330 716 c 1,4,5
 318 690 318 690 287 673 c 128,-1,6
 256 656 256 656 241.5 656 c 128,-1,7
 227 656 227 656 226 665 c 0,8,9
 226 669.272727273 226 669.272727273 234.5 673.136363636 c 128,-1,10
 243 677 243 677 251.5 682.5 c 128,-1,11
 260 688 260 688 271 698.5 c 128,-1,12
 282 709 282 709 288 714.5 c 128,-1,13
 294 720 294 720 298 730.5 c 128,-1,14
 302 741 302 741 303 743.5 c 0,15,16
 308 756 308 756 308 771 c 1,17,18
 309 779 309 779 326.5 789.5 c 128,-1,19
 344 800 344 800 352 800 c 0,20,21
 364 800 364 800 367 780.5 c 128,-1,22
 370 761 370 761 373.5 748 c 128,-1,23
 377 735 377 735 389.5 715 c 0,24,25
 405.902439024 688.756097561 405.902439024 688.756097561 431 678 c 0,26,27
 447 671.142857143 447 671.142857143 447 666.071428571 c 128,-1,0
 447 661 447 661 435 653 c 128,-1,1
21 223 m 0,28,29
 21 290 21 290 46.5 355.5 c 128,-1,30
 72 421 72 421 120 464 c 1,31,32
 132 529 132 529 182.5 569.5 c 128,-1,33
 233 610 233 610 327 610 c 128,-1,34
 421 610 421 610 477.5 536.5 c 128,-1,35
 534 463 534 463 534 345 c 0,36,37
 534 268 534 268 511 199 c 1,38,39
 557 215 557 215 594.5 239.5 c 128,-1,40
 632 264 632 264 633 264 c 0,41,42
 644 264 644 264 644 251 c 0,43,44
 644 240 644 240 596 208.5 c 128,-1,45
 548 177 548 177 497 164 c 1,46,47
 460 83 460 83 392 36.5 c 128,-1,48
 324 -10 324 -10 227.5 -10 c 128,-1,49
 131 -10 131 -10 76 54.5 c 128,-1,50
 21 119 21 119 21 223 c 0,28,29
443 187 m 1,51,52
 456 232 456 232 456 287 c 0,53,54
 456 405 456 405 411.5 487 c 128,-1,55
 367 569 367 569 285 569 c 0,56,57
 250 569 250 569 215.5 549.5 c 128,-1,58
 181 530 181 530 166 497 c 1,59,60
 218 526 218 526 271.5 526 c 128,-1,61
 325 526 325 526 325 511 c 0,62,63
 325 502 325 502 318 497 c 128,-1,64
 311 492 311 492 304 492 c 0,65,66
 218 492 218 492 158 434 c 1,67,68
 166 332 166 332 247.5 259.5 c 128,-1,69
 329 187 329 187 443 187 c 1,51,52
265 41 m 0,70,71
 385 41 385 41 432 154 c 1,72,73
 317 154 317 154 226 217.5 c 128,-1,74
 135 281 135 281 119 382 c 1,75,76
 91 329 91 329 91 263 c 0,77,78
 91 172 91 172 141.5 106.5 c 128,-1,79
 192 41 192 41 265 41 c 0,70,71
EndSplineSet
EndChar

StartChar: Ograve
Encoding: 210 210 121
Width: 601
Flags: HMW
HStem: -10 51<216 295.5> 154 33<365.5 432> 492 34<275.5 289.5 258 307.5> 569 41<263.5 343> 610 178<283 296 283 389>
VStem: 21 70<202.5 266> 116 41 456 78<319.5 360>
LayerCount: 2
Fore
SplineSet
316.5 747 m 128,-1,1
 324 729 324 729 328 723 c 128,-1,2
 332 717 332 717 335.5 712.5 c 128,-1,3
 339 708 339 708 342 705 c 128,-1,4
 345 702 345 702 350 698.5 c 128,-1,5
 355 695 355 695 358 693 c 128,-1,6
 361 691 361 691 367.5 687.5 c 128,-1,7
 374 684 374 684 376.5 683 c 128,-1,8
 379 682 379 682 387 678 c 2,9,-1
 397 673 l 2,10,11
 410 666 410 666 410 656 c 0,12,13
 410 641 410 641 392.5 641 c 128,-1,14
 375 641 375 641 347 650.5 c 128,-1,15
 319 660 319 660 298 674 c 0,16,17
 248 708 248 708 248 746 c 0,18,19
 248 757 248 757 264 772.5 c 128,-1,20
 280 788 280 788 287.5 788 c 128,-1,21
 295 788 295 788 302 776.5 c 128,-1,0
 309 765 309 765 316.5 747 c 128,-1,1
21 223 m 0,22,23
 21 290 21 290 46.5 355.5 c 128,-1,24
 72 421 72 421 120 464 c 1,25,26
 132 529 132 529 182.5 569.5 c 128,-1,27
 233 610 233 610 327 610 c 128,-1,28
 421 610 421 610 477.5 536.5 c 128,-1,29
 534 463 534 463 534 345 c 0,30,31
 534 268 534 268 511 199 c 1,32,33
 557 215 557 215 594.5 239.5 c 128,-1,34
 632 264 632 264 633 264 c 0,35,36
 644 264 644 264 644 251 c 0,37,38
 644 240 644 240 596 208.5 c 128,-1,39
 548 177 548 177 497 164 c 1,40,41
 460 83 460 83 392 36.5 c 128,-1,42
 324 -10 324 -10 227.5 -10 c 128,-1,43
 131 -10 131 -10 76 54.5 c 128,-1,44
 21 119 21 119 21 223 c 0,22,23
443 187 m 1,45,46
 456 232 456 232 456 287 c 0,47,48
 456 405 456 405 411.5 487 c 128,-1,49
 367 569 367 569 285 569 c 0,50,51
 250 569 250 569 215.5 549.5 c 128,-1,52
 181 530 181 530 166 497 c 1,53,54
 218 526 218 526 271.5 526 c 128,-1,55
 325 526 325 526 325 511 c 0,56,57
 325 502 325 502 318 497 c 128,-1,58
 311 492 311 492 304 492 c 0,59,60
 218 492 218 492 158 434 c 1,61,62
 166 332 166 332 247.5 259.5 c 128,-1,63
 329 187 329 187 443 187 c 1,45,46
265 41 m 0,64,65
 385 41 385 41 432 154 c 1,66,67
 317 154 317 154 226 217.5 c 128,-1,68
 135 281 135 281 119 382 c 1,69,70
 91 329 91 329 91 263 c 0,71,72
 91 172 91 172 141.5 106.5 c 128,-1,73
 192 41 192 41 265 41 c 0,64,65
EndSplineSet
EndChar

